<?xml version="1.0" encoding="UTF-8" standalone="no"?>
<!-- Created with Inkscape (http://www.inkscape.org/) -->

<svg
   xmlns:dc="http://purl.org/dc/elements/1.1/"
   xmlns:cc="http://creativecommons.org/ns#"
   xmlns:rdf="http://www.w3.org/1999/02/22-rdf-syntax-ns#"
   xmlns:svg="http://www.w3.org/2000/svg"
   xmlns="http://www.w3.org/2000/svg"
   xmlns:sodipodi="http://sodipodi.sourceforge.net/DTD/sodipodi-0.dtd"
   xmlns:inkscape="http://www.inkscape.org/namespaces/inkscape"
   width="26.957809mm"
   height="17.876308mm"
   viewBox="0 0 95.519797 63.34125"
   id="svg7098"
   version="1.1"
   inkscape:version="0.91 r13725"
   sodipodi:docname="ship.svg">
  <defs
     id="defs7100" />
  <sodipodi:namedview
     id="base"
     pagecolor="#ffffff"
     bordercolor="#666666"
     borderopacity="1.0"
     inkscape:pageopacity="0.0"
     inkscape:pageshadow="2"
     inkscape:zoom="11.849695"
     inkscape:cx="57.578695"
     inkscape:cy="26.263966"
     inkscape:document-units="px"
     inkscape:current-layer="layer1"
     showgrid="false"
     fit-margin-top="0"
     fit-margin-left="0"
     fit-margin-right="0"
     fit-margin-bottom="0"
     inkscape:window-width="2560"
     inkscape:window-height="1371"
     inkscape:window-x="0"
     inkscape:window-y="0"
     inkscape:window-maximized="1" />
  <metadata
     id="metadata7103">
    <rdf:RDF>
      <cc:Work
         rdf:about="">
        <dc:format>image/svg+xml</dc:format>
        <dc:type
           rdf:resource="http://purl.org/dc/dcmitype/StillImage" />
        <dc:title></dc:title>
      </cc:Work>
    </rdf:RDF>
  </metadata>
  <g
     inkscape:label="Layer 1"
     inkscape:groupmode="layer"
     id="layer1"
     transform="translate(-343.66868,-457.83444)">
    <path
       inkscape:connector-curvature="0"
       id="path4929"
       style="fill:#73cca7;fill-opacity:1;fill-rule:nonzero;stroke:none"
       d="m 375.82499,481.43944 6.0704,0 0,-12.14209 -6.0704,0 0,12.14209 z" />
    <path
       inkscape:connector-curvature="0"
       id="path4931"
       style="fill:#ade2c1;fill-opacity:1;fill-rule:nonzero;stroke:none"
       d="m 369.75429,481.43944 6.0708,0 0,-12.14209 -6.0708,0 0,12.14209 z" />
    <path
       inkscape:connector-curvature="0"
       id="path4933"
       style="fill:#73cca7;fill-opacity:1;fill-rule:nonzero;stroke:none"
       d="m 360.52519,481.43944 6.0713,0 0,-12.14209 -6.0713,0 0,12.14209 z" />
    <path
       inkscape:connector-curvature="0"
       id="path4935"
       style="fill:#ade2c1;fill-opacity:1;fill-rule:nonzero;stroke:none"
       d="m 354.45389,481.43944 6.0713,0 0,-12.14209 -6.0713,0 0,12.14209 z" />
    <path
       inkscape:connector-curvature="0"
       id="path4937"
       style="fill:#73cca7;fill-opacity:1;fill-rule:nonzero;stroke:none"
       d="m 389.91929,493.57569 0,-11.77375 -6.0713,0 0,11.77375 6.0713,0" />
    <path
       inkscape:connector-curvature="0"
       id="path4939"
       style="fill:#ade2c1;fill-opacity:1;fill-rule:nonzero;stroke:none"
       d="m 377.77669,493.57569 6.0713,0 0,-11.77344 -6.0713,0 0,11.77344 z" />
    <path
       inkscape:connector-curvature="0"
       id="path4941"
       style="fill:#73cca7;fill-opacity:1;fill-rule:nonzero;stroke:none"
       d="m 368.54819,493.57569 6.0708,0 0,-11.77344 -6.0708,0 0,11.77344 z" />
    <path
       inkscape:connector-curvature="0"
       id="path4943"
       style="fill:#ade2c1;fill-opacity:1;fill-rule:nonzero;stroke:none"
       d="m 362.47789,493.57569 6.0703,0 0,-11.77344 -6.0703,0 0,11.77344 z" />
    <path
       inkscape:connector-curvature="0"
       id="path4945"
       style="fill:#73cca7;fill-opacity:1;fill-rule:nonzero;stroke:none"
       d="m 353.24839,493.57569 6.0713,0 0,-11.77344 -6.0713,0 0,11.77344 z" />
    <path
       inkscape:connector-curvature="0"
       id="path4947"
       style="fill:#ade2c1;fill-opacity:1;fill-rule:nonzero;stroke:none"
       d="m 347.17699,493.57569 6.0713,0 0,-11.77344 -6.0713,0 0,11.77344 z" />
    <path
       inkscape:connector-curvature="0"
       id="path4949"
       style="fill:#e9e8e7;fill-opacity:1;fill-rule:nonzero;stroke:none"
       d="m 399.08189,477.22694 c 0.1161,-0.0787 0.2505,-0.13 0.3828,-0.18375 0.2315,-0.095 0.4766,-0.1625 0.7392,-0.1625 0.4874,0 0.9254,0.18625 1.274,0.47125 l 9e-4,0 0.294,0.29875 c 0.082,0.10375 0.1332,0.23 0.1957,0.3475 0.1432,0.2725 0.2482,0.56625 0.2482,0.895 0,0.41375 -0.1294,0.795 -0.3409,1.12 -0.3569,0.535 -0.9741,0.8925 -1.6719,0.8925 -1.1112,0 -2.0121,-0.9 -2.0121,-2.0125 0,-0.35625 0.098,-0.6925 0.2641,-0.98375 0.1538,-0.2725 0.3666,-0.5075 0.626,-0.6825 z m 6.3871,0.27 c 0.096,-0.0987 0.1968,-0.1925 0.3115,-0.27 l 0.3068,-0.1475 c 0.2524,-0.11625 0.521,-0.19875 0.8202,-0.19875 0.4785,0 0.9253,0.18625 1.2739,0.47125 0.1055,0.0888 0.2031,0.18625 0.292,0.3 0.08,0.10125 0.1304,0.225 0.191,0.34125 0.1435,0.27375 0.249,0.56875 0.249,0.90125 0,0.4125 -0.1255,0.79625 -0.3389,1.115 -0.09,0.135 -0.1957,0.25875 -0.3153,0.3675 -0.357,0.32625 -0.8335,0.52875 -1.3517,0.52875 -0.5566,0 -1.0595,-0.225 -1.4238,-0.59 -0.3648,-0.36375 -0.5898,-0.86625 -0.5898,-1.42125 0,-0.3 0.077,-0.58 0.1943,-0.835 l 0.048,-0.12375 0,-0.004 c 0.088,-0.16125 0.2018,-0.305 0.3292,-0.435 z m 7.0103,-0.27 c 0.124,-0.0825 0.2646,-0.14 0.4057,-0.195 0.2247,-0.0888 0.463,-0.15125 0.7174,-0.15125 0.4863,0 0.9253,0.18625 1.2739,0.47125 l 0.033,0.0337 0.2613,0.265 0.1571,0.28125 c 0.167,0.2875 0.2866,0.60625 0.2866,0.96125 0,0.41375 -0.1293,0.795 -0.3402,1.12 -0.3648,0.535 -0.9741,0.8925 -1.6719,0.8925 -1.1114,0 -2.0122,-0.9 -2.0122,-2.0125 0,-0.345 0.089,-0.67125 0.2456,-0.9575 0.1542,-0.28375 0.376,-0.5275 0.6435,-0.70875 z m 6.3345,0.31625 c 0.1079,-0.12 0.2305,-0.22625 0.3642,-0.31625 l 0.3003,-0.14375 c 0.254,-0.1175 0.524,-0.2025 0.8189,-0.2025 0.2441,0 0.4776,0.0475 0.6933,0.12875 0.2144,0.0825 0.4117,0.1975 0.585,0.3425 l 0.1948,0.1975 0.1021,0.1025 c 0.1001,0.12625 0.1694,0.27875 0.2393,0.42875 0.1157,0.25125 0.1992,0.51875 0.1992,0.81375 0,0.195 -0.032,0.38375 -0.084,0.5625 l 0,0.0312 c -0.058,0.18625 -0.1426,0.3625 -0.249,0.52125 l 0,0.004 -5e-4,0 c -0.3569,0.535 -0.9736,0.8925 -1.6719,0.8925 -0.5932,0 -1.1215,-0.265 -1.4892,-0.67875 -0.3174,-0.355 -0.5161,-0.81875 -0.5161,-1.3325 0,-0.485 0.1782,-0.92125 0.4625,-1.26875 l 0.059,-0.0825 z m 6.3696,6.75375 0,-6.9075 c 0,-0.75 -0.2372,-1.45 -0.6372,-2.0125 l -0.1133,-0.1375 -28.3369,0 -0.1006,0.1375 c -0.4126,0.5625 -0.6489,1.2625 -0.6489,2.0125 l 0,6.9125 0.1993,0 0.04,-0.005 29.5976,0" />
    <path
       inkscape:connector-curvature="0"
       id="path4951"
       style="fill:#b0b0ae;fill-opacity:1;fill-rule:nonzero;stroke:none"
       d="m 425.18639,491.16319 0,0 c -0.4877,0 -0.9247,-0.18125 -1.2681,-0.47 l -0.2603,-0.25125 c -0.2938,-0.35 -0.479,-0.795 -0.479,-1.28875 0,-1.11 0.8995,-2.00875 2.0099,-2.00875 0.3241,0 0.6196,0.095 0.8906,0.23125 l 0.2339,0.11125 0.1811,0.1575 c 0.1827,0.15875 0.3457,0.33875 0.4619,0.5525 0.077,0.1425 0.1373,0.295 0.1788,0.455 0.041,0.16 0.064,0.3275 0.064,0.50125 0,1.11 -0.9004,2.01 -2.0098,2.01 z m -6.6987,0 c -0.1852,0 -0.3594,-0.0325 -0.5284,-0.08 -0.2544,-0.0713 -0.4916,-0.185 -0.6948,-0.34375 -0.1128,-0.0888 -0.2173,-0.18875 -0.3106,-0.29875 -0.292,-0.34875 -0.4785,-0.79375 -0.4785,-1.29 0,-0.50875 0.1973,-0.96875 0.5123,-1.3225 0.3676,-0.41625 0.9003,-0.68375 1.4995,-0.68375 0.417,0 0.8032,0.12625 1.1245,0.34375 0.27,0.1825 0.4916,0.43 0.647,0.7175 0.1532,0.2825 0.2421,0.60375 0.2421,0.945 0,1.1125 -0.9009,2.0125 -2.0131,2.0125 z m -4.7072,-1.7525 -0.022,0.13375 -0.01,0.0263 -0.013,0.0588 -0.049,0.1625 -0.034,0.0875 -0.044,0.105 -0.061,0.1325 -0.097,0.16125 0,0 -0.027,0.0337 -0.01,0.0163 -0.032,0.0487 -0.1021,0.11 -0.2436,0.22875 -0.02,0.0175 -0.017,0.0125 -0.1553,0.10875 -0.104,0.065 -0.1293,0.0625 -0.058,0.0275 -0.032,0.0163 -0.146,0.0487 -0.1177,0.0275 -0.1026,0.0238 -0.056,0.0138 -0.017,0 -0.2915,0.0238 -0.01,0 c -0.5118,0 -0.9659,-0.2025 -1.3169,-0.51875 l -0.209,-0.2025 c -0.296,-0.35 -0.48,-0.795 -0.48,-1.28875 0,-1.11 0.8994,-2.00875 2.0097,-2.00875 0.3599,0 0.6895,0.10875 0.9815,0.27375 l 0.143,0.0688 0.084,0.0737 c 0.4834,0.3675 0.8023,0.94 0.8023,1.5925 l 0,0.0162 -0.016,0.24125 z m -8.6913,1.7525 c -0.3082,0 -0.5987,-0.07 -0.8579,-0.19625 -0.2593,-0.125 -0.4888,-0.30625 -0.6758,-0.52625 -0.2915,-0.34875 -0.4785,-0.79375 -0.4785,-1.29 0,-0.55125 0.2255,-1.05375 0.5903,-1.41625 0.3637,-0.365 0.8667,-0.59 1.4219,-0.59 0.251,0 0.4853,0.0588 0.7066,0.1425 0.1474,0.055 0.2924,0.11375 0.4219,0.2 l 0.2963,0.26 c 0.1323,0.135 0.2519,0.2825 0.3428,0.44875 0.1557,0.285 0.2456,0.61 0.2456,0.955 0,1.1125 -0.9009,2.0125 -2.0132,2.0125 z m -4.7149,-1.70375 -0.01,0.0412 -0.03,0.1375 -0.025,0.11375 -0.032,0.0687 -0.1372,0.30125 -0.034,0.0762 -0.036,0.0525 -0.052,0.0725 -0.051,0.0688 -0.076,0.0838 c -0.252,0.28625 -0.582,0.4975 -0.9595,0.60375 -0.1729,0.0487 -0.3515,0.0838 -0.5395,0.0838 l 0,0 c -0.4624,0 -0.8848,-0.15875 -1.2222,-0.42375 l -0.028,-0.0275 -0.2803,-0.27 c -0.2939,-0.35 -0.479,-0.795 -0.479,-1.28875 0,-1.11 0.8999,-2.00875 2.0098,-2.00875 0.2056,0 0.4023,0.0312 0.5883,0.0888 0.1929,0.0575 0.3742,0.1425 0.5358,0.25375 l 4e-4,0 c 0.5342,0.3625 0.8852,0.9725 0.8852,1.66625 l -0.01,0.0475 -0.021,0.25875 z m 33.6216,-2.36625 c 0,-1.545 -1.251,-2.79625 -2.7939,-2.79625 l -35.6162,0 -0.04,0.005 c -1.379,0.0225 -2.4908,1.1425 -2.4908,2.5275 l 0,6.74375 40.9409,0 0,-6.48" />
    <path
       inkscape:connector-curvature="0"
       id="path4953"
       style="fill:#4c94a1;fill-opacity:1;fill-rule:nonzero;stroke:none"
       d="m 437.16389,493.57569 -44.1094,0 0,3.89625 45.6153,0 0.4179,-1.3975 c 0.4072,-1.355 -0.4565,-2.49875 -1.9238,-2.49875" />
    <path
       inkscape:connector-curvature="0"
       id="path4955"
       style="fill:#5fb0c2;fill-opacity:1;fill-rule:nonzero;stroke:none"
       d="m 393.05449,493.57569 -47.9131,0 c -1.4809,0 -1.9121,1.15 -0.9853,2.51375 l 0.9399,1.3825 47.9585,0 0,-3.89625" />
    <path
       inkscape:connector-curvature="0"
       id="path4957"
       style="fill:#5fb0c2;fill-opacity:1;fill-rule:nonzero;stroke:none"
       d="m 352.11989,507.83569 8.1188,11.97 c 0.5141,0.76125 1.8041,1.37 2.87,1.37 l 29.9458,-0.0312 0,-13.30875 -40.9346,0" />
    <path
       inkscape:connector-curvature="0"
       id="path4959"
       style="fill:#4c94a1;fill-opacity:1;fill-rule:nonzero;stroke:none"
       d="m 393.05449,521.14444 36.6192,-0.0375 c 1.065,0 2.1127,-0.61625 2.3383,-1.37125 l 3.5557,-11.9 -42.5132,0 0,13.30875" />
    <path
       inkscape:connector-curvature="0"
       id="path4961"
       style="fill:#5fb0c2;fill-opacity:1;fill-rule:nonzero;stroke:none"
       d="m 393.05449,500.72319 -45.7538,0 2.687,3.965 43.0668,0 0,-3.965" />
    <path
       inkscape:connector-curvature="0"
       id="path4963"
       style="fill:#4c94a1;fill-opacity:1;fill-rule:nonzero;stroke:none"
       d="m 393.05449,504.68819 43.4575,0 1.1865,-3.965 -44.644,0 0,3.965" />
    <path
       inkscape:connector-curvature="0"
       id="path4965"
       style="fill:#f1495e;fill-opacity:1;fill-rule:nonzero;stroke:none"
       d="m 393.05449,500.72319 44.644,0 0.9713,-3.25125 -45.6153,0 0,3.25125" />
    <path
       inkscape:connector-curvature="0"
       id="path4967"
       style="fill:#f3647a;fill-opacity:1;fill-rule:nonzero;stroke:none"
       d="m 393.05449,497.47194 -47.9585,0 2.2047,3.25125 45.7538,0 0,-3.25125" />
    <path
       inkscape:connector-curvature="0"
       id="path4969"
       style="fill:#f3647a;fill-opacity:1;fill-rule:nonzero;stroke:none"
       d="m 393.05449,504.68819 -43.0668,0 2.1322,3.1475 40.9346,0 0,-3.1475" />
    <path
       inkscape:connector-curvature="0"
       id="path4971"
       style="fill:#f1495e;fill-opacity:1;fill-rule:nonzero;stroke:none"
       d="m 393.05449,507.83569 42.5132,0 0.9443,-3.1475 -43.4575,0 0,3.1475" />
    <path
       inkscape:connector-curvature="0"
       id="path4973"
       style="fill:#4c94a1;fill-opacity:1;fill-rule:nonzero;stroke:none"
       d="m 400.20489,480.90319 c 0.6968,0 1.31,-0.355 1.6709,-0.89375 0.2134,-0.31875 0.3379,-0.7025 0.3379,-1.115 0,-0.33 -0.1035,-0.62375 -0.2452,-0.89625 -0.062,-0.1175 -0.1137,-0.24375 -0.1957,-0.3475 l -0.294,-0.29875 -9e-4,0 c -0.3472,-0.28875 -0.7871,-0.4675 -1.273,-0.4675 -0.2646,0 -0.5087,0.065 -0.7402,0.15875 -0.1323,0.0537 -0.2667,0.105 -0.3828,0.18375 -0.2594,0.175 -0.4722,0.41 -0.626,0.6825 -0.1641,0.29125 -0.2602,0.62625 -0.2602,0.985 0,1.11 0.8988,2.00875 2.0092,2.00875" />
    <path
       inkscape:connector-curvature="0"
       id="path4975"
       style="fill:#4c94a1;fill-opacity:1;fill-rule:nonzero;stroke:none"
       d="m 405.08819,478.05944 c -0.1177,0.255 -0.1943,0.535 -0.1943,0.835 0,0.555 0.225,1.0575 0.5898,1.42125 0.3638,0.36375 0.8652,0.5875 1.4205,0.5875 0.522,0 0.9975,-0.2 1.355,-0.52625 0.1196,-0.10875 0.225,-0.2325 0.3153,-0.3675 0.2134,-0.31875 0.3389,-0.7025 0.3389,-1.115 0,-0.3325 -0.1055,-0.6275 -0.249,-0.90125 -0.061,-0.11625 -0.1114,-0.24 -0.1929,-0.3425 l -0.294,-0.29875 c -0.3471,-0.28875 -0.788,-0.4675 -1.2733,-0.4675 -0.295,0 -0.565,0.0813 -0.8169,0.195 l -0.3068,0.1475 c -0.1147,0.0775 -0.2157,0.17125 -0.3115,0.27 -0.1268,0.13 -0.2411,0.27375 -0.3291,0.435 l 0,0.004 -0.048,0.12375" />
    <path
       inkscape:connector-curvature="0"
       id="path4977"
       style="fill:#4c94a1;fill-opacity:1;fill-rule:nonzero;stroke:none"
       d="m 413.60239,480.90319 c 0.6973,0 1.3105,-0.355 1.6709,-0.89375 0.2134,-0.31875 0.3394,-0.7025 0.3394,-1.115 0,-0.3575 -0.1197,-0.675 -0.2848,-0.9625 l -0.1571,-0.28125 -0.2613,-0.265 -0.033,-0.0337 c -0.3471,-0.28875 -0.7876,-0.4675 -1.2739,-0.4675 -0.2554,0 -0.4927,0.06 -0.7174,0.1475 -0.1411,0.055 -0.2817,0.1125 -0.4057,0.195 -0.2675,0.18125 -0.4893,0.425 -0.6435,0.70875 -0.1553,0.285 -0.2431,0.6125 -0.2431,0.95875 0,1.11 0.8998,2.00875 2.0097,2.00875" />
    <path
       inkscape:connector-curvature="0"
       id="path4979"
       style="fill:#4c94a1;fill-opacity:1;fill-rule:nonzero;stroke:none"
       d="m 418.80789,480.22694 c 0.3678,0.4125 0.8975,0.67625 1.4933,0.67625 0.6957,0 1.3071,-0.35375 1.6683,-0.89 l 0,-0.004 c 0.1064,-0.15875 0.1909,-0.335 0.249,-0.52125 l 0,-0.0312 c 0.052,-0.17875 0.084,-0.3675 0.084,-0.5625 0,-0.295 -0.083,-0.5625 -0.1992,-0.81375 -0.07,-0.15 -0.1406,-0.3025 -0.2423,-0.43 l -0.099,-0.10125 -0.1947,-0.1975 c -0.1734,-0.145 -0.3707,-0.26 -0.585,-0.3425 -0.2149,-0.08 -0.4458,-0.125 -0.6894,-0.125 -0.2969,0 -0.5689,0.0825 -0.8229,0.19875 l -0.3002,0.14375 c -0.1338,0.09 -0.2564,0.19625 -0.3643,0.31625 l -0.059,0.0825 c -0.2842,0.3475 -0.4625,0.78375 -0.4625,1.26875 0,0.51375 0.1988,0.9775 0.5161,1.3325" />
    <path
       inkscape:connector-curvature="0"
       id="path4981"
       style="fill:#4c94a1;fill-opacity:1;fill-rule:nonzero;stroke:none"
       d="m 399.51489,487.48819 0,-10e-4 c -0.1635,-0.11 -0.3437,-0.195 -0.5361,-0.25375 -0.186,-0.0575 -0.3828,-0.0888 -0.5884,-0.0888 -1.1099,0 -2.0097,0.89875 -2.0097,2.00875 0,0.49375 0.1851,0.93875 0.479,1.28875 l 0.2802,0.27 0.028,0.0275 c 0.3374,0.265 0.7597,0.42375 1.2221,0.42375 l 0,0 c 0.1895,0 0.3686,-0.035 0.542,-0.0838 0.3775,-0.10625 0.7075,-0.3175 0.9595,-0.60375 l 0.1265,-0.1525 0.052,-0.0725 0.069,-0.12875 0.1373,-0.30125 0.057,-0.1825 0.03,-0.1375 0.03,-0.3 0.01,-0.0475 c 0,-0.69375 -0.351,-1.30375 -0.8852,-1.665" />
    <path
       inkscape:connector-curvature="0"
       id="path4983"
       style="fill:#4c94a1;fill-opacity:1;fill-rule:nonzero;stroke:none"
       d="m 407.09889,489.15319 c 0,-0.34625 -0.088,-0.6725 -0.2421,-0.9575 -0.091,-0.16625 -0.2105,-0.31375 -0.3428,-0.44875 l -0.2998,-0.25875 c -0.1279,-0.0863 -0.2724,-0.14625 -0.4184,-0.20125 -0.2213,-0.0837 -0.4556,-0.1425 -0.7066,-0.1425 -0.5552,0 -1.0582,0.225 -1.4219,0.59 -0.3633,0.3625 -0.5879,0.865 -0.5879,1.41875 0,0.49375 0.1851,0.93875 0.48,1.28875 0.1841,0.21875 0.4126,0.4 0.6719,0.525 0.2592,0.125 0.5497,0.19625 0.8579,0.19625 1.1103,0 2.0097,-0.9 2.0097,-2.01" />
    <path
       inkscape:connector-curvature="0"
       id="path4985"
       style="fill:#4c94a1;fill-opacity:1;fill-rule:nonzero;stroke:none"
       d="m 412.99639,487.56069 -0.083,-0.0725 -0.143,-0.07 c -0.292,-0.165 -0.6216,-0.27375 -0.9815,-0.27375 -1.1104,0 -2.0097,0.89875 -2.0097,2.00875 0,0.49375 0.184,0.93875 0.48,1.28875 l 0.209,0.2025 c 0.3535,0.31625 0.8085,0.51875 1.3207,0.51875 0.1265,0 0.2485,-0.015 0.3681,-0.0375 l 0.1027,-0.0238 0.2958,-0.0925 0.058,-0.0275 0.2334,-0.1275 0.1552,-0.10875 0.036,-0.03 0.2436,-0.22875 0.1447,-0.175 0.027,-0.0337 0.1606,-0.29375 0.044,-0.105 0.095,-0.30875 0.01,-0.0263 c 0.024,-0.1225 0.037,-0.2475 0.038,-0.375 l 0,-0.0162 c 0,-0.6525 -0.3189,-1.225 -0.8023,-1.5925" />
    <path
       inkscape:connector-curvature="0"
       id="path4987"
       style="fill:#4c94a1;fill-opacity:1;fill-rule:nonzero;stroke:none"
       d="m 420.49689,489.15319 c 0,-0.3425 -0.087,-0.665 -0.2382,-0.9475 -0.1554,-0.2875 -0.377,-0.535 -0.647,-0.7175 -0.3213,-0.2175 -0.7075,-0.34375 -1.1245,-0.34375 -0.5992,0 -1.1319,0.2675 -1.4995,0.68375 -0.314,0.355 -0.5098,0.815 -0.5098,1.325 0,0.49375 0.184,0.93875 0.479,1.28875 l 0.3076,0.2975 c 0.2032,0.15875 0.4404,0.2725 0.6948,0.34375 0.169,0.0475 0.3432,0.08 0.5279,0.08 1.1103,0 2.0097,-0.9 2.0097,-2.01" />
    <path
       inkscape:connector-curvature="0"
       id="path4989"
       style="fill:#4c94a1;fill-opacity:1;fill-rule:nonzero;stroke:none"
       d="m 426.95389,488.19694 c -0.1162,-0.21375 -0.2792,-0.39375 -0.4619,-0.5525 l -0.1811,-0.15625 -0.2339,-0.1125 c -0.271,-0.13625 -0.5665,-0.23125 -0.8906,-0.23125 -1.1104,0 -2.0099,0.89875 -2.0099,2.00875 0,0.49375 0.1852,0.93875 0.479,1.28875 l 0.2603,0.25125 c 0.3452,0.28875 0.7832,0.47 1.2701,0.47 l 5e-4,0 c 1.1094,0 2.0098,-0.9 2.0098,-2.01 0,-0.17375 -0.023,-0.34125 -0.064,-0.50125 -0.041,-0.16 -0.1022,-0.3125 -0.1788,-0.455" />
    <path
       inkscape:connector-curvature="0"
       id="path4991"
       style="fill:#b0b0ae;fill-opacity:1;fill-rule:nonzero;stroke:none"
       d="m 412.74889,464.86819 7.4575,0 0,-1.22462 -7.4575,0 0,1.22462 z" />
    <path
       inkscape:connector-curvature="0"
       id="path4993"
       style="fill:#b0b0ae;fill-opacity:1;fill-rule:nonzero;stroke:none"
       d="m 412.74889,462.30319 7.4575,0 0,-1.23243 -7.4575,0 0,1.23243 z" />
    <path
       inkscape:connector-curvature="0"
       id="path4995"
       style="fill:#e9e8e7;fill-opacity:1;fill-rule:nonzero;stroke:none"
       d="m 420.20639,458.86444 c 0,-0.56875 -0.461,-1.03 -1.0289,-1.03 l -5.3998,0 c -0.5684,0 -1.0288,0.46125 -1.0288,1.03 l 0,0.86625 7.4575,0 0,-0.86625" />
    <path
       inkscape:connector-curvature="0"
       id="path4997"
       style="fill:#e9e8e7;fill-opacity:1;fill-rule:nonzero;stroke:none"
       d="m 412.75029,473.88944 7.458,0 0,-7.68018 -7.458,0 0,7.68018 z" />
    <path
       inkscape:connector-curvature="0"
       id="path4999"
       style="fill:#f1495e;fill-opacity:1;fill-rule:nonzero;stroke:none"
       d="m 412.74889,461.07069 7.4575,0 0,-1.33985 -7.4575,0 0,1.33985 z" />
    <path
       inkscape:connector-curvature="0"
       id="path5001"
       style="fill:#f1495e;fill-opacity:1;fill-rule:nonzero;stroke:none"
       d="m 412.74889,463.64319 7.4575,0 0,-1.34034 -7.4575,0 0,1.34034 z" />
    <path
       inkscape:connector-curvature="0"
       id="path5003"
       style="fill:#f1495e;fill-opacity:1;fill-rule:nonzero;stroke:none"
       d="m 412.74889,466.20944 7.4575,0 0,-1.34132 -7.4575,0 0,1.34132 z" />
    <path
       inkscape:connector-curvature="0"
       id="path5005"
       style="fill:#f1495e;fill-opacity:1;fill-rule:nonzero;stroke:none"
       d="m 421.69669,473.88944 -22.8507,0 c -1.1127,0 -2.1123,0.525 -2.75,1.35 l 28.3369,0 c -0.6371,-0.825 -1.6245,-1.35 -2.7362,-1.35" />
  </g>
</svg>
