<?xml version="1.0" encoding="UTF-8" standalone="no"?>
<!-- Created with Inkscape (http://www.inkscape.org/) -->

<svg
   xmlns:dc="http://purl.org/dc/elements/1.1/"
   xmlns:cc="http://creativecommons.org/ns#"
   xmlns:rdf="http://www.w3.org/1999/02/22-rdf-syntax-ns#"
   xmlns:svg="http://www.w3.org/2000/svg"
   xmlns="http://www.w3.org/2000/svg"
   xmlns:sodipodi="http://sodipodi.sourceforge.net/DTD/sodipodi-0.dtd"
   xmlns:inkscape="http://www.inkscape.org/namespaces/inkscape"
   width="25.504416mm"
   height="23.693264mm"
   viewBox="0 0 90.369976 83.95251"
   id="svg6294"
   version="1.1"
   inkscape:version="0.91 r13725"
   sodipodi:docname="install.svg">
  <defs
     id="defs6296" />
  <sodipodi:namedview
     id="base"
     pagecolor="#ffffff"
     bordercolor="#666666"
     borderopacity="1.0"
     inkscape:pageopacity="0.0"
     inkscape:pageshadow="2"
     inkscape:zoom="0.35"
     inkscape:cx="45.184987"
     inkscape:cy="41.976257"
     inkscape:document-units="px"
     inkscape:current-layer="layer1"
     showgrid="false"
     fit-margin-top="0"
     fit-margin-left="0"
     fit-margin-right="0"
     fit-margin-bottom="0"
     inkscape:window-width="2560"
     inkscape:window-height="1371"
     inkscape:window-x="0"
     inkscape:window-y="0"
     inkscape:window-maximized="1" />
  <metadata
     id="metadata6299">
    <rdf:RDF>
      <cc:Work
         rdf:about="">
        <dc:format>image/svg+xml</dc:format>
        <dc:type
           rdf:resource="http://purl.org/dc/dcmitype/StillImage" />
        <dc:title></dc:title>
      </cc:Work>
    </rdf:RDF>
  </metadata>
  <g
     inkscape:label="Layer 1"
     inkscape:groupmode="layer"
     id="layer1"
     transform="translate(403.04213,-490.38595)">
    <path
       inkscape:connector-curvature="0"
       id="path486"
       style="fill:#72cdb7;fill-opacity:1;fill-rule:nonzero;stroke:none"
       d="m -373.52838,548.0647 -29.51375,-6.83 3.7625,-18.67375 29.51375,6.83 -3.7625,18.67375" />
    <path
       inkscape:connector-curvature="0"
       id="path488"
       style="fill:#72cdb7;fill-opacity:1;fill-rule:nonzero;stroke:none"
       d="m -368.97463,525.46345 -0.235,1.17125 -29.51375,-6.83 0.23625,-1.17125 29.5125,6.83" />
    <path
       inkscape:connector-curvature="0"
       id="path490"
       style="fill:#c0e8e9;fill-opacity:1;fill-rule:nonzero;stroke:none"
       d="m -399.33338,522.54845 0.55625,-2.75625 0.0537,0.0125 -0.55625,2.75625 -0.0537,-0.0125" />
    <path
       inkscape:connector-curvature="0"
       id="path492"
       style="fill:#c0e8e9;fill-opacity:1;fill-rule:nonzero;stroke:none"
       d="m -341.81713,535.85845 -27.94875,-6.4675 0.55625,-2.75625 27.9475,6.4675 -0.555,2.75625" />
    <path
       inkscape:connector-curvature="0"
       id="path494"
       style="fill:#d7f2f5;fill-opacity:1;fill-rule:nonzero;stroke:none"
       d="m -369.76588,529.39095 -29.51375,-6.83 0.55625,-2.75625 29.51375,6.83 -0.55625,2.75625" />
    <path
       inkscape:connector-curvature="0"
       id="path496"
       style="fill:#c0e8e9;fill-opacity:1;fill-rule:nonzero;stroke:none"
       d="m -398.54213,518.6197 0.55625,-2.75625 0.0538,0.0138 -0.555,2.75625 -0.055,-0.0138" />
    <path
       inkscape:connector-curvature="0"
       id="path498"
       style="fill:#d7f2f5;fill-opacity:1;fill-rule:nonzero;stroke:none"
       d="m -368.97463,525.46345 -29.5125,-6.83 0.555,-2.75625 29.51375,6.83 -0.55625,2.75625" />
    <path
       inkscape:connector-curvature="0"
       id="path500"
       style="fill:#c0e8e9;fill-opacity:1;fill-rule:nonzero;stroke:none"
       d="m -340.47088,529.1747 -0.555,2.75625 -27.94875,-6.4675 0.55625,-2.75625 27.9475,6.4675" />
    <path
       inkscape:connector-curvature="0"
       id="path502"
       style="fill:#59a797;fill-opacity:1;fill-rule:nonzero;stroke:none"
       d="m -335.46588,503.63345 -0.11125,0.1325 -0.0138,-0.002 0.125,-0.13" />
    <path
       inkscape:connector-curvature="0"
       id="path504"
       style="fill:#4c9588;fill-opacity:1;fill-rule:nonzero;stroke:none"
       d="m -392.65963,490.5547 -0.05,-0.16875 0.0638,0.1725 -0.0138,-0.004" />
    <path
       inkscape:connector-curvature="0"
       id="path506"
       style="fill:#72cdb7;fill-opacity:1;fill-rule:nonzero;stroke:none"
       d="m -392.65963,490.5547 0.0138,0.004 -0.0638,-0.1725 26.01625,6.02125 -1.3325,6.61375 3.415,0.79125 -0.545,2.70125 -0.34375,1.70625 -2.91875,14.4875 -29.51375,-6.83 5.11,-25.35875 0.1625,0.0363" />
    <path
       inkscape:connector-curvature="0"
       id="path508"
       style="fill:#62bba8;fill-opacity:1;fill-rule:nonzero;stroke:none"
       d="m -335.57713,503.76595 -0.0138,-0.002 0.125,-0.13 -24.4475,-5.6575 -1.33375,6.61375 -3.36375,-0.7775 -0.545,2.70125 -0.34375,1.70625 -2.91875,14.4875 27.9475,6.4675 -0.555,2.75625 -27.94875,-6.4675 -0.235,1.17125 27.9475,6.4675 -0.555,2.75625 -27.94875,-6.4675 -3.7625,18.67375 28.0025,6.48125 10.22,-50.7175 -0.27125,-0.0625" />
    <path
       inkscape:connector-curvature="0"
       id="path510"
       style="fill:#d7f2f5;fill-opacity:1;fill-rule:nonzero;stroke:none"
       d="m -363.31713,497.3922 -1.67875,8.33125 -3.415,-0.79125 1.7175,-8.525 3.415,0.79 -0.0387,0.195" />
    <path
       inkscape:connector-curvature="0"
       id="path512"
       style="fill:#c0e8e9;fill-opacity:1;fill-rule:nonzero;stroke:none"
       d="m -364.99588,505.72345 1.67875,-8.33125 0.0387,-0.195 3.365,0.77875 -1.71875,8.52625 -3.36375,-0.77875" />
    <path
       inkscape:connector-curvature="0"
       id="path514"
       style="fill:#f3647a;fill-opacity:1;fill-rule:nonzero;stroke:none"
       d="m -371.08713,516.6847 c -0.0937,-0.13625 -0.225,-0.27 -0.38625,-0.39875 l -0.2625,-0.185 c -0.19,-0.12125 -0.4075,-0.23375 -0.64625,-0.3325 -0.11875,-0.05 -0.2425,-0.0963 -0.3725,-0.13875 l 0.77375,-3.83625 c 0.7825,-0.0175 1.535,-0.47875 2.07,-1.225 0.3225,-0.44625 0.565,-0.9975 0.69,-1.615 l 0.0163,-0.1075 -5.16125,-1.195 -0.0263,0.105 c -0.18875,0.93875 -0.06,1.84875 0.28625,2.57 0.2625,0.54625 0.6475,0.98875 1.135,1.2375 l -0.77375,3.8375 c -0.13375,-0.0175 -0.265,-0.0312 -0.3925,-0.0387 -0.255,-0.0163 -0.49625,-0.01 -0.71625,0.0175 l -0.31125,0.0538 c -0.3925,0.09 -0.6825,0.25625 -0.815,0.485 l 0,0 5.06125,1.1725 c -0.015,-0.135 -0.0737,-0.27125 -0.16875,-0.40625" />
    <path
       inkscape:connector-curvature="0"
       id="path516"
       style="fill:#f3647a;fill-opacity:1;fill-rule:nonzero;stroke:none"
       d="m -375.96963,509.3797 c -0.1875,-0.4 -0.44625,-0.755 -0.75125,-1.05875 -0.20625,-0.205 -0.42875,-0.39 -0.6775,-0.53875 -0.1575,-0.095 -0.32375,-0.175 -0.49625,-0.2425 -0.0525,-0.20125 -0.1975,-0.36875 -0.40125,-0.415 l -0.29125,0.0225 -0.23375,0.17625 c -1.5425,-0.13875 -2.96875,0.77375 -3.47,2.23875 l 0.12125,-0.035 c 0.0962,-0.0238 0.22,-0.0425 0.365,-0.04 l 0.23,0.0238 c 0.38125,0.075 0.63,0.29 0.73125,0.3875 0.14625,-0.0363 0.36,-0.0688 0.61375,-0.0363 l 0.16125,0.0275 c 0.115,0.0238 0.22875,0.055 0.335,0.0913 0.13625,0.045 0.26125,0.0975 0.36125,0.1475 l 0.1875,0.11 c -0.0337,0.19375 -0.0712,0.3975 -0.10875,0.6075 -0.0575,0.315 -0.12,0.64125 -0.1825,0.965 -0.0425,0.215 -0.0838,0.42875 -0.125,0.63625 l -0.0625,0.305 c -0.16125,0.7975 -0.3025,1.44625 -0.35625,1.63 l -0.075,0.2425 -0.0937,0.23125 c -0.0713,0.14875 -0.165,0.28875 -0.30375,0.415 l -0.11625,0.0863 -0.27875,0.1075 c -0.15,0.03 -0.31,0.025 -0.4575,-0.0237 l -0.1425,-0.0625 -0.12875,-0.0937 c -0.15625,-0.14 -0.235,-0.33125 -0.26,-0.51625 -0.025,-0.185 0,-0.37 0.025,-0.55 l -0.27375,-0.0612 -0.265,0.0488 c -0.16375,0.0725 -0.245,0.1925 -0.27125,0.3325 -0.0437,0.2325 0.0625,0.5225 0.18875,0.73 0.14,0.23 0.3375,0.44875 0.58125,0.6075 l 0.1625,0.085 0.26,0.0925 0.2125,0.0338 c 0.1425,0.015 0.28875,0.01 0.43125,-0.01 0.14125,-0.02 0.28,-0.0562 0.40875,-0.10375 0.1925,-0.0712 0.36375,-0.1725 0.4925,-0.29375 l 0.17625,-0.19625 c 0.36375,-0.49 0.43625,-1.17375 0.5525,-1.74875 0.1325,-0.655 0.26375,-1.31125 0.39625,-1.96625 0.0888,-0.445 0.17875,-0.89 0.26875,-1.335 0.0925,-0.0163 0.21125,-0.0325 0.3525,-0.0337 0.14,-0.001 0.30125,0.01 0.47625,0.0475 l 0.2675,0.0763 c 0.16625,0.0587 0.30625,0.13 0.415,0.1975 l 0.14375,0.095 c 0.0975,-0.0412 0.38,-0.14375 0.72625,-0.0487 0.2925,0.0813 0.47625,0.26125 0.5525,0.34625 0.006,-0.40375 -0.0475,-0.7925 -0.15375,-1.16125 -0.0575,-0.19875 -0.1325,-0.39 -0.22,-0.5725" />
    <path
       inkscape:connector-curvature="0"
       id="path518"
       style="fill:#f3647a;fill-opacity:1;fill-rule:nonzero;stroke:none"
       d="m -376.55963,506.38095 c 0.10625,-0.0125 0.20375,-0.085 0.2325,-0.23 l 0.01,-0.0513 c 0.0775,-0.3875 -0.48375,-0.5175 -0.56125,-0.13 l -0.0113,0.05 0.045,0.23875 0.285,0.1225" />
    <path
       inkscape:connector-curvature="0"
       id="path520"
       style="fill:#f3647a;fill-opacity:1;fill-rule:nonzero;stroke:none"
       d="m -390.01713,506.46595 0.13875,-0.0688 0.82375,-0.72 -1.30875,6.49125 c -0.0325,0.1575 0.0875,0.32 0.2675,0.36125 0.17875,0.0425 0.34875,-0.0538 0.38125,-0.21125 l 1.32625,-6.5825 0.62375,1.165 0.19125,0.16125 0.125,0.0238 0.12625,-0.0213 c 0.1225,-0.045 0.19,-0.15375 0.18125,-0.27 l -0.0337,-0.115 -1.06875,-1.99625 -0.10625,-0.1175 -0.14,-0.0612 -0.2875,0.0687 -1.58,1.385 -0.09,0.20375 0.1025,0.21375 0.1275,0.0663 0.0412,0.0225 0.15875,0.001" />
    <path
       inkscape:connector-curvature="0"
       id="path522"
       style="fill:#f3647a;fill-opacity:1;fill-rule:nonzero;stroke:none"
       d="m -385.00338,514.09345 -0.14875,-0.0888 -5.85375,-1.35375 -0.25,0.0475 -0.14375,0.225 c -0.04,0.19125 0.075,0.38125 0.25375,0.4225 l 5.8525,1.355 c 0.135,0.03 0.2675,-0.03 0.3425,-0.145 l 0.0525,-0.1275 0.002,-0.14125 -0.1075,-0.19375" />
    <path
       inkscape:connector-curvature="0"
       id="path524"
       style="fill:#f3647a;fill-opacity:1;fill-rule:nonzero;stroke:none"
       d="m -377.50838,507.3897 0.20875,-0.0275 0.13125,-0.19875 0.01,-0.0513 c 0.0388,-0.1925 -0.0812,-0.32125 -0.2225,-0.355 l -0.2075,0.0288 -0.13125,0.1975 -0.01,0.05 c -0.04,0.19375 0.0813,0.32375 0.22125,0.35625" />
    <path
       inkscape:connector-curvature="0"
       id="path526"
       style="fill:#f3647a;fill-opacity:1;fill-rule:nonzero;stroke:none"
       d="m -379.53338,506.98345 0.0937,0.0213 c 0.18,0.0425 0.30125,-0.0875 0.3325,-0.2375 l -0.0263,-0.22375 -0.185,-0.14 -0.0937,-0.0225 c -0.135,-0.0312 -0.2375,0.035 -0.2925,0.1325 -0.0925,0.16375 -0.055,0.41875 0.17125,0.47" />
    <path
       inkscape:connector-curvature="0"
       id="path528"
       style="fill:#f3647a;fill-opacity:1;fill-rule:nonzero;stroke:none"
       d="m -378.27463,506.3297 0,0 c 0.135,0.0312 0.2375,-0.0337 0.2925,-0.13125 l 0.0137,-0.33 -0.185,-0.14125 c -0.135,-0.03 -0.2375,0.0337 -0.2925,0.13125 l -0.0138,0.33 0.185,0.14125" />
    <path
       inkscape:connector-curvature="0"
       id="path530"
       style="fill:#f3647a;fill-opacity:1;fill-rule:nonzero;stroke:none"
       d="m -375.66963,507.51095 0.2225,-0.0475 0.11,-0.1925 0.005,-0.1125 c -0.0125,-0.11375 -0.08,-0.21875 -0.21625,-0.25125 -0.13625,-0.03 -0.2375,0.035 -0.2925,0.1325 l -0.04,0.1075 0.0263,0.22125 0.185,0.1425" />
    <path
       inkscape:connector-curvature="0"
       id="path532"
       style="fill:#f3647a;fill-opacity:1;fill-rule:nonzero;stroke:none"
       d="m -384.24338,505.60845 -0.10625,-0.11625 -0.14,-0.0613 -0.2875,0.0688 -1.58,1.38375 -0.0625,0.3175 0.0762,0.10125 0.1675,0.0875 0.2975,-0.0663 0.82375,-0.72125 -1.30875,6.4925 c -0.0325,0.15875 0.0875,0.31875 0.26625,0.36125 0.18,0.0412 0.35125,-0.0525 0.3825,-0.21125 l 1.32625,-6.58375 0.62375,1.16625 c 0.0825,0.15125 0.27875,0.22375 0.4425,0.165 l 0.10375,-0.065 c 0.0825,-0.0825 0.105,-0.2075 0.0438,-0.32125 l -1.06875,-1.9975" />
    <path
       inkscape:connector-curvature="0"
       id="path534"
       style="fill:#e0e8f0;fill-opacity:1;fill-rule:nonzero;stroke:none"
       d="m -392.02338,529.0072 0.47,0.10875 -1.47125,7.29875 -0.47,-0.10875 1.47125,-7.29875 z m 0.7925,0.18375 0.47125,0.10875 -1.47125,7.29875 -0.47,-0.10875 1.47,-7.29875 z m 0.6525,0.15125 0.47125,0.10875 -1.47125,7.29875 -0.47,-0.10875 1.47,-7.29875 z m 1.2175,0.28125 0.47,0.10875 -1.47,7.29875 -0.47125,-0.10875 1.47125,-7.29875 z m 0.51125,0.11875 0.47,0.10875 -1.47,7.29875 -0.47125,-0.10875 1.47125,-7.29875 z m 0.51125,0.11875 0.47,0.10875 -1.47,7.2975 -0.47,-0.1075 1.47,-7.29875 z m 1.07625,0.24875 0.47,0.10875 -1.47125,7.29875 -0.47,-0.10875 1.47125,-7.29875 z m 0.51125,0.11875 0.47,0.1075 -1.47,7.29875 -0.47,-0.10875 1.47,-7.2975 z m 1.07625,0.24875 0.47,0.10875 -1.47125,7.29875 -0.47,-0.10875 1.47125,-7.29875 z m 0.7925,0.1825 0.935,0.21625 -1.47125,7.3 -0.93375,-0.2175 1.47,-7.29875 z m 1.5875,0.3675 0.47,0.10875 -1.47,7.29875 -0.47125,-0.10875 1.47125,-7.29875 z m 0.79375,0.18375 0.47,0.10875 -1.47125,7.29875 -0.47,-0.1075 1.47125,-7.3 z m 0.935,0.21625 0.84,0.195 -1.47125,7.29875 -0.84,-0.195 1.47125,-7.29875 z m 1.7275,0.4 0.47125,0.10875 -1.47125,7.3 -0.47125,-0.10875 1.47125,-7.3 z m 0.51125,0.11875 0.47125,0.10875 -1.47125,7.29875 -0.47,-0.11 1.47,-7.2975 z m -12.91875,-3.66875 -1.77375,8.805 13.8725,3.21 1.77375,-8.805 -13.8725,-3.21" />
    <path
       inkscape:connector-curvature="0"
       id="path536"
       style="fill:#4c4852;fill-opacity:1;fill-rule:nonzero;stroke:none"
       d="m -380.32713,539.35345 -0.47,-0.11 1.47,-7.2975 0.47125,0.10875 -1.47125,7.29875" />
    <path
       inkscape:connector-curvature="0"
       id="path538"
       style="fill:#4c4852;fill-opacity:1;fill-rule:nonzero;stroke:none"
       d="m -380.83838,539.23595 -0.47125,-0.10875 1.47125,-7.3 0.47125,0.10875 -1.47125,7.3" />
    <path
       inkscape:connector-curvature="0"
       id="path540"
       style="fill:#4c4852;fill-opacity:1;fill-rule:nonzero;stroke:none"
       d="m -382.19713,538.92095 -0.84,-0.195 1.47125,-7.29875 0.84,0.195 -1.47125,7.29875" />
    <path
       inkscape:connector-curvature="0"
       id="path542"
       style="fill:#4c4852;fill-opacity:1;fill-rule:nonzero;stroke:none"
       d="m -383.50213,538.61845 -0.47,-0.1075 1.47125,-7.3 0.47,0.10875 -1.47125,7.29875" />
    <path
       inkscape:connector-curvature="0"
       id="path544"
       style="fill:#4c4852;fill-opacity:1;fill-rule:nonzero;stroke:none"
       d="m -384.29463,538.4347 -0.47125,-0.10875 1.47125,-7.29875 0.47,0.10875 -1.47,7.29875" />
    <path
       inkscape:connector-curvature="0"
       id="path546"
       style="fill:#4c4852;fill-opacity:1;fill-rule:nonzero;stroke:none"
       d="m -385.41838,538.17595 -0.93375,-0.2175 1.47,-7.29875 0.935,0.21625 -1.47125,7.3" />
    <path
       inkscape:connector-curvature="0"
       id="path548"
       style="fill:#4c4852;fill-opacity:1;fill-rule:nonzero;stroke:none"
       d="m -386.67588,537.8847 -0.47,-0.10875 1.47125,-7.29875 0.47,0.10875 -1.47125,7.29875" />
    <path
       inkscape:connector-curvature="0"
       id="path550"
       style="fill:#4c4852;fill-opacity:1;fill-rule:nonzero;stroke:none"
       d="m -387.75088,537.6347 -0.47,-0.10875 1.47,-7.2975 0.47,0.1075 -1.47,7.29875" />
    <path
       inkscape:connector-curvature="0"
       id="path552"
       style="fill:#4c4852;fill-opacity:1;fill-rule:nonzero;stroke:none"
       d="m -388.26338,537.5172 -0.47,-0.10875 1.47125,-7.29875 0.47,0.10875 -1.47125,7.29875" />
    <path
       inkscape:connector-curvature="0"
       id="path554"
       style="fill:#4c4852;fill-opacity:1;fill-rule:nonzero;stroke:none"
       d="m -389.33838,537.2672 -0.47,-0.1075 1.47,-7.29875 0.47,0.10875 -1.47,7.2975" />
    <path
       inkscape:connector-curvature="0"
       id="path556"
       style="fill:#4c4852;fill-opacity:1;fill-rule:nonzero;stroke:none"
       d="m -389.84963,537.1497 -0.47125,-0.10875 1.47125,-7.29875 0.47,0.10875 -1.47,7.29875" />
    <path
       inkscape:connector-curvature="0"
       id="path558"
       style="fill:#4c4852;fill-opacity:1;fill-rule:nonzero;stroke:none"
       d="m -390.36088,537.03095 -0.47125,-0.10875 1.47125,-7.29875 0.47,0.10875 -1.47,7.29875" />
    <path
       inkscape:connector-curvature="0"
       id="path560"
       style="fill:#4c4852;fill-opacity:1;fill-rule:nonzero;stroke:none"
       d="m -391.57838,536.7497 -0.47,-0.10875 1.47,-7.29875 0.47125,0.10875 -1.47125,7.29875" />
    <path
       inkscape:connector-curvature="0"
       id="path562"
       style="fill:#4c4852;fill-opacity:1;fill-rule:nonzero;stroke:none"
       d="m -392.23088,536.59845 -0.47,-0.10875 1.47,-7.29875 0.47125,0.10875 -1.47125,7.29875" />
    <path
       inkscape:connector-curvature="0"
       id="path564"
       style="fill:#4c4852;fill-opacity:1;fill-rule:nonzero;stroke:none"
       d="m -393.02463,536.4147 -0.47,-0.10875 1.47125,-7.29875 0.47,0.10875 -1.47125,7.29875" />
    <path
       inkscape:connector-curvature="0"
       id="path566"
       style="fill:#f1495e;fill-opacity:1;fill-rule:nonzero;stroke:none"
       d="m -330.05213,524.6697 c 1.1075,1.955 1.46875,4.2425 1.015,6.4425 l -4.7125,22.87625 c -1.60375,-0.0987 -3.13875,-0.25125 -4.34875,-0.42375 1.62375,-10.33 3.78625,-21.0925 5.8975,-31.845 l 2.14875,2.95 z m -4.75125,-16.395 -0.015,0.0738 c -2.57,13.86625 -5.55125,28.03 -8.54,41.9375 l -0.0288,0 c -0.48125,2.0825 -0.785,3.52 -0.85,4.08 -0.20125,0.93375 -0.40375,1.87125 -0.60375,2.8025 -3.46,-0.74625 -7.7075,-1.6625 -12.29125,-2.64125 -11.14125,-2.38125 -24.26,-5.1425 -32.8275,-6.78625 l -1.075,4.98125 c 12.92,2.475 34.95,7.22875 47.6075,9.9625 1.375,0.2975 2.73,-0.5775 3.02625,-1.95125 l 0.0712,-0.32875 c 0,0 0.47625,0.0487 1.2125,0.125 0.1075,-0.8025 0.22125,-1.60875 0.33625,-2.41875 0.55125,0.075 1.095,0.135 1.6075,0.18875 2.57,0.27375 5.0925,0.35875 5.19875,0.3625 l 0.075,10e-4 c 1.08375,0 2.02375,-0.7625 2.24375,-1.83 l 5.1075,-24.79745 c 0.6775,-3.2875 0.13875,-6.70625 -1.51625,-9.62625 0,0 -3.11625,-5.16625 -4.79875,-7.565 0.35375,-1.8475 0.705,-3.69125 1.045,-5.53 l 0.0625,-0.23625 -3.92625,-3.92625 c -0.49875,0.95625 -0.88,2.0025 -1.12125,3.1225" />
    <path
       inkscape:connector-curvature="0"
       id="path568"
       style="fill:#f3647a;fill-opacity:1;fill-rule:nonzero;stroke:none"
       d="m -314.43213,503.47595 c -1.89375,-2.4625 -5.0775,-4.28 -7.7725,-4.4425 -4.89,-0.52375 -9.3025,1.94375 -11.4775,6.11875 l 3.92625,3.92625 c 0.72375,-2.83875 3.14,-5.42 7.055,-4.9775 l 0.165,0.0138 c 1.08875,0.05 2.98125,1.055 4.065,2.465 0.3925,0.51125 0.82875,1.27 0.675,1.98375 -0.29625,1.37375 0.57625,2.72875 1.95125,3.02625 1.375,0.2975 2.73,-0.57625 3.0275,-1.95125 0.44125,-2.045 -0.1325,-4.23375 -1.615,-6.1625" />
    <path
       inkscape:connector-curvature="0"
       id="path570"
       style="fill:#7a7d83;fill-opacity:1;fill-rule:nonzero;stroke:none"
       d="m -343.90713,557.35095 c 1.32375,-1.33625 3.19,-2.17125 5.23375,-2.16875 4.085,0.005 7.40125,3.31625 7.39625,7.415 -0.002,2.0425 -0.8275,3.8925 -2.18125,5.22875 -1.33875,1.335 -3.19125,2.17 -5.23375,2.1675 -4.085,-0.005 -7.40125,-3.32875 -7.39625,-7.415 0.002,-2.04125 0.8275,-3.8775 2.18125,-5.2275 z m 15.5675,-0.3575 c -0.54125,-1 -1.225,-1.91375 -2.02125,-2.71125 -2.125,-2.13 -5.06125,-3.45 -8.3075,-3.45375 -3.24625,-0.004 -6.18625,1.30875 -8.31625,3.4325 -0.79875,0.7975 -1.48375,1.7075 -2.0275,2.70625 -0.3625,0.66625 -0.66375,1.37125 -0.89375,2.1075 -0.34375,1.10375 -0.53,2.2775 -0.5325,3.495 -0.007,6.49125 5.24875,11.76125 11.74125,11.76875 6.4925,0.009 11.76125,-5.24875 11.76875,-11.74 0.002,-1.21875 -0.18125,-2.3925 -0.52375,-3.49625 -0.2275,-0.7375 -0.52625,-1.4425 -0.8875,-2.10875" />
    <path
       inkscape:connector-curvature="0"
       id="path572"
       style="fill:#5fb0c2;fill-opacity:1;fill-rule:nonzero;stroke:none"
       d="m -338.69213,569.99345 c 2.0425,0.002 3.895,-0.8325 5.23375,-2.1675 l -10.44875,-10.475 c -1.35375,1.35 -2.17875,3.18625 -2.18125,5.2275 -0.005,4.08625 3.31125,7.41 7.39625,7.415" />
    <path
       inkscape:connector-curvature="0"
       id="path574"
       style="fill:#4c94a1;fill-opacity:1;fill-rule:nonzero;stroke:none"
       d="m -331.27713,562.5972 c 0.005,-4.09875 -3.31125,-7.41 -7.39625,-7.415 -2.04375,-0.002 -3.91,0.8325 -5.23375,2.16875 l 10.44875,10.475 c 1.35375,-1.33625 2.17875,-3.18625 2.18125,-5.22875" />
    <path
       d="m -373.52838,548.0647 -29.51375,-6.83 3.7625,-18.67375 29.51375,6.83 -3.7625,18.67375"
       style="fill:#72cdb7;fill-opacity:1;fill-rule:nonzero;stroke:none"
       id="path6936"
       inkscape:connector-curvature="0" />
    <path
       d="m -368.97463,525.46345 -0.235,1.17125 -29.51375,-6.83 0.23625,-1.17125 29.5125,6.83"
       style="fill:#72cdb7;fill-opacity:1;fill-rule:nonzero;stroke:none"
       id="path6938"
       inkscape:connector-curvature="0" />
    <path
       d="m -399.33338,522.54845 0.55625,-2.75625 0.0537,0.0125 -0.55625,2.75625 -0.0537,-0.0125"
       style="fill:#c0e8e9;fill-opacity:1;fill-rule:nonzero;stroke:none"
       id="path6940"
       inkscape:connector-curvature="0" />
    <path
       d="m -341.81713,535.85845 -27.94875,-6.4675 0.55625,-2.75625 27.9475,6.4675 -0.555,2.75625"
       style="fill:#c0e8e9;fill-opacity:1;fill-rule:nonzero;stroke:none"
       id="path6942"
       inkscape:connector-curvature="0" />
    <path
       d="m -369.76588,529.39095 -29.51375,-6.83 0.55625,-2.75625 29.51375,6.83 -0.55625,2.75625"
       style="fill:#d7f2f5;fill-opacity:1;fill-rule:nonzero;stroke:none"
       id="path6944"
       inkscape:connector-curvature="0" />
    <path
       d="m -398.54213,518.6197 0.55625,-2.75625 0.0538,0.0138 -0.555,2.75625 -0.055,-0.0138"
       style="fill:#c0e8e9;fill-opacity:1;fill-rule:nonzero;stroke:none"
       id="path6946"
       inkscape:connector-curvature="0" />
    <path
       d="m -368.97463,525.46345 -29.5125,-6.83 0.555,-2.75625 29.51375,6.83 -0.55625,2.75625"
       style="fill:#d7f2f5;fill-opacity:1;fill-rule:nonzero;stroke:none"
       id="path6948"
       inkscape:connector-curvature="0" />
    <path
       d="m -340.47088,529.1747 -0.555,2.75625 -27.94875,-6.4675 0.55625,-2.75625 27.9475,6.4675"
       style="fill:#c0e8e9;fill-opacity:1;fill-rule:nonzero;stroke:none"
       id="path6950"
       inkscape:connector-curvature="0" />
    <path
       d="m -335.46588,503.63345 -0.11125,0.1325 -0.0138,-0.002 0.125,-0.13"
       style="fill:#59a797;fill-opacity:1;fill-rule:nonzero;stroke:none"
       id="path6952"
       inkscape:connector-curvature="0" />
    <path
       d="m -392.65963,490.5547 -0.05,-0.16875 0.0638,0.1725 -0.0138,-0.004"
       style="fill:#4c9588;fill-opacity:1;fill-rule:nonzero;stroke:none"
       id="path6954"
       inkscape:connector-curvature="0" />
    <path
       d="m -392.65963,490.5547 0.0138,0.004 -0.0638,-0.1725 26.01625,6.02125 -1.3325,6.61375 3.415,0.79125 -0.545,2.70125 -0.34375,1.70625 -2.91875,14.4875 -29.51375,-6.83 5.11,-25.35875 0.1625,0.0363"
       style="fill:#72cdb7;fill-opacity:1;fill-rule:nonzero;stroke:none"
       id="path6956"
       inkscape:connector-curvature="0" />
    <path
       d="m -335.57713,503.76595 -0.0138,-0.002 0.125,-0.13 -24.4475,-5.6575 -1.33375,6.61375 -3.36375,-0.7775 -0.545,2.70125 -0.34375,1.70625 -2.91875,14.4875 27.9475,6.4675 -0.555,2.75625 -27.94875,-6.4675 -0.235,1.17125 27.9475,6.4675 -0.555,2.75625 -27.94875,-6.4675 -3.7625,18.67375 28.0025,6.48125 10.22,-50.7175 -0.27125,-0.0625"
       style="fill:#62bba8;fill-opacity:1;fill-rule:nonzero;stroke:none"
       id="path6958"
       inkscape:connector-curvature="0" />
    <path
       d="m -363.31713,497.3922 -1.67875,8.33125 -3.415,-0.79125 1.7175,-8.525 3.415,0.79 -0.0387,0.195"
       style="fill:#d7f2f5;fill-opacity:1;fill-rule:nonzero;stroke:none"
       id="path6960"
       inkscape:connector-curvature="0" />
    <path
       d="m -364.99588,505.72345 1.67875,-8.33125 0.0387,-0.195 3.365,0.77875 -1.71875,8.52625 -3.36375,-0.77875"
       style="fill:#c0e8e9;fill-opacity:1;fill-rule:nonzero;stroke:none"
       id="path6962"
       inkscape:connector-curvature="0" />
    <path
       d="m -371.08713,516.6847 c -0.0937,-0.13625 -0.225,-0.27 -0.38625,-0.39875 l -0.2625,-0.185 c -0.19,-0.12125 -0.4075,-0.23375 -0.64625,-0.3325 -0.11875,-0.05 -0.2425,-0.0963 -0.3725,-0.13875 l 0.77375,-3.83625 c 0.7825,-0.0175 1.535,-0.47875 2.07,-1.225 0.3225,-0.44625 0.565,-0.9975 0.69,-1.615 l 0.0163,-0.1075 -5.16125,-1.195 -0.0263,0.105 c -0.18875,0.93875 -0.06,1.84875 0.28625,2.57 0.2625,0.54625 0.6475,0.98875 1.135,1.2375 l -0.77375,3.8375 c -0.13375,-0.0175 -0.265,-0.0312 -0.3925,-0.0387 -0.255,-0.0163 -0.49625,-0.01 -0.71625,0.0175 l -0.31125,0.0538 c -0.3925,0.09 -0.6825,0.25625 -0.815,0.485 l 0,0 5.06125,1.1725 c -0.015,-0.135 -0.0737,-0.27125 -0.16875,-0.40625"
       style="fill:#f3647a;fill-opacity:1;fill-rule:nonzero;stroke:none"
       id="path6964"
       inkscape:connector-curvature="0" />
    <path
       d="m -375.96963,509.3797 c -0.1875,-0.4 -0.44625,-0.755 -0.75125,-1.05875 -0.20625,-0.205 -0.42875,-0.39 -0.6775,-0.53875 -0.1575,-0.095 -0.32375,-0.175 -0.49625,-0.2425 -0.0525,-0.20125 -0.1975,-0.36875 -0.40125,-0.415 l -0.29125,0.0225 -0.23375,0.17625 c -1.5425,-0.13875 -2.96875,0.77375 -3.47,2.23875 l 0.12125,-0.035 c 0.0962,-0.0238 0.22,-0.0425 0.365,-0.04 l 0.23,0.0238 c 0.38125,0.075 0.63,0.29 0.73125,0.3875 0.14625,-0.0363 0.36,-0.0688 0.61375,-0.0363 l 0.16125,0.0275 c 0.115,0.0238 0.22875,0.055 0.335,0.0913 0.13625,0.045 0.26125,0.0975 0.36125,0.1475 l 0.1875,0.11 c -0.0337,0.19375 -0.0712,0.3975 -0.10875,0.6075 -0.0575,0.315 -0.12,0.64125 -0.1825,0.965 -0.0425,0.215 -0.0838,0.42875 -0.125,0.63625 l -0.0625,0.305 c -0.16125,0.7975 -0.3025,1.44625 -0.35625,1.63 l -0.075,0.2425 -0.0937,0.23125 c -0.0713,0.14875 -0.165,0.28875 -0.30375,0.415 l -0.11625,0.0863 -0.27875,0.1075 c -0.15,0.03 -0.31,0.025 -0.4575,-0.0237 l -0.1425,-0.0625 -0.12875,-0.0937 c -0.15625,-0.14 -0.235,-0.33125 -0.26,-0.51625 -0.025,-0.185 0,-0.37 0.025,-0.55 l -0.27375,-0.0612 -0.265,0.0488 c -0.16375,0.0725 -0.245,0.1925 -0.27125,0.3325 -0.0437,0.2325 0.0625,0.5225 0.18875,0.73 0.14,0.23 0.3375,0.44875 0.58125,0.6075 l 0.1625,0.085 0.26,0.0925 0.2125,0.0338 c 0.1425,0.015 0.28875,0.01 0.43125,-0.01 0.14125,-0.02 0.28,-0.0562 0.40875,-0.10375 0.1925,-0.0712 0.36375,-0.1725 0.4925,-0.29375 l 0.17625,-0.19625 c 0.36375,-0.49 0.43625,-1.17375 0.5525,-1.74875 0.1325,-0.655 0.26375,-1.31125 0.39625,-1.96625 0.0888,-0.445 0.17875,-0.89 0.26875,-1.335 0.0925,-0.0163 0.21125,-0.0325 0.3525,-0.0337 0.14,-0.001 0.30125,0.01 0.47625,0.0475 l 0.2675,0.0763 c 0.16625,0.0587 0.30625,0.13 0.415,0.1975 l 0.14375,0.095 c 0.0975,-0.0412 0.38,-0.14375 0.72625,-0.0487 0.2925,0.0813 0.47625,0.26125 0.5525,0.34625 0.006,-0.40375 -0.0475,-0.7925 -0.15375,-1.16125 -0.0575,-0.19875 -0.1325,-0.39 -0.22,-0.5725"
       style="fill:#f3647a;fill-opacity:1;fill-rule:nonzero;stroke:none"
       id="path6966"
       inkscape:connector-curvature="0" />
    <path
       d="m -376.55963,506.38095 c 0.10625,-0.0125 0.20375,-0.085 0.2325,-0.23 l 0.01,-0.0513 c 0.0775,-0.3875 -0.48375,-0.5175 -0.56125,-0.13 l -0.0113,0.05 0.045,0.23875 0.285,0.1225"
       style="fill:#f3647a;fill-opacity:1;fill-rule:nonzero;stroke:none"
       id="path6968"
       inkscape:connector-curvature="0" />
    <path
       d="m -390.01713,506.46595 0.13875,-0.0688 0.82375,-0.72 -1.30875,6.49125 c -0.0325,0.1575 0.0875,0.32 0.2675,0.36125 0.17875,0.0425 0.34875,-0.0538 0.38125,-0.21125 l 1.32625,-6.5825 0.62375,1.165 0.19125,0.16125 0.125,0.0238 0.12625,-0.0213 c 0.1225,-0.045 0.19,-0.15375 0.18125,-0.27 l -0.0337,-0.115 -1.06875,-1.99625 -0.10625,-0.1175 -0.14,-0.0612 -0.2875,0.0687 -1.58,1.385 -0.09,0.20375 0.1025,0.21375 0.1275,0.0663 0.0412,0.0225 0.15875,0.001"
       style="fill:#f3647a;fill-opacity:1;fill-rule:nonzero;stroke:none"
       id="path6970"
       inkscape:connector-curvature="0" />
    <path
       d="m -385.00338,514.09345 -0.14875,-0.0888 -5.85375,-1.35375 -0.25,0.0475 -0.14375,0.225 c -0.04,0.19125 0.075,0.38125 0.25375,0.4225 l 5.8525,1.355 c 0.135,0.03 0.2675,-0.03 0.3425,-0.145 l 0.0525,-0.1275 0.002,-0.14125 -0.1075,-0.19375"
       style="fill:#f3647a;fill-opacity:1;fill-rule:nonzero;stroke:none"
       id="path6972"
       inkscape:connector-curvature="0" />
    <path
       d="m -377.50838,507.3897 0.20875,-0.0275 0.13125,-0.19875 0.01,-0.0513 c 0.0388,-0.1925 -0.0812,-0.32125 -0.2225,-0.355 l -0.2075,0.0288 -0.13125,0.1975 -0.01,0.05 c -0.04,0.19375 0.0813,0.32375 0.22125,0.35625"
       style="fill:#f3647a;fill-opacity:1;fill-rule:nonzero;stroke:none"
       id="path6974"
       inkscape:connector-curvature="0" />
    <path
       d="m -379.53338,506.98345 0.0937,0.0213 c 0.18,0.0425 0.30125,-0.0875 0.3325,-0.2375 l -0.0263,-0.22375 -0.185,-0.14 -0.0937,-0.0225 c -0.135,-0.0312 -0.2375,0.035 -0.2925,0.1325 -0.0925,0.16375 -0.055,0.41875 0.17125,0.47"
       style="fill:#f3647a;fill-opacity:1;fill-rule:nonzero;stroke:none"
       id="path6976"
       inkscape:connector-curvature="0" />
    <path
       d="m -378.27463,506.3297 0,0 c 0.135,0.0312 0.2375,-0.0337 0.2925,-0.13125 l 0.0137,-0.33 -0.185,-0.14125 c -0.135,-0.03 -0.2375,0.0337 -0.2925,0.13125 l -0.0138,0.33 0.185,0.14125"
       style="fill:#f3647a;fill-opacity:1;fill-rule:nonzero;stroke:none"
       id="path6978"
       inkscape:connector-curvature="0" />
    <path
       d="m -375.66963,507.51095 0.2225,-0.0475 0.11,-0.1925 0.005,-0.1125 c -0.0125,-0.11375 -0.08,-0.21875 -0.21625,-0.25125 -0.13625,-0.03 -0.2375,0.035 -0.2925,0.1325 l -0.04,0.1075 0.0263,0.22125 0.185,0.1425"
       style="fill:#f3647a;fill-opacity:1;fill-rule:nonzero;stroke:none"
       id="path6980"
       inkscape:connector-curvature="0" />
    <path
       d="m -384.24338,505.60845 -0.10625,-0.11625 -0.14,-0.0613 -0.2875,0.0688 -1.58,1.38375 -0.0625,0.3175 0.0762,0.10125 0.1675,0.0875 0.2975,-0.0663 0.82375,-0.72125 -1.30875,6.4925 c -0.0325,0.15875 0.0875,0.31875 0.26625,0.36125 0.18,0.0412 0.35125,-0.0525 0.3825,-0.21125 l 1.32625,-6.58375 0.62375,1.16625 c 0.0825,0.15125 0.27875,0.22375 0.4425,0.165 l 0.10375,-0.065 c 0.0825,-0.0825 0.105,-0.2075 0.0438,-0.32125 l -1.06875,-1.9975"
       style="fill:#f3647a;fill-opacity:1;fill-rule:nonzero;stroke:none"
       id="path6982"
       inkscape:connector-curvature="0" />
    <path
       d="m -392.02338,529.0072 0.47,0.10875 -1.47125,7.29875 -0.47,-0.10875 1.47125,-7.29875 z m 0.7925,0.18375 0.47125,0.10875 -1.47125,7.29875 -0.47,-0.10875 1.47,-7.29875 z m 0.6525,0.15125 0.47125,0.10875 -1.47125,7.29875 -0.47,-0.10875 1.47,-7.29875 z m 1.2175,0.28125 0.47,0.10875 -1.47,7.29875 -0.47125,-0.10875 1.47125,-7.29875 z m 0.51125,0.11875 0.47,0.10875 -1.47,7.29875 -0.47125,-0.10875 1.47125,-7.29875 z m 0.51125,0.11875 0.47,0.10875 -1.47,7.2975 -0.47,-0.1075 1.47,-7.29875 z m 1.07625,0.24875 0.47,0.10875 -1.47125,7.29875 -0.47,-0.10875 1.47125,-7.29875 z m 0.51125,0.11875 0.47,0.1075 -1.47,7.29875 -0.47,-0.10875 1.47,-7.2975 z m 1.07625,0.24875 0.47,0.10875 -1.47125,7.29875 -0.47,-0.10875 1.47125,-7.29875 z m 0.7925,0.1825 0.935,0.21625 -1.47125,7.3 -0.93375,-0.2175 1.47,-7.29875 z m 1.5875,0.3675 0.47,0.10875 -1.47,7.29875 -0.47125,-0.10875 1.47125,-7.29875 z m 0.79375,0.18375 0.47,0.10875 -1.47125,7.29875 -0.47,-0.1075 1.47125,-7.3 z m 0.935,0.21625 0.84,0.195 -1.47125,7.29875 -0.84,-0.195 1.47125,-7.29875 z m 1.7275,0.4 0.47125,0.10875 -1.47125,7.3 -0.47125,-0.10875 1.47125,-7.3 z m 0.51125,0.11875 0.47125,0.10875 -1.47125,7.29875 -0.47,-0.11 1.47,-7.2975 z m -12.91875,-3.66875 -1.77375,8.805 13.8725,3.21 1.77375,-8.805 -13.8725,-3.21"
       style="fill:#e0e8f0;fill-opacity:1;fill-rule:nonzero;stroke:none"
       id="path6984"
       inkscape:connector-curvature="0" />
    <path
       d="m -380.32713,539.35345 -0.47,-0.11 1.47,-7.2975 0.47125,0.10875 -1.47125,7.29875"
       style="fill:#4c4852;fill-opacity:1;fill-rule:nonzero;stroke:none"
       id="path6986"
       inkscape:connector-curvature="0" />
    <path
       d="m -380.83838,539.23595 -0.47125,-0.10875 1.47125,-7.3 0.47125,0.10875 -1.47125,7.3"
       style="fill:#4c4852;fill-opacity:1;fill-rule:nonzero;stroke:none"
       id="path6988"
       inkscape:connector-curvature="0" />
    <path
       d="m -382.19713,538.92095 -0.84,-0.195 1.47125,-7.29875 0.84,0.195 -1.47125,7.29875"
       style="fill:#4c4852;fill-opacity:1;fill-rule:nonzero;stroke:none"
       id="path6990"
       inkscape:connector-curvature="0" />
    <path
       d="m -383.50213,538.61845 -0.47,-0.1075 1.47125,-7.3 0.47,0.10875 -1.47125,7.29875"
       style="fill:#4c4852;fill-opacity:1;fill-rule:nonzero;stroke:none"
       id="path6992"
       inkscape:connector-curvature="0" />
    <path
       d="m -384.29463,538.4347 -0.47125,-0.10875 1.47125,-7.29875 0.47,0.10875 -1.47,7.29875"
       style="fill:#4c4852;fill-opacity:1;fill-rule:nonzero;stroke:none"
       id="path6994"
       inkscape:connector-curvature="0" />
    <path
       d="m -385.41838,538.17595 -0.93375,-0.2175 1.47,-7.29875 0.935,0.21625 -1.47125,7.3"
       style="fill:#4c4852;fill-opacity:1;fill-rule:nonzero;stroke:none"
       id="path6996"
       inkscape:connector-curvature="0" />
    <path
       d="m -386.67588,537.8847 -0.47,-0.10875 1.47125,-7.29875 0.47,0.10875 -1.47125,7.29875"
       style="fill:#4c4852;fill-opacity:1;fill-rule:nonzero;stroke:none"
       id="path6998"
       inkscape:connector-curvature="0" />
    <path
       d="m -387.75088,537.6347 -0.47,-0.10875 1.47,-7.2975 0.47,0.1075 -1.47,7.29875"
       style="fill:#4c4852;fill-opacity:1;fill-rule:nonzero;stroke:none"
       id="path7000"
       inkscape:connector-curvature="0" />
    <path
       d="m -388.26338,537.5172 -0.47,-0.10875 1.47125,-7.29875 0.47,0.10875 -1.47125,7.29875"
       style="fill:#4c4852;fill-opacity:1;fill-rule:nonzero;stroke:none"
       id="path7002"
       inkscape:connector-curvature="0" />
    <path
       d="m -389.33838,537.2672 -0.47,-0.1075 1.47,-7.29875 0.47,0.10875 -1.47,7.2975"
       style="fill:#4c4852;fill-opacity:1;fill-rule:nonzero;stroke:none"
       id="path7004"
       inkscape:connector-curvature="0" />
    <path
       d="m -389.84963,537.1497 -0.47125,-0.10875 1.47125,-7.29875 0.47,0.10875 -1.47,7.29875"
       style="fill:#4c4852;fill-opacity:1;fill-rule:nonzero;stroke:none"
       id="path7006"
       inkscape:connector-curvature="0" />
    <path
       d="m -390.36088,537.03095 -0.47125,-0.10875 1.47125,-7.29875 0.47,0.10875 -1.47,7.29875"
       style="fill:#4c4852;fill-opacity:1;fill-rule:nonzero;stroke:none"
       id="path7008"
       inkscape:connector-curvature="0" />
    <path
       d="m -391.57838,536.7497 -0.47,-0.10875 1.47,-7.29875 0.47125,0.10875 -1.47125,7.29875"
       style="fill:#4c4852;fill-opacity:1;fill-rule:nonzero;stroke:none"
       id="path7010"
       inkscape:connector-curvature="0" />
    <path
       d="m -392.23088,536.59845 -0.47,-0.10875 1.47,-7.29875 0.47125,0.10875 -1.47125,7.29875"
       style="fill:#4c4852;fill-opacity:1;fill-rule:nonzero;stroke:none"
       id="path7012"
       inkscape:connector-curvature="0" />
    <path
       d="m -393.02463,536.4147 -0.47,-0.10875 1.47125,-7.29875 0.47,0.10875 -1.47125,7.29875"
       style="fill:#4c4852;fill-opacity:1;fill-rule:nonzero;stroke:none"
       id="path7014"
       inkscape:connector-curvature="0" />
    <path
       d="m -330.05213,524.6697 c 1.1075,1.955 1.46875,4.2425 1.015,6.4425 l -4.7125,22.87625 c -1.60375,-0.0987 -3.13875,-0.25125 -4.34875,-0.42375 1.62375,-10.33 3.78625,-21.0925 5.8975,-31.845 l 2.14875,2.95 z m -4.75125,-16.395 -0.015,0.0738 c -2.57,13.86625 -5.55125,28.03 -8.54,41.9375 l -0.0288,0 c -0.48125,2.0825 -0.785,3.52 -0.85,4.08 -0.20125,0.93375 -0.40375,1.87125 -0.60375,2.8025 -3.46,-0.74625 -7.7075,-1.6625 -12.29125,-2.64125 -11.14125,-2.38125 -24.26,-5.1425 -32.8275,-6.78625 l -1.075,4.98125 c 12.92,2.475 34.95,7.22875 47.6075,9.9625 1.375,0.2975 2.73,-0.5775 3.02625,-1.95125 l 0.0712,-0.32875 c 0,0 0.47625,0.0487 1.2125,0.125 0.1075,-0.8025 0.22125,-1.60875 0.33625,-2.41875 0.55125,0.075 1.095,0.135 1.6075,0.18875 2.57,0.27375 5.0925,0.35875 5.19875,0.3625 l 0.075,10e-4 c 1.08375,0 2.02375,-0.7625 2.24375,-1.83 l 5.1075,-24.79745 c 0.6775,-3.2875 0.13875,-6.70625 -1.51625,-9.62625 0,0 -3.11625,-5.16625 -4.79875,-7.565 0.35375,-1.8475 0.705,-3.69125 1.045,-5.53 l 0.0625,-0.23625 -3.92625,-3.92625 c -0.49875,0.95625 -0.88,2.0025 -1.12125,3.1225"
       style="fill:#f1495e;fill-opacity:1;fill-rule:nonzero;stroke:none"
       id="path7016"
       inkscape:connector-curvature="0" />
    <path
       d="m -314.43213,503.47595 c -1.89375,-2.4625 -5.0775,-4.28 -7.7725,-4.4425 -4.89,-0.52375 -9.3025,1.94375 -11.4775,6.11875 l 3.92625,3.92625 c 0.72375,-2.83875 3.14,-5.42 7.055,-4.9775 l 0.165,0.0138 c 1.08875,0.05 2.98125,1.055 4.065,2.465 0.3925,0.51125 0.82875,1.27 0.675,1.98375 -0.29625,1.37375 0.57625,2.72875 1.95125,3.02625 1.375,0.2975 2.73,-0.57625 3.0275,-1.95125 0.44125,-2.045 -0.1325,-4.23375 -1.615,-6.1625"
       style="fill:#f3647a;fill-opacity:1;fill-rule:nonzero;stroke:none"
       id="path7018"
       inkscape:connector-curvature="0" />
    <path
       d="m -343.90713,557.35095 c 1.32375,-1.33625 3.19,-2.17125 5.23375,-2.16875 4.085,0.005 7.40125,3.31625 7.39625,7.415 -0.002,2.0425 -0.8275,3.8925 -2.18125,5.22875 -1.33875,1.335 -3.19125,2.17 -5.23375,2.1675 -4.085,-0.005 -7.40125,-3.32875 -7.39625,-7.415 0.002,-2.04125 0.8275,-3.8775 2.18125,-5.2275 z m 15.5675,-0.3575 c -0.54125,-1 -1.225,-1.91375 -2.02125,-2.71125 -2.125,-2.13 -5.06125,-3.45 -8.3075,-3.45375 -3.24625,-0.004 -6.18625,1.30875 -8.31625,3.4325 -0.79875,0.7975 -1.48375,1.7075 -2.0275,2.70625 -0.3625,0.66625 -0.66375,1.37125 -0.89375,2.1075 -0.34375,1.10375 -0.53,2.2775 -0.5325,3.495 -0.007,6.49125 5.24875,11.76125 11.74125,11.76875 6.4925,0.009 11.76125,-5.24875 11.76875,-11.74 0.002,-1.21875 -0.18125,-2.3925 -0.52375,-3.49625 -0.2275,-0.7375 -0.52625,-1.4425 -0.8875,-2.10875"
       style="fill:#7a7d83;fill-opacity:1;fill-rule:nonzero;stroke:none"
       id="path7020"
       inkscape:connector-curvature="0" />
    <path
       d="m -338.69213,569.99345 c 2.0425,0.002 3.895,-0.8325 5.23375,-2.1675 l -10.44875,-10.475 c -1.35375,1.35 -2.17875,3.18625 -2.18125,5.2275 -0.005,4.08625 3.31125,7.41 7.39625,7.415"
       style="fill:#5fb0c2;fill-opacity:1;fill-rule:nonzero;stroke:none"
       id="path7022"
       inkscape:connector-curvature="0" />
    <path
       d="m -331.27713,562.5972 c 0.005,-4.09875 -3.31125,-7.41 -7.39625,-7.415 -2.04375,-0.002 -3.91,0.8325 -5.23375,2.16875 l 10.44875,10.475 c 1.35375,-1.33625 2.17875,-3.18625 2.18125,-5.22875"
       style="fill:#4c94a1;fill-opacity:1;fill-rule:nonzero;stroke:none"
       id="path7024"
       inkscape:connector-curvature="0" />
  </g>
</svg>
