<svg xmlns="http://www.w3.org/2000/svg" version="1.1" xmlns:xlink="http://www.w3.org/1999/xlink" xmlns:svgjs="http://svgjs.com/svgjs" viewBox="0 0 24 24" width="24" height="24"><g transform="matrix(1,0,0,1,0,0)"><path d="M0.75 0.75L0.75 23.25 23.25 23.25" fill="none" stroke="#ffffff" stroke-linecap="round" stroke-linejoin="round" stroke-width="1.5"></path><path d="M15.937 8.578L20.43 2.962" fill="none" stroke="#ffffff" stroke-linecap="round" stroke-linejoin="round" stroke-width="1.5"></path><path d="M9.621 7.359L13.629 9.14" fill="none" stroke="#ffffff" stroke-linecap="round" stroke-linejoin="round" stroke-width="1.5"></path><path d="M0.75 11.25L6.964 7.522" fill="none" stroke="#ffffff" stroke-linecap="round" stroke-linejoin="round" stroke-width="1.5"></path><path d="M15.561 16.521L20.301 13.888" fill="none" stroke="#ffffff" stroke-linecap="round" stroke-linejoin="round" stroke-width="1.5"></path><path d="M8.25 17.25L12.75 17.25" fill="none" stroke="#ffffff" stroke-linecap="round" stroke-linejoin="round" stroke-width="1.5"></path><path d="M0.75 20.25L5.408 17.921" fill="none" stroke="#ffffff" stroke-linecap="round" stroke-linejoin="round" stroke-width="1.5"></path><path d="M6.750 6.750 A1.500 1.500 0 1 0 9.750 6.750 A1.500 1.500 0 1 0 6.750 6.750 Z" fill="none" stroke="#ffffff" stroke-linecap="round" stroke-linejoin="round" stroke-width="1.5"></path><path d="M13.500 9.750 A1.500 1.500 0 1 0 16.500 9.750 A1.500 1.500 0 1 0 13.500 9.750 Z" fill="none" stroke="#ffffff" stroke-linecap="round" stroke-linejoin="round" stroke-width="1.5"></path><path d="M20.250 2.250 A1.500 1.500 0 1 0 23.250 2.250 A1.500 1.500 0 1 0 20.250 2.250 Z" fill="none" stroke="#ffffff" stroke-linecap="round" stroke-linejoin="round" stroke-width="1.5"></path><path d="M20.250 13.500 A1.500 1.500 0 1 0 23.250 13.500 A1.500 1.500 0 1 0 20.250 13.500 Z" fill="none" stroke="#ffffff" stroke-linecap="round" stroke-linejoin="round" stroke-width="1.5"></path><path d="M12.750 17.250 A1.500 1.500 0 1 0 15.750 17.250 A1.500 1.500 0 1 0 12.750 17.250 Z" fill="none" stroke="#ffffff" stroke-linecap="round" stroke-linejoin="round" stroke-width="1.5"></path><path d="M5.250 17.250 A1.500 1.500 0 1 0 8.250 17.250 A1.500 1.500 0 1 0 5.250 17.250 Z" fill="none" stroke="#ffffff" stroke-linecap="round" stroke-linejoin="round" stroke-width="1.5"></path></g></svg>