<svg xmlns="http://www.w3.org/2000/svg" version="1.1" xmlns:xlink="http://www.w3.org/1999/xlink" xmlns:svgjs="http://svgjs.com/svgjs" viewBox="0 0 24 24" height="24" width="24"><title>analytics graph (From Streamline App : https://app.streamlineicons.com)</title><g transform="matrix(1,0,0,1,0,0)"><path d="M 0.75,0.75v22.5h22.5 " stroke="#eeeeee" fill="none" stroke-width="1.5" stroke-linecap="round" stroke-linejoin="round"></path><path d="M 15.937,8.578l4.493-5.616 " stroke="#eeeeee" fill="none" stroke-width="1.5" stroke-linecap="round" stroke-linejoin="round"></path><path d="M 9.621,7.359l4.008,1.781 " stroke="#eeeeee" fill="none" stroke-width="1.5" stroke-linecap="round" stroke-linejoin="round"></path><path d="M 0.75,11.25l6.214-3.728 " stroke="#eeeeee" fill="none" stroke-width="1.5" stroke-linecap="round" stroke-linejoin="round"></path><path d="M 15.561,16.521l4.74-2.633 " stroke="#eeeeee" fill="none" stroke-width="1.5" stroke-linecap="round" stroke-linejoin="round"></path><path d="M 8.25,17.25h4.5 " stroke="#eeeeee" fill="none" stroke-width="1.5" stroke-linecap="round" stroke-linejoin="round"></path><path d="M 0.75,20.25l4.658-2.329 " stroke="#eeeeee" fill="none" stroke-width="1.5" stroke-linecap="round" stroke-linejoin="round"></path><path d="M 8.25,5.25c0.828,0,1.5,0.672,1.5,1.5s-0.672,1.5-1.5,1.5 s-1.5-0.672-1.5-1.5S7.422,5.25,8.25,5.25z " stroke="#eeeeee" fill="none" stroke-width="1.5" stroke-linecap="round" stroke-linejoin="round"></path><path d="M 15,8.25c0.828,0,1.5,0.672,1.5,1.5s-0.672,1.5-1.5,1.5s-1.5-0.672-1.5-1.5 S14.172,8.25,15,8.25z " stroke="#eeeeee" fill="none" stroke-width="1.5" stroke-linecap="round" stroke-linejoin="round"></path><path d="M 21.75,0.75c0.828,0,1.5,0.672,1.5,1.5s-0.672,1.5-1.5,1.5s-1.5-0.672-1.5-1.5S20.922,0.75,21.75,0.75z " stroke="#eeeeee" fill="none" stroke-width="1.5" stroke-linecap="round" stroke-linejoin="round"></path><path d="M 21.75,12c0.828,0,1.5,0.672,1.5,1.5s-0.672,1.5-1.5,1.5s-1.5-0.672-1.5-1.5S20.922,12,21.75,12z " stroke="#eeeeee" fill="none" stroke-width="1.5" stroke-linecap="round" stroke-linejoin="round"></path><path d="M 14.25,15.75 c0.828,0,1.5,0.672,1.5,1.5s-0.672,1.5-1.5,1.5s-1.5-0.672-1.5-1.5S13.422,15.75,14.25,15.75z " stroke="#eeeeee" fill="none" stroke-width="1.5" stroke-linecap="round" stroke-linejoin="round"></path><path d="M 6.75,15.75 c0.828,0,1.5,0.672,1.5,1.5s-0.672,1.5-1.5,1.5s-1.5-0.672-1.5-1.5S5.922,15.75,6.75,15.75z" stroke="#eeeeee" fill="none" stroke-width="1.5" stroke-linecap="round" stroke-linejoin="round"></path></g></svg>