<svg xmlns="http://www.w3.org/2000/svg" version="1.1" xmlns:xlink="http://www.w3.org/1999/xlink" xmlns:svgjs="http://svgjs.com/svgjs" viewBox="0 0 40 40" width="40" height="40"><title>Exported from Streamline App (https://app.streamlineicons.com)</title><g transform="matrix(1.6666666666666667,0,0,1.6666666666666667,0,0)"><path d="M11.278,6.134c0.014-0.098-0.032-0.195-0.116-0.247C9.9,5.1,7.033,3.859,1.507,3.787C1.231,3.783,1.004,4.004,1,4.28 c0,0.002,0,0.005,0,0.007v15.765c0,0.273,0.22,0.496,0.493,0.5c5.151,0.066,7.994,1.15,9.385,1.932 c0.077,0.045,0.171,0.045,0.248,0c0.077-0.045,0.124-0.127,0.124-0.216V6.446C11.253,6.342,11.262,6.237,11.278,6.134z M19.25,17.446c-0.001,0.365-0.264,0.677-0.624,0.739c-1.621,0.315-3.114,1.101-4.292,2.258c-0.394,0.437-0.738,0.916-1.027,1.429 c-0.067,0.121-0.023,0.273,0.097,0.34c0.071,0.039,0.157,0.042,0.231,0.006c2.802-1.192,5.829-1.761,8.872-1.666 C22.78,20.548,23,20.325,23,20.052V4.287c0-0.276-0.224-0.5-0.5-0.5c-0.002,0-0.005,0-0.007,0c-1.114,0.014-2.114,0.079-3.02,0.176 c-0.127,0.014-0.223,0.121-0.223,0.249V17.446z M17.568,16.9c0.108-0.031,0.182-0.129,0.182-0.241V1.734 c0-0.138-0.112-0.25-0.25-0.25c-0.029,0-0.059,0.005-0.086,0.015c-1.168,0.392-2.224,1.059-3.08,1.945 c-0.836,0.81-1.391,1.866-1.584,3.014V19.31c0,0.138,0.112,0.25,0.25,0.25c0.072,0,0.141-0.031,0.188-0.085l0.023-0.026 C14.401,18.215,15.909,17.333,17.568,16.9z" stroke="none" fill="#222222" stroke-width="0" stroke-linecap="round" stroke-linejoin="round"></path></g></svg>