<svg xmlns="http://www.w3.org/2000/svg" version="1.1" xmlns:xlink="http://www.w3.org/1999/xlink" xmlns:svgjs="http://svgjs.com/svgjs" viewBox="0 0 24 24" height="24" width="24"><title>cloud server (From Streamline App : https://app.streamlineicons.com)</title><g transform="matrix(1,0,0,1,0,0)"><path d="M 6.75,13.875c-0.207,0-0.375,0.168-0.375,0.375s0.168,0.375,0.375,0.375s0.375-0.168,0.375-0.375 S6.957,13.875,6.75,13.875L6.75,13.875 " stroke="#777777" fill="none" stroke-width="1.5" stroke-linecap="round" stroke-linejoin="round"></path><path d="M 12,14.25h1.5 " stroke="#777777" fill="none" stroke-width="1.5" stroke-linecap="round" stroke-linejoin="round"></path><path d="M 16.5,14.25H18 " stroke="#777777" fill="none" stroke-width="1.5" stroke-linecap="round" stroke-linejoin="round"></path><path d="M 6.75,19.875c-0.207,0-0.375,0.168-0.375,0.375 s0.168,0.375,0.375,0.375s0.375-0.168,0.375-0.375S6.957,19.875,6.75,19.875L6.75,19.875 " stroke="#777777" fill="none" stroke-width="1.5" stroke-linecap="round" stroke-linejoin="round"></path><path d="M 12,20.25h1.5 " stroke="#777777" fill="none" stroke-width="1.5" stroke-linecap="round" stroke-linejoin="round"></path><path d="M 16.5,20.25H18 " stroke="#777777" fill="none" stroke-width="1.5" stroke-linecap="round" stroke-linejoin="round"></path><path d="M 21,14.25 c0,1.657-1.343,3-3,3H6c-1.657,0-3-1.343-3-3s1.343-3,3-3h12C19.657,11.25,21,12.593,21,14.25z " stroke="#777777" fill="none" stroke-width="1.5" stroke-linecap="round" stroke-linejoin="round"></path><path d="M 21,20.25c0,1.657-1.343,3-3,3H6 c-1.657,0-3-1.343-3-3s1.343-3,3-3h12C19.657,17.25,21,18.593,21,20.25z " stroke="#777777" fill="none" stroke-width="1.5" stroke-linecap="round" stroke-linejoin="round"></path><path d="M 23.12,12c0.618-2.624-1.008-5.252-3.632-5.87 C19.123,6.044,18.75,6,18.375,6c-0.988,0-1.952,0.302-2.764,0.865c-0.747-4.074-4.655-6.772-8.729-6.025S0.11,5.494,0.857,9.569 c0.106,0.579,0.28,1.144,0.518,1.682" stroke="#777777" fill="none" stroke-width="1.5" stroke-linecap="round" stroke-linejoin="round"></path></g></svg>