<svg xmlns="http://www.w3.org/2000/svg" version="1.1" xmlns:xlink="http://www.w3.org/1999/xlink" xmlns:svgjs="http://svgjs.com/svgjs" viewBox="0 0 24 24" height="24" width="24"><title>cloud star (From Streamline App : https://app.streamlineicons.com)</title><g transform="matrix(1,0,0,1,0,0)"><path d="M 22.916,12.651c0.982-2.505-0.253-5.332-2.758-6.314c-1.509-0.592-3.214-0.394-4.548,0.528 c-0.765-4.071-4.686-6.75-8.757-5.985s-6.75,4.686-5.985,8.757c0.667,3.549,3.769,6.119,7.381,6.114 " stroke="#eeeeee" fill="none" stroke-width="1.5" stroke-linecap="round" stroke-linejoin="round"></path><path d="M 17.954,11.678l1.539,4.073 h2.994c0.406-0.013,0.745,0.305,0.758,0.711c0.007,0.218-0.083,0.427-0.245,0.572l-2.6,1.812l1.44,3.314 c0.167,0.4-0.022,0.86-0.422,1.027c-0.226,0.094-0.483,0.078-0.695-0.045l-3.479-1.961l-3.48,1.961 c-0.375,0.217-0.856,0.088-1.072-0.287c-0.122-0.212-0.139-0.469-0.045-0.695l1.44-3.314l-2.6-1.812 c-0.303-0.269-0.332-0.733-0.063-1.036c0.146-0.164,0.357-0.255,0.577-0.247H15l1.542-4.073c0.199-0.39,0.677-0.544,1.067-0.345 C17.757,11.409,17.878,11.53,17.954,11.678z " stroke="#eeeeee" fill="none" stroke-width="1.5" stroke-linecap="round" stroke-linejoin="round"></path><path d="M 23.1,9.659c-0.668-2.605-3.322-4.176-5.927-3.508 c-0.559,0.143-1.088,0.385-1.563,0.714c-0.765-4.071-4.686-6.75-8.757-5.985s-6.75,4.686-5.985,8.757 c0.667,3.549,3.769,6.119,7.381,6.114" stroke="#eeeeee" fill="none" stroke-width="1.5" stroke-linecap="round" stroke-linejoin="round"></path></g></svg>