<svg xmlns="http://www.w3.org/2000/svg" version="1.1" xmlns:xlink="http://www.w3.org/1999/xlink" xmlns:svgjs="http://svgjs.com/svgjs" viewBox="0 0 24 24" height="24" width="24"><title>common file text share (From Streamline App : https://app.streamlineicons.com)</title><g transform="matrix(1,0,0,1,0,0)"><path d="M 13.5,15.75c1.243,0,2.25,1.007,2.25,2.25s-1.007,2.25-2.25,2.25s-2.25-1.007-2.25-2.25 S12.257,15.75,13.5,15.75z " stroke="#777777" fill="none" stroke-width="1.5" stroke-linecap="round" stroke-linejoin="round"></path><path d="M 21,18.75c1.243,0,2.25,1.007,2.25,2.25s-1.007,2.25-2.25,2.25s-2.25-1.007-2.25-2.25 S19.757,18.75,21,18.75z " stroke="#777777" fill="none" stroke-width="1.5" stroke-linecap="round" stroke-linejoin="round"></path><path d="M 21,11.25c1.243,0,2.25,1.007,2.25,2.25s-1.007,2.25-2.25,2.25s-2.25-1.007-2.25-2.25 S19.757,11.25,21,11.25z " stroke="#777777" fill="none" stroke-width="1.5" stroke-linecap="round" stroke-linejoin="round"></path><path d="M 15.425,16.845l3.65-2.19 " stroke="#777777" fill="none" stroke-width="1.5" stroke-linecap="round" stroke-linejoin="round"></path><path d="M 15.588,18.835l3.324,1.33 " stroke="#777777" fill="none" stroke-width="1.5" stroke-linecap="round" stroke-linejoin="round"></path><path d="M 3.75,6.75h10.5 " stroke="#777777" fill="none" stroke-width="1.5" stroke-linecap="round" stroke-linejoin="round"></path><path d="M 3.75,11.25h10.5 " stroke="#777777" fill="none" stroke-width="1.5" stroke-linecap="round" stroke-linejoin="round"></path><path d="M 3.75,15.75H7.5 " stroke="#777777" fill="none" stroke-width="1.5" stroke-linecap="round" stroke-linejoin="round"></path><path d="M 7.5,20.25H2.25c-0.828,0-1.5-0.672-1.5-1.5V2.25c0-0.828,0.672-1.5,1.5-1.5h10.629c0.398,0,0.779,0.158,1.06,0.439l2.872,2.872 c0.281,0.281,0.439,0.662,0.439,1.06V7.5" stroke="#777777" fill="none" stroke-width="1.5" stroke-linecap="round" stroke-linejoin="round"></path></g></svg>