<svg xmlns="http://www.w3.org/2000/svg" version="1.1" xmlns:xlink="http://www.w3.org/1999/xlink" xmlns:svgjs="http://svgjs.com/svgjs" viewBox="0 0 40 40" width="40" height="40"><title>Exported from Streamline App (https://app.streamlineicons.com)</title><g transform="matrix(1.6666666666666667,0,0,1.6666666666666667,0,0)"><path d="M13.4,4.727c-0.01,0.126,0.076,0.24,0.2,0.265c0.504,0.126,0.849,0.589,0.824,1.108v1.4c0,0.687,0.557,1.244,1.244,1.244 l0,0c0.687,0.001,1.244-0.556,1.245-1.243c0,0,0-0.001,0-0.001V3.975c0-0.825-0.669-1.494-1.494-1.494c-0.002,0-0.004,0-0.006,0 h-1.724c-0.067,0-0.13,0.026-0.177,0.074c-0.047,0.047-0.073,0.111-0.073,0.177C13.441,3.205,13.44,4.224,13.4,4.727z M8.954,21.262c0-0.687-0.557-1.244-1.244-1.244H3.484c-0.589-0.039-1.036-0.547-1-1.136V6.1C2.457,5.573,2.812,5.103,3.326,4.985 c0.121-0.025,0.206-0.134,0.2-0.258c-0.039-0.766-0.051-1.6-0.055-2C3.469,2.59,3.358,2.48,3.221,2.48H1.5 C0.675,2.477,0.003,3.143,0,3.968C0,3.97,0,3.973,0,3.975v17.037c0,0.825,0.668,1.493,1.493,1.493c0,0,0.001,0,0.001,0H7.71 C8.397,22.505,8.953,21.949,8.954,21.262z M11.937,4.472V2.484c0-0.276-0.224-0.5-0.5-0.5h-0.758c-0.127,0-0.234-0.096-0.249-0.222 C10.307,0.67,9.322-0.115,8.231,0.008C7.309,0.112,6.581,0.84,6.477,1.762C6.463,1.889,6.356,1.985,6.228,1.984H5.473 c-0.276,0-0.5,0.224-0.5,0.5v1.988c0,0.276,0.224,0.5,0.5,0.5h5.967C11.715,4.97,11.937,4.747,11.937,4.472z M19.02,17.269h-3.979 c-0.414,0-0.75,0.336-0.75,0.75s0.336,0.75,0.75,0.75h3.979c0.414,0,0.75-0.336,0.75-0.75S19.434,17.269,19.02,17.269z M14.291,14.54c0.001,0.414,0.336,0.749,0.75,0.749h2.486c0.414,0,0.75-0.336,0.75-0.75s-0.336-0.75-0.75-0.75h-2.486 c-0.414,0-0.75,0.336-0.75,0.75C14.291,14.539,14.291,14.54,14.291,14.54z M23.5,13.46c0-0.529-0.21-1.035-0.584-1.409l-1.406-1.4 c-0.374-0.374-0.881-0.584-1.41-0.584h-7.606c-1.099-0.001-1.991,0.889-1.994,1.988V22c0,1.105,0.895,2,2,2h9c1.105,0,2-0.895,2-2 V13.46z M12.5,13.06c0-0.552,0.448-1,1-1h6.187c0.265,0,0.519,0.105,0.707,0.292l0.818,0.816c0.188,0.188,0.293,0.442,0.293,0.708 V21c0,0.552-0.448,1-1,1h-7c-0.552,0-1-0.448-1-1L12.5,13.06z" stroke="none" fill="#222222" stroke-width="0" stroke-linecap="round" stroke-linejoin="round"></path></g></svg>