<svg xmlns="http://www.w3.org/2000/svg" version="1.1" xmlns:xlink="http://www.w3.org/1999/xlink" xmlns:svgjs="http://svgjs.com/svgjs" viewBox="0 0 40 40" width="40" height="40"><title>Exported from Streamline App (https://app.streamlineicons.com)</title><g transform="matrix(1.6666666666666667,0,0,1.6666666666666667,0,0)"><path d="M8.706,21.392c0.137,0.013,0.26-0.087,0.273-0.225c0.005-0.047-0.004-0.093-0.025-0.135c-0.461-0.938-0.733-1.957-0.8-3 c-0.008-0.119-0.099-0.216-0.217-0.231c-2.208-0.192-4.329-0.954-6.154-2.211c-0.107-0.087-0.264-0.071-0.352,0.036 c-0.036,0.045-0.056,0.101-0.056,0.158V17.5C1.375,19.4,4.506,20.979,8.706,21.392z M1.375,13c0,1.772,2.737,3.272,6.526,3.8 c0.067,0.009,0.134-0.009,0.188-0.05c0.053-0.041,0.087-0.102,0.095-0.169c0.114-0.982,0.41-1.935,0.874-2.808 c0.065-0.122,0.018-0.273-0.104-0.338c-0.03-0.016-0.062-0.025-0.096-0.028c-2.825-0.254-5.511-1.04-7.077-2.315 c-0.107-0.087-0.264-0.071-0.352,0.036c-0.036,0.045-0.056,0.101-0.056,0.158L1.375,13z M10.876,9c-3.5,0-7.156-0.833-9.093-2.411 C1.676,6.502,1.519,6.518,1.431,6.625C1.395,6.669,1.375,6.725,1.375,6.783V8.5c0,2.054,3.674,3.745,8.4,3.974 c0.079,0.004,0.154-0.03,0.205-0.09c2.259-2.729,6.051-3.635,9.3-2.224c0.092,0.04,0.199,0.021,0.272-0.048 c0.487-0.399,0.785-0.983,0.823-1.612V6.785c0-0.138-0.112-0.25-0.25-0.25c-0.058,0-0.114,0.02-0.158,0.056 C18.03,8.168,14.38,9,10.876,9z M10.876,0c5.247,0,9.5,1.791,9.5,4s-4.253,4-9.5,4s-9.5-1.791-9.5-4S5.629,0,10.876,0z M16.125,11 c-3.59,0-6.5,2.91-6.5,6.5s2.91,6.5,6.5,6.5s6.5-2.91,6.5-6.5C22.621,13.912,19.713,11.004,16.125,11z M16.125,22 c-0.733-0.001-1.455-0.183-2.1-0.532c-0.069-0.038-0.117-0.106-0.129-0.184c-0.012-0.078,0.015-0.157,0.071-0.213l5.733-5.727 c0.098-0.098,0.256-0.099,0.355-0.002c0.018,0.018,0.033,0.038,0.045,0.061c0.349,0.645,0.532,1.367,0.532,2.1 c-0.002,2.485-2.018,4.499-4.503,4.497C16.128,22,16.126,22,16.125,22z M16.125,13c0.733,0.001,1.455,0.184,2.1,0.533 c0.07,0.037,0.118,0.105,0.13,0.183c0.011,0.079-0.015,0.158-0.071,0.214l-5.728,5.727c-0.098,0.098-0.256,0.099-0.355,0.002 c-0.018-0.018-0.033-0.038-0.045-0.061c-0.349-0.645-0.531-1.367-0.532-2.1C11.628,15.014,13.641,13.002,16.125,13z" stroke="none" fill="#000000" stroke-width="0" stroke-linecap="round" stroke-linejoin="round"></path></g></svg>