<svg xmlns="http://www.w3.org/2000/svg" version="1.1" xmlns:xlink="http://www.w3.org/1999/xlink" xmlns:svgjs="http://svgjs.com/svgjs" viewBox="0 0 40 40" width="40" height="40"><title>Exported from Streamline App (https://app.streamlineicons.com)</title><g transform="matrix(1.6666666666666667,0,0,1.6666666666666667,0,0)"><path d="M6.835,18.375c0.001-0.345,0.28-0.624,0.625-0.625h2.526c0.552,0,1-0.448,0.999-1.001c0-0.135-0.027-0.268-0.08-0.392 C10.554,15.533,9.744,14.999,8.849,15H4.585c-0.276,0-0.5,0.224-0.5,0.5V22c0,0.276,0.224,0.5,0.5,0.5h10.764 c1.234-0.001,2.235-1.002,2.236-2.236V20c0-0.552-0.448-1-1-1H7.46C7.115,18.999,6.836,18.72,6.835,18.375z M3.085,15.25 c-0.01-0.548-0.452-0.99-1-1c-0.552,0-1,0.448-1,1v7.25c0,0.552,0.448,1,1,1c0.327-0.004,0.63-0.17,0.809-0.443 c0.119-0.162,0.186-0.356,0.191-0.557V15.25z M22.915,11.169c-0.001-0.139-0.114-0.25-0.253-0.249 c-0.053,0-0.104,0.018-0.147,0.049c-1.559,1.069-3.421,1.609-5.31,1.54c-1.889,0.069-3.75-0.471-5.309-1.54 c-0.112-0.082-0.269-0.059-0.351,0.053c-0.031,0.043-0.049,0.094-0.049,0.147v2.292c0,1.638,2.615,3.021,5.712,3.021 s5.713-1.383,5.713-3.021L22.915,11.169z M11.49,8.49c0,1.638,2.615,3.021,5.712,3.021s5.713-1.383,5.713-3.021V6.2 c0-0.095-0.055-0.182-0.14-0.224C22.69,5.933,22.588,5.942,22.512,6c-1.56,1.069-3.422,1.609-5.312,1.541 C15.312,7.608,13.452,7.068,11.893,6c-0.11-0.083-0.267-0.06-0.35,0.05c-0.032,0.043-0.05,0.096-0.05,0.15L11.49,8.49z M17.202,0.5 c3.155,0,5.712,1.353,5.712,3.021s-2.557,3.021-5.712,3.021S11.49,5.189,11.49,3.521S14.047,0.5,17.202,0.5z" stroke="none" fill="#000000" stroke-width="0" stroke-linecap="round" stroke-linejoin="round"></path></g></svg>