<svg xmlns="http://www.w3.org/2000/svg" version="1.1" xmlns:xlink="http://www.w3.org/1999/xlink" xmlns:svgjs="http://svgjs.com/svgjs" viewBox="0 0 24 24" height="24" width="24"><title>developer community github (From Streamline App : https://app.streamlineicons.com)</title><g transform="matrix(1,0,0,1,0,0)"><path d="M 19.5,16c0-6-4.13-3.53-7.5-3.53S4.5,10,4.5,16c0.027,1.913,1.586,3.45,3.5,3.45h8 C17.914,19.45,19.473,17.913,19.5,16z " stroke="#EEEEEE" fill="none" stroke-width="1.5" stroke-linecap="round" stroke-linejoin="round"></path><path d="M 21.78,9.4L21.78,9.4c0,0,2.75-4.67-0.58-7.4C19.14,2,16,5.38,16,5.38l0,0 c-2.614-0.749-5.386-0.749-8,0C8,5.38,4.89,2,2.85,2C-0.41,4.66,2.1,9.19,2.22,9.4c-1.141,1.744-1.649,3.827-1.44,5.9 C1,18.5,3.71,22,6.92,22h10.15c3.22,0,5.89-3.5,6.14-6.71C23.421,13.221,22.916,11.142,21.78,9.4z " stroke="#EEEEEE" fill="none" stroke-width="1.5" stroke-linecap="round" stroke-linejoin="round"></path><path d="M 15.52,16.7 c-0.28,0-0.5-0.34-0.5-0.75s0.22-0.75,0.5-0.75s0.5,0.34,0.5,0.75S15.8,16.7,15.52,16.7 " stroke="#EEEEEE" fill="none" stroke-width="1.5" stroke-linecap="round" stroke-linejoin="round"></path><path d="M 8.52,16.7c-0.28,0-0.5-0.34-0.5-0.75 s0.22-0.75,0.5-0.75s0.5,0.34,0.5,0.75S8.8,16.7,8.52,16.7" stroke="#EEEEEE" fill="none" stroke-width="1.5" stroke-linecap="round" stroke-linejoin="round"></path></g></svg>