<svg xmlns="http://www.w3.org/2000/svg" version="1.1" xmlns:xlink="http://www.w3.org/1999/xlink" xmlns:svgjs="http://svgjs.com/svgjs" viewBox="0 0 24 24" height="24" width="24"><title>developer community github 1 (From Streamline App : https://app.streamlineicons.com)</title><g transform="matrix(1,0,0,1,0,0)"><path d="M 14.41,22.35c0,0.276,0.224,0.5,0.5,0.5c0.047,0,0.095-0.007,0.14-0.02c5.969-1.723,9.412-7.959,7.689-13.929 C21.016,2.932,14.779-0.511,8.81,1.213s-9.412,7.959-7.689,13.929c1.072,3.714,3.975,6.617,7.689,7.689 c0.265,0.077,0.543-0.075,0.62-0.34c0.013-0.045,0.02-0.093,0.02-0.14V20C8.026,20.43,6.513,19.676,6,18.28 C5.72,17.429,5.256,16.65,4.64,16c2.85,0.69,2.9,2.54,4.84,1.67c0.059-0.649,0.275-1.274,0.63-1.82c-2.2-0.25-4.52-0.6-4.52-4.4 c-0.019-0.982,0.339-1.934,1-2.66c-0.301-0.854-0.265-1.791,0.1-2.62c0,0,0.83-0.27,2.73,1c1.636-0.452,3.364-0.452,5,0 c1.89-1.28,2.72-1,2.72-1c0.365,0.829,0.401,1.766,0.1,2.62c0.662,0.726,1.02,1.678,1,2.66c0,3.81-2.32,4.15-4.53,4.39 c0.473,0.682,0.712,1.5,0.68,2.33L14.41,22.35z" stroke="#EEEEEE" fill="none" stroke-width="1.5" stroke-linecap="round" stroke-linejoin="round"></path></g></svg>