<svg xmlns="http://www.w3.org/2000/svg" version="1.1" xmlns:xlink="http://www.w3.org/1999/xlink" xmlns:svgjs="http://svgjs.com/svgjs" viewBox="0 0 24 24" height="24" width="24"><title>file code settings (From Streamline App : https://app.streamlineicons.com)</title><g transform="matrix(1,0,0,1,0,0)"><path d="M 17.252,15.003c0.828,0,1.5,0.672,1.5,1.5c0,0.828-0.672,1.5-1.5,1.5s-1.5-0.672-1.5-1.5 C15.752,15.675,16.424,15.003,17.252,15.003z " stroke="#777777" fill="none" stroke-width="1.5" stroke-linecap="round" stroke-linejoin="round"></path><path d="M 18.526,10.7l0.443,1.452c0.151,0.501,0.664,0.799,1.173,0.681l1.472-0.341 c0.721-0.163,1.438,0.29,1.601,1.012c0.097,0.431-0.025,0.882-0.326,1.206l-1.031,1.111c-0.358,0.384-0.358,0.979,0,1.363 l1.031,1.116c0.504,0.542,0.473,1.389-0.069,1.892c-0.324,0.301-0.775,0.423-1.206,0.326l-1.472-0.341 c-0.509-0.118-1.022,0.18-1.173,0.681l-0.443,1.452c-0.211,0.704-0.952,1.103-1.656,0.892c-0.428-0.128-0.764-0.464-0.892-0.892 l-0.442-1.452c-0.151-0.501-0.664-0.799-1.174-0.681l-1.472,0.341c-0.721,0.163-1.438-0.29-1.601-1.012 c-0.097-0.431,0.025-0.882,0.326-1.206l1.031-1.111c0.358-0.384,0.358-0.979,0-1.363l-1.031-1.111 c-0.504-0.542-0.473-1.389,0.069-1.892c0.324-0.301,0.775-0.423,1.206-0.326l1.472,0.341c0.51,0.118,1.023-0.18,1.174-0.681 l0.442-1.452c0.21-0.704,0.95-1.105,1.654-0.895C18.061,9.937,18.397,10.272,18.526,10.7z " stroke="#777777" fill="none" stroke-width="1.5" stroke-linecap="round" stroke-linejoin="round"></path><path d="M 8.252,20.253h-6 c-0.828,0-1.5-0.672-1.5-1.5v-16.5c0-0.828,0.672-1.5,1.5-1.5h10.629c0.398,0,0.779,0.159,1.06,0.44l2.872,2.871 c0.281,0.281,0.439,0.663,0.439,1.061v1.628 " stroke="#777777" fill="none" stroke-width="1.5" stroke-linecap="round" stroke-linejoin="round"></path><path d="M 7.502,5.253h1.5c0.414,0,0.75,0.336,0.75,0.75v3c0,0.414-0.336,0.75-0.75,0.75h-1.5 c-0.414,0-0.75-0.336-0.75-0.75v-3C6.752,5.589,7.088,5.253,7.502,5.253z " stroke="#777777" fill="none" stroke-width="1.5" stroke-linecap="round" stroke-linejoin="round"></path><path d="M 3.752,5.253v4.5 " stroke="#777777" fill="none" stroke-width="1.5" stroke-linecap="round" stroke-linejoin="round"></path><path d="M 12.752,5.253v4.5 " stroke="#777777" fill="none" stroke-width="1.5" stroke-linecap="round" stroke-linejoin="round"></path><path d="M 4.502,12.753h1.5 c0.414,0,0.75,0.336,0.75,0.75v3c0,0.414-0.336,0.75-0.75,0.75h-1.5c-0.414,0-0.75-0.336-0.75-0.75v-3 C3.752,13.089,4.088,12.753,4.502,12.753z" stroke="#777777" fill="none" stroke-width="1.5" stroke-linecap="round" stroke-linejoin="round"></path></g></svg>