<svg xmlns="http://www.w3.org/2000/svg" version="1.1" xmlns:xlink="http://www.w3.org/1999/xlink" xmlns:svgjs="http://svgjs.com/svgjs" viewBox="0 0 24 24" height="24" width="24"><title>file code search (From Streamline App : https://app.streamlineicons.com)</title><g transform="matrix(1,0,0,1,0,0)"><path d="M 7.5,20.253H2.247c-0.828,0-1.5-0.672-1.5-1.5v-16.5c0-0.828,0.672-1.5,1.5-1.5h10.629 c0.398,0,0.779,0.159,1.06,0.44l2.872,2.871c0.281,0.281,0.439,0.663,0.439,1.061v1.628 " stroke="#EEEEEE" fill="none" stroke-width="1.5" stroke-linecap="round" stroke-linejoin="round"></path><path d="M 7.497,5.253h1.5 c0.414,0,0.75,0.336,0.75,0.75v3c0,0.414-0.336,0.75-0.75,0.75h-1.5c-0.414,0-0.75-0.336-0.75-0.75v-3 C6.747,5.589,7.083,5.253,7.497,5.253z " stroke="#EEEEEE" fill="none" stroke-width="1.5" stroke-linecap="round" stroke-linejoin="round"></path><path d="M 3.747,5.253v4.5 " stroke="#EEEEEE" fill="none" stroke-width="1.5" stroke-linecap="round" stroke-linejoin="round"></path><path d="M 12.747,5.253v3 " stroke="#EEEEEE" fill="none" stroke-width="1.5" stroke-linecap="round" stroke-linejoin="round"></path><path d="M 4.497,12.753h1.5c0.414,0,0.75,0.336,0.75,0.75v3 c0,0.414-0.336,0.75-0.75,0.75h-1.5c-0.414,0-0.75-0.336-0.75-0.75v-3C3.747,13.089,4.083,12.753,4.497,12.753z " stroke="#EEEEEE" fill="none" stroke-width="1.5" stroke-linecap="round" stroke-linejoin="round"></path><path d="M 15.747,10.503 c2.899,0,5.25,2.351,5.25,5.25s-2.351,5.25-5.25,5.25s-5.25-2.351-5.25-5.25S12.848,10.503,15.747,10.503z " stroke="#EEEEEE" fill="none" stroke-width="1.5" stroke-linecap="round" stroke-linejoin="round"></path><path d="M 23.247,23.253 l-3.788-3.787" stroke="#EEEEEE" fill="none" stroke-width="1.5" stroke-linecap="round" stroke-linejoin="round"></path></g></svg>
