<svg xmlns="http://www.w3.org/2000/svg" version="1.1" xmlns:xlink="http://www.w3.org/1999/xlink" xmlns:svgjs="http://svgjs.com/svgjs" viewBox="0 0 24 24" height="24" width="24"><title>file code settings 1 (From Streamline App : https://app.streamlineicons.com)</title><g transform="matrix(1,0,0,1,0,0)"><path d="M 11.542,23.5h-10c-0.552,0-1-0.448-1-1v-21c0-0.552,0.448-1,1-1h13.293c0.266,0.002,0.521,0.11,0.707,0.3 l3.707,3.7c0.188,0.187,0.293,0.442,0.293,0.707V7.5 " stroke="#777777" fill="none" stroke-width="1" stroke-linecap="round" stroke-linejoin="round"></path><path d="M 6.542,7.004l-3,3l3,3 " stroke="#777777" fill="none" stroke-width="1" stroke-linecap="round" stroke-linejoin="round"></path><path d="M 9.542,7.004l3,3l-3,3 " stroke="#777777" fill="none" stroke-width="1" stroke-linecap="round" stroke-linejoin="round"></path><path d="M 17.792,15.598 c0.794,0,1.437,0.643,1.437,1.437s-0.643,1.437-1.437,1.437s-1.437-0.643-1.437-1.437S16.998,15.598,17.792,15.598z " stroke="#777777" fill="none" stroke-width="1" stroke-linecap="round" stroke-linejoin="round"></path><path d="M 19.013,11.474 l0.424,1.392c0.144,0.48,0.636,0.765,1.124,0.653l1.411-0.327c0.691-0.156,1.378,0.278,1.534,0.969 c0.093,0.413-0.024,0.846-0.313,1.157l-0.987,1.064c-0.341,0.369-0.341,0.937,0,1.306l0.987,1.064 c0.483,0.519,0.454,1.33-0.064,1.813c-0.31,0.289-0.743,0.406-1.157,0.313l-1.411-0.327c-0.488-0.112-0.98,0.173-1.124,0.653 L19.013,22.6c-0.203,0.674-0.914,1.057-1.588,0.854c-0.41-0.123-0.731-0.444-0.854-0.854l-0.424-1.4 c-0.145-0.48-0.637-0.765-1.125-0.653l-1.411,0.327c-0.691,0.156-1.378-0.278-1.534-0.969c-0.093-0.413,0.024-0.846,0.313-1.157 l0.987-1.064c0.341-0.369,0.341-0.937,0-1.306l-0.987-1.064c-0.483-0.519-0.454-1.33,0.064-1.813 c0.31-0.289,0.743-0.406,1.157-0.313l1.411,0.327c0.488,0.112,0.98-0.173,1.125-0.653l0.424-1.392 c0.204-0.674,0.916-1.055,1.59-0.851C18.57,10.743,18.89,11.064,19.013,11.474z" stroke="#777777" fill="none" stroke-width="1" stroke-linecap="round" stroke-linejoin="round"></path></g></svg>