<svg xmlns="http://www.w3.org/2000/svg" version="1.1" xmlns:xlink="http://www.w3.org/1999/xlink" xmlns:svgjs="http://svgjs.com/svgjs" viewBox="0 0 24 24" height="24" width="24"><title>file py (From Streamline App : https://app.streamlineicons.com)</title><g transform="matrix(1,0,0,1,0,0)"><path d="M 11.244,23.254h-9c-0.828,0-1.5-0.672-1.5-1.5v-19.5c0-0.828,0.672-1.5,1.5-1.5h10.628 c0.398,0,0.78,0.158,1.061,0.439L19.8,7.064c0.282,0.281,0.44,0.663,0.44,1.061v4.629 " stroke="#777777" fill="none" stroke-width="1.5" stroke-linecap="round" stroke-linejoin="round"></path><path d="M 20.244,8.254h-6c-0.828,0-1.5-0.672-1.5-1.5 v-6 " stroke="#777777" fill="none" stroke-width="1.5" stroke-linecap="round" stroke-linejoin="round"></path><path d="M 20.244,15.754V18c0,0.828,0.672,1.5,1.5,1.5s1.5-0.672,1.5-1.5v-2.25 " stroke="#777777" fill="none" stroke-width="1.5" stroke-linecap="round" stroke-linejoin="round"></path><path d="M 21.744,19.504v3.75 " stroke="#777777" fill="none" stroke-width="1.5" stroke-linecap="round" stroke-linejoin="round"></path><path d="M 14.244,23.254v-7.5 " stroke="#777777" fill="none" stroke-width="1.5" stroke-linecap="round" stroke-linejoin="round"></path><path d="M 14.244,15.754 h0.75c1.243,0,2.25,1.007,2.25,2.25s-1.007,2.25-2.25,2.25h-0.75" stroke="#777777" fill="none" stroke-width="1.5" stroke-linecap="round" stroke-linejoin="round"></path></g></svg>