<svg xmlns="http://www.w3.org/2000/svg" version="1.1" xmlns:xlink="http://www.w3.org/1999/xlink" xmlns:svgjs="http://svgjs.com/svgjs" viewBox="0 0 40 40" width="40" height="40"><title>Exported from Streamline App (https://app.streamlineicons.com)</title><g transform="matrix(1.6666666666666667,0,0,1.6666666666666667,0,0)"><path d="M17.875,11.5V15c0,0.414,0.336,0.75,0.75,0.75s0.75-0.336,0.75-0.75v-3.5c0-0.414-0.336-0.75-0.75-0.75 S17.875,11.086,17.875,11.5z M13.875,8.5V5c0-0.414-0.336-0.75-0.75-0.75s-0.75,0.336-0.75,0.75v3.5c0,0.414,0.336,0.75,0.75,0.75 S13.875,8.914,13.875,8.5z M20.375,8V5.5c-0.001-0.69-0.56-1.249-1.25-1.25h-1.5c-0.69,0.001-1.249,0.56-1.25,1.25V8 c0.001,0.69,0.56,1.249,1.25,1.25h1.5C19.815,9.249,20.374,8.69,20.375,8z M18.875,7.5c0,0.138-0.112,0.25-0.25,0.25h-0.5 c-0.138,0-0.25-0.112-0.25-0.25V6c0-0.138,0.112-0.25,0.25-0.25h0.5c0.138,0,0.25,0.112,0.25,0.25V7.5z M23.539,3l-2.414-2.413 C20.75,0.211,20.241,0,19.71,0H8.125c-1.105,0-2,0.895-2,2v7.8c-0.002,0.131,0.099,0.241,0.23,0.249 c0.348,0.021,1.014,0.071,1.486,0.144c0.135,0.02,0.261-0.072,0.281-0.207c0.002-0.013,0.003-0.026,0.003-0.04V2.5 c0-0.276,0.224-0.5,0.5-0.5H19.5c0.132,0,0.259,0.053,0.353,0.146l2.122,2.121c0.094,0.094,0.146,0.221,0.146,0.354V18 c0,0.276-0.224,0.5-0.5,0.5h-7.4c-0.119,0.001-0.22,0.087-0.238,0.205c-0.085,0.498-0.222,0.985-0.409,1.454 c-0.053,0.124,0.004,0.267,0.128,0.32c0.031,0.013,0.063,0.02,0.097,0.02h8.318c1.105,0,2-0.895,2-2V4.415 C24.119,3.885,23.911,3.377,23.539,3z M12.8,11.56c-0.187-0.077-0.402-0.034-0.545,0.109l-1.3,1.3 c-0.095,0.093-0.248,0.093-0.343,0c-1.108-1.045-2.556-1.655-4.078-1.716c-3.569-0.105-6.547,2.704-6.652,6.273 c0,0.006,0,0.011,0,0.017c-0.039,3.521,2.783,6.407,6.303,6.446c1.96,0.022,3.821-0.859,5.047-2.389 c0.363-0.416,0.32-1.048-0.097-1.411s-1.048-0.32-1.411,0.097c-0.019,0.022-0.037,0.045-0.055,0.068 c-1.504,1.891-4.257,2.205-6.149,0.701s-2.205-4.257-0.701-6.149c0.831-1.045,2.094-1.653,3.43-1.652 c1.081-0.003,2.124,0.397,2.925,1.122c0.101,0.099,0.103,0.262,0.004,0.363c-0.001,0.001-0.002,0.002-0.004,0.004l-1.382,1.383 c-0.195,0.196-0.194,0.512,0.001,0.707c0.094,0.093,0.221,0.146,0.353,0.146H12.6c0.276,0,0.5-0.224,0.5-0.5v-4.457 C13.101,11.822,12.983,11.64,12.8,11.56z" stroke="none" fill="#000000" stroke-width="0" stroke-linecap="round" stroke-linejoin="round"></path></g></svg>