<svg xmlns="http://www.w3.org/2000/svg" version="1.1" xmlns:xlink="http://www.w3.org/1999/xlink" xmlns:svgjs="http://svgjs.com/svgjs" viewBox="0 0 40 40" width="40" height="40"><title>Exported from Streamline App (https://app.streamlineicons.com)</title><g transform="matrix(1.6666666666666667,0,0,1.6666666666666667,0,0)"><path d="M23.609,17.138c0.371-0.355,0.49-0.9,0.3-1.378c-0.195-0.471-0.66-0.773-1.169-0.76h-2.5c-0.1,0-0.19-0.06-0.23-0.151 l-1.344-3.117l-0.013-0.027c-0.328-0.635-1.108-0.884-1.743-0.557c-0.239,0.123-0.434,0.318-0.557,0.557l-0.013,0.027l-1.344,3.117 C14.956,14.94,14.867,15,14.767,15h-2.5c-0.509-0.012-0.974,0.29-1.169,0.761c-0.189,0.478-0.071,1.022,0.3,1.378l2.213,1.972 c0.08,0.072,0.106,0.187,0.063,0.286l-1.224,2.815c-0.223,0.501-0.096,1.088,0.315,1.451c0.411,0.379,1.022,0.447,1.506,0.166 l3.113-1.753c0.076-0.043,0.169-0.043,0.245,0l3.112,1.753c0.484,0.281,1.095,0.214,1.506-0.166c0.41-0.363,0.538-0.95,0.316-1.451 L21.334,19.4c-0.043-0.099-0.018-0.214,0.063-0.286L23.609,17.138z M2.5,2h4.573C7.262,2,7.435,2.107,7.52,2.276L8.33,3.9 C8.67,4.575,9.362,5.001,10.118,5H19c0.276,0,0.5,0.224,0.5,0.5v3.947c0.002,0.146,0.067,0.283,0.179,0.377 c0.313,0.274,0.57,0.605,0.759,0.976c0.007,0.015,0.28,0.578,0.546,1.13c0.09,0.129,0.268,0.16,0.397,0.07 c0.087-0.061,0.133-0.165,0.119-0.27V5c0-1.105-0.895-2-2-2h-9.073c-0.189,0-0.362-0.107-0.447-0.276L9.17,1.105 C8.831,0.428,8.139,0,7.382,0H2C0.895,0,0,0.895,0,2v14.5c0,1.105,0.895,2,2,2h7.429c0.136,0.002,0.249-0.106,0.251-0.243 c0.001-0.049-0.013-0.098-0.04-0.139c-0.301-0.418-0.502-0.9-0.588-1.408c-0.016-0.12-0.119-0.21-0.24-0.21H2.5 C2.224,16.5,2,16.276,2,16V2.5C2,2.224,2.224,2,2.5,2z" stroke="none" fill="#222222" stroke-width="0" stroke-linecap="round" stroke-linejoin="round"></path></g></svg>