<svg xmlns="http://www.w3.org/2000/svg" version="1.1" xmlns:xlink="http://www.w3.org/1999/xlink" xmlns:svgjs="http://svgjs.com/svgjs" viewBox="0 0 40 40" width="40" height="40"><title>Exported from Streamline App (https://app.streamlineicons.com)</title><g transform="matrix(1.6666666666666667,0,0,1.6666666666666667,0,0)"><path d="M12.643,11.341c-0.933,0.006-1.684,0.767-1.678,1.7c0.006,0.933,0.767,1.684,1.7,1.678c0.928-0.006,1.678-0.76,1.678-1.689 C14.337,12.095,13.578,11.341,12.643,11.341z M16.53,2.178c-0.134-0.052-0.239-0.158-0.289-0.293C15.82,0.753,14.74,0.001,13.532,0 h-1.778C10.496,0.001,9.382,0.814,9,2.013C8.955,2.154,8.851,2.268,8.714,2.324C5.612,3.443,3.48,6.308,3.3,9.6 c-0.011,0.29-0.084,0.573-0.215,0.832c-0.147,0.289-0.347,0.638-0.512,0.928c-0.7,1.235-1.5,2.633-1.423,3.75v0.137 c-0.018,0.261,0.048,0.521,0.189,0.742c0.224,0.313,0.58,0.506,0.965,0.521c0.173,0.007,0.364,0.01,0.551,0.01 c0.276,0,0.5,0.224,0.5,0.5V19c0,1.381,1.119,2.5,2.5,2.5h1.5c0.276,0,0.5,0.224,0.5,0.5v1.5c0,0.276,0.224,0.5,0.5,0.5h10 c0.276,0,0.5-0.224,0.5-0.5v-3.708c0-0.166,0.082-0.322,0.22-0.415c2.509-1.69,3.78-4.314,3.78-7.814 C22.908,7.423,20.387,3.683,16.53,2.178z M12.978,16.987c-0.205,0.017-0.401,0.097-0.559,0.229c-1.108,0.956-2.402,1.671-3.8,2.1 c-0.106,0.03-0.199,0.093-0.265,0.181c-0.236,0.315-0.607,0.5-1,0.5h-0.5c-0.69,0-1.25-0.56-1.25-1.25s0.56-1.25,1.25-1.25h0.5 c0.252,0,0.499,0.076,0.706,0.22c0.129,0.089,0.292,0.112,0.441,0.063c0.706-0.241,1.376-0.574,1.995-0.99 c0.116-0.075,0.148-0.23,0.073-0.346c-0.019-0.029-0.044-0.054-0.073-0.073c-1.842-1.158-2.398-3.59-1.24-5.432 c0.342-0.545,0.813-0.998,1.371-1.319c0.153-0.09,0.247-0.254,0.247-0.431V2.883c0.002-0.486,0.394-0.88,0.88-0.883h1.778 c0.489-0.002,0.887,0.393,0.889,0.882v6.31c0,0.178,0.095,0.342,0.248,0.431c1.89,1.092,2.536,3.51,1.444,5.399 C15.457,16.156,14.284,16.891,12.978,16.987L12.978,16.987z" stroke="none" fill="#000000" stroke-width="0" stroke-linecap="round" stroke-linejoin="round"></path></g></svg>