<svg xmlns="http://www.w3.org/2000/svg" version="1.1" xmlns:xlink="http://www.w3.org/1999/xlink" xmlns:svgjs="http://svgjs.com/svgjs" viewBox="0 0 24 24" height="24" width="24"><title>hierarchy 3 (From Streamline App : https://app.streamlineicons.com)</title><g transform="matrix(1,0,0,1,0,0)"><path d="M 1.5,18.748h12c0.414,0,0.75,0.336,0.75,0.75v3c0,0.414-0.336,0.75-0.75,0.75h-12 c-0.414,0-0.75-0.336-0.75-0.75v-3C0.75,19.084,1.086,18.748,1.5,18.748z " stroke="#777777" fill="none" stroke-width="1.5" stroke-linecap="round" stroke-linejoin="round"></path><path d="M 10.5,11.248h12c0.414,0,0.75,0.336,0.75,0.75v3 c0,0.414-0.336,0.75-0.75,0.75h-12c-0.414,0-0.75-0.336-0.75-0.75v-3C9.75,11.584,10.086,11.248,10.5,11.248z " stroke="#777777" fill="none" stroke-width="1.5" stroke-linecap="round" stroke-linejoin="round"></path><path d="M 1.5,0.748h12 c0.414,0,0.75,0.336,0.75,0.75v3c0,0.414-0.336,0.75-0.75,0.75h-12c-0.414,0-0.75-0.336-0.75-0.75v-3 C0.75,1.084,1.086,0.748,1.5,0.748z " stroke="#777777" fill="none" stroke-width="1.5" stroke-linecap="round" stroke-linejoin="round"></path><path d="M 6.75,5.248v1.5c0,0.828,0.672,1.5,1.5,1.5h4.5c0.828,0,1.5,0.672,1.5,1.5v1.5 " stroke="#777777" fill="none" stroke-width="1.5" stroke-linecap="round" stroke-linejoin="round"></path><path d="M 18.75,15.748 v4.5c0,0.828-0.672,1.5-1.5,1.5h-3" stroke="#777777" fill="none" stroke-width="1.5" stroke-linecap="round" stroke-linejoin="round"></path></g></svg>