<svg xmlns="http://www.w3.org/2000/svg" version="1.1" xmlns:xlink="http://www.w3.org/1999/xlink" xmlns:svgjs="http://svgjs.com/svgjs" viewBox="0 0 40 40" width="40" height="40"><title>Exported from Streamline App (https://app.streamlineicons.com)</title><g transform="matrix(1.6666666666666667,0,0,1.6666666666666667,0,0)"><path d="M22.5,12.5h-3.251c-0.138,0-0.25-0.112-0.25-0.25V10c0-1.381-1.119-2.5-2.5-2.5h-8C8.223,7.499,8,7.276,8,7V4.249 C8.001,4.112,8.112,4.001,8.249,4H12c0.828,0,1.5-0.672,1.5-1.5v-1C13.5,0.672,12.828,0,12,0H1.5C0.672,0,0,0.672,0,1.5v1 C0,3.328,0.672,4,1.5,4h4.249c0.138,0,0.25,0.112,0.25,0.25V7c0,1.381,1.119,2.5,2.5,2.5c0,0,0.001,0,0.001,0h8 c0.276,0,0.5,0.224,0.5,0.5v2.25c0,0.138-0.112,0.25-0.25,0.25H12c-0.828,0-1.5,0.672-1.5,1.5v1c0,0.828,0.672,1.5,1.5,1.5h4.75 c0.138,0,0.25,0.112,0.25,0.25v3c0,0.138-0.112,0.25-0.25,0.25H12c-0.828,0-1.5,0.672-1.5,1.5v1c0,0.828,0.672,1.5,1.5,1.5h10.5 c0.828,0,1.5-0.672,1.5-1.5v-1c0-0.828-0.672-1.5-1.5-1.5h-3.251c-0.138,0-0.25-0.112-0.25-0.25v-3c0-0.138,0.112-0.25,0.25-0.25 H22.5c0.828,0,1.5-0.672,1.5-1.5v-1C24,13.172,23.328,12.5,22.5,12.5z" stroke="none" fill="#000000" stroke-width="0" stroke-linecap="round" stroke-linejoin="round"></path></g></svg>