<svg xmlns="http://www.w3.org/2000/svg" version="1.1" xmlns:xlink="http://www.w3.org/1999/xlink" xmlns:svgjs="http://svgjs.com/svgjs" viewBox="0 0 24 24" height="24" width="24"><title>hierarchy 10 (From Streamline App : https://app.streamlineicons.com)</title><g transform="matrix(1,0,0,1,0,0)"><path d="M 3.75,0.748c1.657,0,3,1.343,3,3s-1.343,3-3,3s-3-1.343-3-3S2.093,0.748,3.75,0.748z " stroke="#eeeeee" fill="none" stroke-width="1.5" stroke-linecap="round" stroke-linejoin="round"></path><path d="M 3.75,11.998 c1.657,0,3,1.343,3,3s-1.343,3-3,3s-3-1.343-3-3S2.093,11.998,3.75,11.998z " stroke="#eeeeee" fill="none" stroke-width="1.5" stroke-linecap="round" stroke-linejoin="round"></path><path d="M 20.25,5.998c1.657,0,3,1.343,3,3s-1.343,3-3,3 s-3-1.343-3-3S18.593,5.998,20.25,5.998z " stroke="#eeeeee" fill="none" stroke-width="1.5" stroke-linecap="round" stroke-linejoin="round"></path><path d="M 20.25,17.248c1.657,0,3,1.343,3,3s-1.343,3-3,3s-3-1.343-3-3S18.593,17.248,20.25,17.248 z " stroke="#eeeeee" fill="none" stroke-width="1.5" stroke-linecap="round" stroke-linejoin="round"></path><path d="M 6.62,4.661l10.761,3.424 " stroke="#eeeeee" fill="none" stroke-width="1.5" stroke-linecap="round" stroke-linejoin="round"></path><path d="M 6.434,16.341l10.852,3.453 " stroke="#eeeeee" fill="none" stroke-width="1.5" stroke-linecap="round" stroke-linejoin="round"></path><path d="M 6.371,13.537l11.194-3.199" stroke="#eeeeee" fill="none" stroke-width="1.5" stroke-linecap="round" stroke-linejoin="round"></path></g></svg>