<svg xmlns="http://www.w3.org/2000/svg" version="1.1" xmlns:xlink="http://www.w3.org/1999/xlink" xmlns:svgjs="http://svgjs.com/svgjs" viewBox="0 0 40 40" width="40" height="40"><title>Exported from Streamline App (https://app.streamlineicons.com)</title><g transform="matrix(1.6666666666666667,0,0,1.6666666666666667,0,0)"><path d="M22.253,9.761L20.988,9.31c-0.978-0.351-1.487-1.428-1.137-2.407c0.021-0.059,0.045-0.116,0.072-0.172L20.5,5.515 c0.447-0.936,0.051-2.057-0.885-2.504C19.104,2.767,18.511,2.766,18,3.009l-1.213,0.578c-0.934,0.444-2.052,0.048-2.496-0.887 c-0.028-0.059-0.053-0.12-0.075-0.181l-0.45-1.269c-0.345-0.976-1.415-1.488-2.391-1.143c-0.534,0.189-0.954,0.609-1.143,1.143 l-0.45,1.269c-0.344,0.975-1.414,1.487-2.39,1.142C7.331,3.64,7.271,3.615,7.212,3.587L6,3.009C5.063,2.564,3.943,2.963,3.498,3.9 C3.255,4.411,3.256,5.004,3.5,5.515l0.576,1.216C4.522,7.67,4.123,8.792,3.184,9.239C3.128,9.265,3.07,9.289,3.012,9.31 L1.747,9.761c-0.973,0.345-1.483,1.414-1.138,2.387c0.188,0.531,0.606,0.949,1.138,1.138l1.265,0.451 c0.979,0.351,1.488,1.429,1.136,2.408c-0.021,0.058-0.045,0.116-0.071,0.172L3.5,17.533c-0.447,0.936-0.051,2.057,0.885,2.504 C4.896,20.281,5.489,20.282,6,20.039l1.213-0.579h0.511c0.341,0.667,1.027,1.088,1.776,1.09h0.75 c0.138-0.001,0.249,0.11,0.25,0.248c0,0.001,0,0.001,0,0.002v1.7c0,0.828,0.672,1.5,1.5,1.5s1.5-0.672,1.5-1.5v-1.7 c0-0.138,0.112-0.25,0.25-0.25h0.75c0.751-0.001,1.438-0.422,1.779-1.09h0.508L18,20.039c0.937,0.445,2.057,0.046,2.502-0.891 c0.243-0.511,0.242-1.104-0.002-1.615l-0.576-1.216c-0.446-0.939-0.046-2.063,0.893-2.509c0.056-0.027,0.113-0.05,0.172-0.071 l1.265-0.451c0.973-0.345,1.483-1.414,1.138-2.387C23.203,10.367,22.785,9.949,22.253,9.761L22.253,9.761z M14.5,15.892v2.152 c0,0.276-0.224,0.5-0.5,0.5h-4c-0.276,0-0.5-0.224-0.5-0.5v-2.152c0.003-0.2-0.116-0.382-0.3-0.459 C7.222,14.657,5.942,12.724,6,10.6C6.117,7.4,8.799,4.897,12,5c3.201-0.103,5.883,2.4,6,5.6c0.057,2.123-1.222,4.055-3.2,4.83 C14.615,15.508,14.496,15.691,14.5,15.892z" stroke="none" fill="#222222" stroke-width="0" stroke-linecap="round" stroke-linejoin="round"></path></g></svg>