<svg xmlns="http://www.w3.org/2000/svg" version="1.1" xmlns:xlink="http://www.w3.org/1999/xlink" xmlns:svgjs="http://svgjs.com/svgjs" viewBox="0 0 24 24" height="24" width="24"><title>legal scale document (From Streamline App : https://app.streamlineicons.com)</title><g transform="matrix(1,0,0,1,0,0)"><path d="M 6.75,9.75h15 " stroke="#eeeeee" fill="none" stroke-width="1.5" stroke-linecap="round" stroke-linejoin="round"></path><path d="M 14.25,8.25v12 " stroke="#eeeeee" fill="none" stroke-width="1.5" stroke-linecap="round" stroke-linejoin="round"></path><path d="M 11.25,23.25c0-1.657,1.343-3,3-3s3,1.343,3,3H11.25z " stroke="#eeeeee" fill="none" stroke-width="1.5" stroke-linecap="round" stroke-linejoin="round"></path><path d="M 5.25,15.75l3-6l3,6 " stroke="#eeeeee" fill="none" stroke-width="1.5" stroke-linecap="round" stroke-linejoin="round"></path><path d="M 17.25,15.75l3-6l3,6 " stroke="#eeeeee" fill="none" stroke-width="1.5" stroke-linecap="round" stroke-linejoin="round"></path><path d="M 11.25,15.75c0,1.657-1.343,3-3,3s-3-1.343-3-3l0,0H11.25z " stroke="#eeeeee" fill="none" stroke-width="1.5" stroke-linecap="round" stroke-linejoin="round"></path><path d="M 23.25,15.75c0,1.657-1.343,3-3,3s-3-1.343-3-3 l0,0H23.25z " stroke="#eeeeee" fill="none" stroke-width="1.5" stroke-linecap="round" stroke-linejoin="round"></path><path d="M 6.75,21.75h-4.5c-0.828,0-1.5-0.672-1.5-1.5v-18c0-0.828,0.672-1.5,1.5-1.5h10.189c0.199,0,0.39,0.079,0.531,0.22 l4.06,4.06c0.141,0.141,0.22,0.332,0.22,0.531V6.75" stroke="#eeeeee" fill="none" stroke-width="1.5" stroke-linecap="round" stroke-linejoin="round"></path></g></svg>