<svg xmlns="http://www.w3.org/2000/svg" version="1.1" xmlns:xlink="http://www.w3.org/1999/xlink" xmlns:svgjs="http://svgjs.com/svgjs" viewBox="0 0 40 40" width="40" height="40"><title>Exported from Streamline App (https://app.streamlineicons.com)</title><g transform="matrix(1.6666666666666667,0,0,1.6666666666666667,0,0)"><path d="M22.136,5.238C22.005,3.964,20.93,2.997,19.649,3h-1.073c-0.138,0-0.25,0.111-0.251,0.249c0,0.019,0.002,0.039,0.007,0.058 C18.443,3.78,18.499,4.264,18.5,4.75C18.499,4.888,18.61,4.999,18.748,5c0.001,0,0.001,0,0.002,0h0.9 c0.257-0.001,0.473,0.192,0.5,0.447l0.315,3c0.029,0.275-0.171,0.521-0.445,0.549c-0.018,0.002-0.036,0.003-0.055,0.003h-2.74 c-0.088,0-0.17,0.046-0.215,0.122c-0.692,1.131-1.479,2.202-2.352,3.2c-0.043,0.049-0.064,0.114-0.06,0.179l0.181,2.97 c0.017,0.276-0.192,0.513-0.468,0.53c-0.011,0.001-0.021,0.001-0.032,0.001H9.72c-0.276,0.001-0.5-0.223-0.501-0.499 c0-0.011,0-0.021,0.001-0.032L9.4,12.5c0.004-0.065-0.018-0.13-0.061-0.179c-0.873-0.998-1.66-2.069-2.352-3.2 C6.942,9.047,6.862,9.001,6.775,9h-2.74C3.759,9.001,3.534,8.779,3.532,8.503c0-0.018,0.001-0.037,0.003-0.055l0.316-3 C3.878,5.193,4.093,4.999,4.35,5h0.9C5.388,5,5.5,4.888,5.5,4.75c0.001-0.486,0.057-0.97,0.168-1.443 c0.031-0.135-0.054-0.27-0.189-0.301C5.461,3.002,5.443,3,5.424,3H4.35C3.071,3,1.998,3.966,1.864,5.238l-1.684,16 c-0.145,1.373,0.851,2.604,2.224,2.748C2.491,23.995,2.579,24,2.666,24h18.668c1.381,0,2.5-1.12,2.5-2.5 c0-0.087-0.005-0.175-0.014-0.262L22.136,5.238z M6.848,21.531c-0.016,0.264-0.236,0.47-0.5,0.469H2.666 c-0.276,0.002-0.501-0.221-0.503-0.497c0-0.019,0.001-0.037,0.003-0.056l0.316-3c0.027-0.256,0.243-0.449,0.5-0.448h3.55 c0.276-0.001,0.5,0.223,0.501,0.499c0,0.011,0,0.021-0.001,0.032L6.848,21.531z M7.214,15.531c-0.016,0.264-0.236,0.47-0.5,0.469 H3.3c-0.276,0.001-0.501-0.221-0.503-0.497c0-0.018,0.001-0.037,0.003-0.055l0.421-4c0.027-0.256,0.243-0.449,0.5-0.448h3.24 c0.276-0.001,0.5,0.223,0.501,0.499c0,0.011,0,0.021-0.001,0.032L7.214,15.531z M15.014,21.843C14.919,21.943,14.788,22,14.65,22 H9.354c-0.276,0.001-0.5-0.223-0.501-0.499c0-0.011,0-0.021,0.001-0.032l0.183-3c0.016-0.264,0.236-0.47,0.5-0.469h4.926 c0.264-0.001,0.484,0.205,0.5,0.469l0.183,3c0.008,0.138-0.041,0.274-0.136,0.374H15.014z M16.79,15.531l-0.244-4 c-0.017-0.276,0.192-0.513,0.468-0.53C17.025,11,17.035,11,17.046,11h3.24c0.257-0.001,0.473,0.192,0.5,0.448l0.421,4 c0.029,0.275-0.171,0.521-0.445,0.549C20.744,15.999,20.725,16,20.707,16h-3.422c-0.264,0-0.483-0.205-0.499-0.469H16.79z M21.711,21.831c-0.096,0.105-0.231,0.166-0.373,0.166h-3.687c-0.264,0.001-0.484-0.205-0.5-0.469l-0.183-3 c-0.017-0.276,0.192-0.513,0.468-0.53c0.011-0.001,0.021-0.001,0.032-0.001h3.55c0.257-0.001,0.473,0.192,0.5,0.448l0.316,3 c0.015,0.142-0.031,0.283-0.127,0.389L21.711,21.831z M12,13c0.133,0,0.26-0.052,0.354-0.146C12.543,12.664,17,8.171,17,5 c0-2.761-2.239-5-5-5S7,2.239,7,5c0,3.171,4.457,7.664,4.647,7.854C11.741,12.947,11.868,13,12,13z M10.25,5 c0-0.966,0.784-1.75,1.75-1.75S13.75,4.034,13.75,5S12.966,6.75,12,6.75C11.034,6.749,10.251,5.966,10.25,5z" stroke="none" fill="#000000" stroke-width="0" stroke-linecap="round" stroke-linejoin="round"></path></g></svg>