<svg xmlns="http://www.w3.org/2000/svg" version="1.1" xmlns:xlink="http://www.w3.org/1999/xlink" xmlns:svgjs="http://svgjs.com/svgjs" viewBox="0 0 40 40" width="40" height="40"><title>Exported from Streamline App (https://app.streamlineicons.com)</title><g transform="matrix(1.6666666666666667,0,0,1.6666666666666667,0,0)"><path d="M6.254,9c0.552,0,1-0.448,1-1c0-0.552,0.448-1,1.001-0.999c0.552,0,0.999,0.448,0.999,0.999c0,0.552,0.448,1,1,1 s1-0.448,1-1c0-1.657-1.343-3-3-3s-3,1.343-3,3C5.254,8.552,5.702,9,6.254,9L6.254,9z M13.754,9c0.552,0,1-0.448,1-1s0.448-1,1-1 c0.552,0,1,0.448,1,1s0.448,1,1,1s1-0.448,1-1c0-1.657-1.343-3-3-3s-3,1.343-3,3C12.754,8.552,13.202,9,13.754,9z M8.293,11.805 c-0.39,0.391-0.39,1.023,0,1.414c2.048,2.046,5.366,2.046,7.414,0c0.384-0.397,0.373-1.03-0.025-1.414 c-0.388-0.374-1.002-0.374-1.389,0c-1.284,1.224-3.302,1.224-4.586,0C9.317,11.415,8.684,11.415,8.293,11.805z M22,1H2 C0.895,1,0,1.895,0,3v13.552c0.002,1.079,0.879,1.951,1.957,1.949c0.014,0,0.028,0,0.043-0.001h2.5V22c0,0.552,0.448,1,1,1 c0.203,0,0.402-0.062,0.569-0.178l6.243-4.322H22c1.105,0,2-0.895,2-2V3C24,1.895,23.105,1,22,1z M22,16.25 c0,0.138-0.112,0.25-0.25,0.25H12c-0.203,0-0.402,0.062-0.569,0.178L6.5,20.09V17.5c0-0.552-0.448-1-1-1H2.25 C2.112,16.5,2,16.388,2,16.25v-13C2,3.112,2.112,3,2.25,3h19.5C21.888,3,22,3.112,22,3.25V16.25z" stroke="none" fill="#222222" stroke-width="0" stroke-linecap="round" stroke-linejoin="round"></path></g></svg>