<svg xmlns="http://www.w3.org/2000/svg" version="1.1" xmlns:xlink="http://www.w3.org/1999/xlink" xmlns:svgjs="http://svgjs.com/svgjs" viewBox="0 0 40 40" width="40" height="40"><title>Exported from Streamline App (https://app.streamlineicons.com)</title><g transform="matrix(1.6666666666666667,0,0,1.6666666666666667,0,0)"><path d="M12.5,12.499c0.552,0,1,0.448,1,1s-0.448,1-1,1s-1-0.448-1-1S11.948,12.499,12.5,12.499z M10.5,8.5c0.552,0,1-0.448,1-1 c0.001-0.552,0.449-0.999,1.001-0.999c0.552,0.001,0.999,0.449,0.999,1.001c-0.001,0.397-0.236,0.756-0.6,0.915 c-0.851,0.371-1.4,1.211-1.4,2.139V11c0,0.552,0.448,1,1,1s1-0.448,1-1v-0.443c0-0.133,0.078-0.253,0.2-0.307 c1.519-0.663,2.212-2.431,1.55-3.95s-2.431-2.212-3.95-1.55C10.207,5.228,9.5,6.307,9.5,7.5C9.5,8.052,9.948,8.5,10.5,8.5z M22,1H2 C0.895,1,0,1.895,0,3v13.552c0.002,1.079,0.879,1.951,1.957,1.949c0.014,0,0.028,0,0.043-0.001h2.5V22c0,0.552,0.447,1,0.999,1.001 c0.204,0,0.402-0.062,0.57-0.178l6.243-4.323H22c1.105,0,2-0.895,2-2V3C24,1.895,23.105,1,22,1z M22,16.25 c0,0.138-0.112,0.25-0.25,0.25H12c-0.203,0-0.402,0.062-0.569,0.178L6.5,20.091V17.5c0-0.552-0.448-1-1-1H2.25 C2.112,16.5,2,16.388,2,16.25v-13C2,3.112,2.112,3,2.25,3h19.5C21.888,3,22,3.112,22,3.25V16.25z" stroke="none" fill="#222222" stroke-width="0" stroke-linecap="round" stroke-linejoin="round"></path></g></svg>