<svg xmlns="http://www.w3.org/2000/svg" version="1.1" xmlns:xlink="http://www.w3.org/1999/xlink" xmlns:svgjs="http://svgjs.com/svgjs" viewBox="0 0 40 40" width="40" height="40"><title>Exported from Streamline App (https://app.streamlineicons.com)</title><g transform="matrix(1.6666666666666667,0,0,1.6666666666666667,0,0)"><path d="M23.408,19.09l-3.661-3.66c-0.081-0.082-0.096-0.208-0.037-0.306C20.555,13.73,21.001,12.13,21,10.5 c-0.002-4.971-4.034-8.998-9.004-8.996C8.049,1.506,4.564,4.079,3.4,7.851C3.318,8.115,3.465,8.395,3.728,8.477 C3.774,8.492,3.822,8.499,3.87,8.5h1.055C5.138,8.501,5.329,8.367,5.4,8.166c1.284-3.654,5.288-5.575,8.942-4.29 s5.575,5.288,4.29,8.942c-1.284,3.654-5.288,5.575-8.942,4.29c-1.836-0.645-3.321-2.025-4.1-3.808C5.51,13.118,5.33,13,5.131,13 H4.05c-0.276,0-0.5,0.223-0.5,0.5c0,0.061,0.011,0.121,0.032,0.177C4.906,17.178,8.257,19.496,12,19.5 c1.627,0.003,3.223-0.442,4.614-1.287c0.099-0.059,0.225-0.044,0.307,0.037l3.67,3.67c0.743,0.817,2.008,0.877,2.825,0.134 c0.817-0.743,0.877-2.008,0.134-2.825c-0.044-0.049-0.091-0.095-0.139-0.139H23.408z M8.162,10.909l0.623-1.167 C8.85,9.62,9.002,9.574,9.123,9.64c0.06,0.032,0.104,0.087,0.123,0.152l0.994,3.548c0.166,0.633,0.709,1.096,1.36,1.16 c0.045,0.005,0.091,0.007,0.136,0.006c0.613-0.007,1.166-0.369,1.416-0.928l1.206-2.649c0.057-0.126,0.206-0.181,0.331-0.124 c0.046,0.021,0.084,0.055,0.11,0.098l0.591,0.974c0.287,0.472,0.902,0.623,1.374,0.336c0.472-0.287,0.623-0.902,0.336-1.374l0,0 L15.82,8.73c-0.432-0.731-1.375-0.974-2.106-0.543c-0.28,0.165-0.501,0.415-0.63,0.714l-0.962,2.114 c-0.044,0.095-0.142,0.153-0.247,0.145c-0.105-0.008-0.193-0.081-0.221-0.182l-0.949-3.386c-0.164-0.614-0.681-1.069-1.311-1.154 C8.751,6.358,8.127,6.69,7.835,7.269L6.512,9.751H1c-0.552,0-1,0.448-1,1s0.448,1,1,1h5.79C7.368,11.748,7.897,11.423,8.162,10.909 z" stroke="none" fill="#000000" stroke-width="0" stroke-linecap="round" stroke-linejoin="round"></path></g></svg>