<svg xmlns="http://www.w3.org/2000/svg" version="1.1" xmlns:xlink="http://www.w3.org/1999/xlink" xmlns:svgjs="http://svgjs.com/svgjs" viewBox="0 0 40 40" width="40" height="40"><title>Exported from Streamline App (https://app.streamlineicons.com)</title><g transform="matrix(1.6666666666666667,0,0,1.6666666666666667,0,0)"><path d="M3.5,18.405c1.215,0,2.2-0.985,2.2-2.2s-0.985-2.2-2.2-2.2s-2.2,0.985-2.2,2.2S2.285,18.405,3.5,18.405 C3.5,18.405,3.5,18.405,3.5,18.405z M3.5,19.2c-1.551,0.001-2.926,0.997-3.41,2.47c-0.045,0.13,0.024,0.272,0.154,0.316 C0.271,21.996,0.299,22,0.327,22h6.346c0.079,0,0.153-0.037,0.2-0.1c0.047-0.065,0.06-0.149,0.034-0.225 C6.425,20.201,5.051,19.203,3.5,19.2z M18.3,16.206c0,1.215,0.985,2.2,2.2,2.2c1.215,0,2.2-0.985,2.2-2.2s-0.985-2.2-2.2-2.2 S18.3,14.991,18.3,16.206L18.3,16.206z M20.5,19.2c-1.551,0.001-2.926,0.997-3.41,2.47c-0.044,0.13,0.027,0.272,0.157,0.315 c0.026,0.009,0.053,0.013,0.08,0.013h6.346c0.079,0,0.153-0.037,0.2-0.1c0.047-0.065,0.06-0.149,0.034-0.225 C23.424,20.2,22.05,19.203,20.5,19.2z M12,16.002c1.214,0,2.199,0.985,2.199,2.199S13.214,20.4,12,20.4s-2.199-0.985-2.199-2.199 S10.786,16.002,12,16.002z M12,21.2c-1.55,0.001-2.925,0.996-3.41,2.469c-0.044,0.131,0.027,0.274,0.158,0.318 C8.773,23.995,8.8,24,8.827,24h6.346c0.139-0.001,0.25-0.114,0.249-0.253c0-0.026-0.004-0.052-0.012-0.076 C14.926,22.198,13.551,21.201,12,21.2z M12.381,15.426c0.375-0.155,0.62-0.52,0.619-0.926v-2.25c0-0.138,0.112-0.25,0.25-0.25h6.25 c1.105,0,2-0.895,2-2V2c0-1.105-0.895-2-2-2h-13c-1.105,0-2,0.895-2,2v8c0,1.105,0.895,2,2,2h1.481c0.066,0,0.13,0.027,0.176,0.074 l3.134,3.133C11.577,15.494,12.007,15.58,12.381,15.426z M12,10c-0.552,0-1,0.448-1,1v0.483c0,0.138-0.112,0.25-0.251,0.249 c-0.066,0-0.129-0.026-0.175-0.072L9.205,10.3C9.019,10.11,8.766,10.002,8.5,10H6.748c-0.138,0.001-0.249-0.11-0.25-0.248 c0-0.001,0-0.001,0-0.002v-7.5C6.498,2.112,6.61,2,6.748,2h12.5c0.138,0,0.25,0.112,0.25,0.25v7.5 c0.001,0.138-0.11,0.249-0.248,0.25c-0.001,0-0.001,0-0.002,0H12z M16.247,7.5c0-0.414-0.336-0.75-0.75-0.75h-7 c-0.414,0-0.75,0.336-0.75,0.75s0.336,0.75,0.75,0.75h7C15.911,8.25,16.247,7.914,16.247,7.5z M7.747,4.5 c0,0.414,0.336,0.75,0.75,0.75h9c0.414,0,0.75-0.336,0.75-0.75s-0.336-0.75-0.75-0.75h-9C8.083,3.75,7.747,4.086,7.747,4.5z" stroke="none" fill="#000000" stroke-width="0" stroke-linecap="round" stroke-linejoin="round"></path></g></svg>