<svg xmlns="http://www.w3.org/2000/svg" version="1.1" xmlns:xlink="http://www.w3.org/1999/xlink" xmlns:svgjs="http://svgjs.com/svgjs" viewBox="0 0 24 24" height="24" width="24"><title>notes check (From Streamline App : https://app.streamlineicons.com)</title><g transform="matrix(1,0,0,1,0,0)"><path d="M 17.25,11.25c3.314,0,6,2.686,6,6s-2.686,6-6,6s-6-2.686-6-6S13.936,11.25,17.25,11.25z " stroke="#eeeeee" fill="none" stroke-width="1.5" stroke-linecap="round" stroke-linejoin="round"></path><path d="M 19.924,15.506 l-2.905,3.873c-0.25,0.332-0.721,0.398-1.053,0.149c-0.027-0.021-0.054-0.043-0.078-0.068l-1.5-1.5 " stroke="#eeeeee" fill="none" stroke-width="1.5" stroke-linecap="round" stroke-linejoin="round"></path><path d="M 8.25,20.25h-6 c-0.808,0.02-1.48-0.619-1.5-1.427c-0.001-0.024-0.001-0.049,0-0.073V3.857C0.722,3,1.393,2.281,2.25,2.25h15 c0.857,0.031,1.528,0.75,1.5,1.607V8.25 " stroke="#eeeeee" fill="none" stroke-width="1.5" stroke-linecap="round" stroke-linejoin="round"></path><path d="M 5.25,0.75v4.5 " stroke="#eeeeee" fill="none" stroke-width="1.5" stroke-linecap="round" stroke-linejoin="round"></path><path d="M 9.75,0.75v4.5 " stroke="#eeeeee" fill="none" stroke-width="1.5" stroke-linecap="round" stroke-linejoin="round"></path><path d="M 14.25,0.75v4.5" stroke="#eeeeee" fill="none" stroke-width="1.5" stroke-linecap="round" stroke-linejoin="round"></path></g></svg>