<svg xmlns="http://www.w3.org/2000/svg" version="1.1" xmlns:xlink="http://www.w3.org/1999/xlink" xmlns:svgjs="http://svgjs.com/svgjs" viewBox="0 0 24 24" height="24" width="24"><title>photography equipment battery (From Streamline App : https://app.streamlineicons.com)</title><g transform="matrix(1,0,0,1,0,0)"><path d="M 13.5,3.75V3 " stroke="#EEEEEE" fill="none" stroke-width="1.5" stroke-linecap="round" stroke-linejoin="round"></path><path d="M 15.75,3.75V3 " stroke="#EEEEEE" fill="none" stroke-width="1.5" stroke-linecap="round" stroke-linejoin="round"></path><path d="M 18.75,4.5V2.25c0-0.828-0.672-1.5-1.5-1.5H12c-0.828,0-1.5,0.672-1.5,1.5V4.5h-6 C3.672,4.5,3,5.172,3,6v15.75c0,0.828,0.672,1.5,1.5,1.5h15c0.828,0,1.5-0.672,1.5-1.5V6c0-0.828-0.672-1.5-1.5-1.5H18.75z " stroke="#EEEEEE" fill="none" stroke-width="1.5" stroke-linecap="round" stroke-linejoin="round"></path><path d="M 13.5,9 l-5.14,5.36c-0.146,0.147-0.146,0.384,0,0.53C8.431,14.96,8.526,15,8.625,15h2.625v4.5l4.83-5.36c0.146-0.147,0.146-0.384,0-0.53 c-0.07-0.07-0.166-0.11-0.266-0.11H13.5V9z" stroke="#EEEEEE" fill="none" stroke-width="1.5" stroke-linecap="round" stroke-linejoin="round"></path></g></svg>