<svg xmlns="http://www.w3.org/2000/svg" version="1.1" xmlns:xlink="http://www.w3.org/1999/xlink" xmlns:svgjs="http://svgjs.com/svgjs" viewBox="0 0 40 40" width="40" height="40"><title>Exported from Streamline App (https://app.streamlineicons.com)</title><g transform="matrix(1.6666666666666667,0,0,1.6666666666666667,0,0)"><path d="M6.088,6.323l3.9,1.614c0.125,0.053,0.266,0.053,0.391,0l4.152-1.807c0.127-0.054,0.186-0.201,0.132-0.328 c-0.025-0.059-0.073-0.107-0.132-0.132L9.243,3.485c-0.245-0.101-0.521-0.101-0.766,0L6.089,4.476 c-0.51,0.212-0.752,0.797-0.54,1.307c0.101,0.244,0.296,0.438,0.54,0.54H6.088z M23.587,6.052c-0.529-1.275-1.991-1.88-3.266-1.352 h-0.008L7.074,10.462c-0.136,0.059-0.291,0.054-0.423-0.012L4.275,9.262c-0.264-0.13-0.57-0.138-0.841-0.024l-2.606,1.117 C0.32,10.572,0.084,11.159,0.3,11.667c0.05,0.118,0.122,0.225,0.213,0.315l3.745,3.745c0.283,0.283,0.707,0.369,1.078,0.221 l5.617-2.248c0.127-0.052,0.273,0.009,0.325,0.136c0.024,0.058,0.025,0.124,0.002,0.183l-1.956,5.219 c-0.194,0.517,0.068,1.094,0.585,1.288c0.26,0.098,0.549,0.083,0.798-0.042l2.71-1.355c0.195-0.096,0.353-0.254,0.45-0.448 l3.749-7.5c0.057-0.113,0.154-0.201,0.273-0.245l4.345-1.619C23.509,8.789,24.115,7.327,23.587,6.052L23.587,6.052z" stroke="none" fill="#000000" stroke-width="0" stroke-linecap="round" stroke-linejoin="round"></path></g></svg>