<svg xmlns="http://www.w3.org/2000/svg" version="1.1" xmlns:xlink="http://www.w3.org/1999/xlink" xmlns:svgjs="http://svgjs.com/svgjs" viewBox="0 0 24 24" height="24" width="24"><title>Exported from Streamline App (https://app.streamlineicons.com)</title><g transform="matrix(1,0,0,1,0,0)"><path d="M 0.75,23.253v-22.5 " stroke="#eeeeee" fill="none" stroke-width="1.5" stroke-linecap="round" stroke-linejoin="round"></path><path d="M 0.75,18.373L3.9,17.4c2.643-0.814,5.509-0.45,7.864,1 c2.298,1.414,5.085,1.797,7.679,1.056l2.987-0.854c0.483-0.138,0.816-0.58,0.816-1.082V4.651c-0.001-0.622-0.505-1.126-1.127-1.125 c-0.104,0-0.207,0.015-0.307,0.043l-2.369,0.677c-2.593,0.74-5.378,0.357-7.675-1.056c-2.356-1.449-5.221-1.813-7.864-1L0.75,3.16 V18.373z " stroke="#eeeeee" fill="none" stroke-width="1.5" stroke-linecap="round" stroke-linejoin="round"></path><path d="M 15.424,7.601l2.935,2.935l-2.935,2.935 " stroke="#eeeeee" fill="none" stroke-width="1.5" stroke-linecap="round" stroke-linejoin="round"></path><path d="M 8.576,7.601l-2.935,2.935l2.935,2.935 " stroke="#eeeeee" fill="none" stroke-width="1.5" stroke-linecap="round" stroke-linejoin="round"></path><path d="M 12.978,7.601l-1.956,5.87" stroke="#eeeeee" fill="none" stroke-width="1.5" stroke-linecap="round" stroke-linejoin="round"></path></g></svg>