<svg xmlns="http://www.w3.org/2000/svg" version="1.1" xmlns:xlink="http://www.w3.org/1999/xlink" xmlns:svgjs="http://svgjs.com/svgjs" viewBox="0 0 24 24" height="24" width="24"><title>py (From Streamline App : https://app.streamlineicons.com)</title><g transform="matrix(1,0,0,1,0,0)"><path d="M 2.25,0.754h19.5c0.828,0,1.5,0.672,1.5,1.5v19.5c0,0.828-0.672,1.5-1.5,1.5H2.25c-0.828,0-1.5-0.672-1.5-1.5 v-19.5C0.75,1.426,1.422,0.754,2.25,0.754z " stroke="#777777" fill="none" stroke-width="1.5" stroke-linecap="round" stroke-linejoin="round"></path><path d="M 13.5,10.5v2.25c0,0.828,0.672,1.5,1.5,1.5s1.5-0.672,1.5-1.5V10.5 " stroke="#777777" fill="none" stroke-width="1.5" stroke-linecap="round" stroke-linejoin="round"></path><path d="M 15,14.254v3.75 " stroke="#777777" fill="none" stroke-width="1.5" stroke-linecap="round" stroke-linejoin="round"></path><path d="M 7.5,18.004v-7.5 " stroke="#777777" fill="none" stroke-width="1.5" stroke-linecap="round" stroke-linejoin="round"></path><path d="M 7.5,10.5h0.75c1.243,0,2.25,1.007,2.25,2.25S9.493,15,8.25,15H7.5" stroke="#777777" fill="none" stroke-width="1.5" stroke-linecap="round" stroke-linejoin="round"></path></g></svg>