<svg xmlns="http://www.w3.org/2000/svg" version="1.1" xmlns:xlink="http://www.w3.org/1999/xlink" xmlns:svgjs="http://svgjs.com/svgjs" viewBox="0 0 24 24" height="24" width="24"><title>railroad fast train (From Streamline App : https://app.streamlineicons.com)</title><g transform="matrix(1,0,0,1,0,0)"><path d="M 0.5,17.5H19c1.381,0,2.5-1.119,2.5-2.5c0-1.287-0.006-0.971-8-9.25c-1.081-0.814-2.397-1.253-3.75-1.25H0.5 " stroke="#777777" fill="none" stroke-width="1" stroke-linecap="round" stroke-linejoin="round"></path><path d="M 19.091,11.5H11c-0.787,0-1.528-0.37-2-1l-3-3h9.194 " stroke="#777777" fill="none" stroke-width="1" stroke-linecap="round" stroke-linejoin="round"></path><path d="M 19.65,12.084c-1.524,0.454-2.589,1.827-2.65,3.416 c0.012,0.714,0.233,1.409,0.634,2 " stroke="#777777" fill="none" stroke-width="1" stroke-linecap="round" stroke-linejoin="round"></path><path d="M 10,17.5L7.5,15c-0.432-0.325-0.959-0.501-1.5-0.5H0.5 " stroke="#777777" fill="none" stroke-width="1" stroke-linecap="round" stroke-linejoin="round"></path><path d="M 23.5,19.502h-23 " stroke="#777777" fill="none" stroke-width="1" stroke-linecap="round" stroke-linejoin="round"></path><path d="M 9.5,17.5 c0,0.828,0.672,1.5,1.5,1.5s1.5-0.672,1.5-1.5 " stroke="#777777" fill="none" stroke-width="1" stroke-linecap="round" stroke-linejoin="round"></path><path d="M 4.5,17.5C4.5,18.328,5.172,19,6,19s1.5-0.672,1.5-1.5" stroke="#777777" fill="none" stroke-width="1" stroke-linecap="round" stroke-linejoin="round"></path></g></svg>