<svg xmlns="http://www.w3.org/2000/svg" version="1.1" xmlns:xlink="http://www.w3.org/1999/xlink" xmlns:svgjs="http://svgjs.com/svgjs" viewBox="0 0 40 40" width="40" height="40"><title>Exported from Streamline App (https://app.streamlineicons.com)</title><g transform="matrix(1.6666666666666667,0,0,1.6666666666666667,0,0)"><path d="M21.75,1c0-0.552-0.448-1-1-1H4.25c-1.105,0-2,0.895-2,2v19c0,1.657,1.343,3,3,3h13.5c1.105,0,2-0.895,2-2v-1.584 c0-0.212,0.133-0.4,0.333-0.471c0.4-0.141,0.668-0.52,0.667-0.945V1z M5.774,9.336l5.346-4.359c0.366-0.301,0.894-0.301,1.26,0 l5.346,4.359c0.313,0.272,0.347,0.746,0.075,1.059c-0.261,0.301-0.712,0.345-1.027,0.102l-0.615-0.5 c-0.107-0.088-0.264-0.073-0.352,0.034c-0.037,0.045-0.057,0.101-0.057,0.159v4.106c0,0.552-0.448,1-1,1H13.6 c-0.276,0-0.5-0.224-0.5-0.5v-2.04c0-0.746-0.605-1.35-1.351-1.349c-0.745,0-1.349,0.604-1.349,1.349v2.04 c0,0.276-0.224,0.5-0.5,0.5H8.75c-0.552,0-1-0.448-1-1v-4.111c-0.001-0.139-0.113-0.251-0.252-0.25 c-0.057,0-0.113,0.02-0.157,0.056l-0.615,0.506c-0.328,0.254-0.8,0.194-1.054-0.134C5.429,10.048,5.473,9.597,5.774,9.336z M18.75,21.5c0,0.276-0.224,0.5-0.5,0.5h-13c-0.552,0-1-0.448-1-1s0.448-1,1-1h13c0.276,0,0.5,0.224,0.5,0.5V21.5z" stroke="none" fill="#222222" stroke-width="0" stroke-linecap="round" stroke-linejoin="round"></path></g></svg>