<svg xmlns="http://www.w3.org/2000/svg" version="1.1" xmlns:xlink="http://www.w3.org/1999/xlink" xmlns:svgjs="http://svgjs.com/svgjs" viewBox="0 0 40 40" width="40" height="40"><title>Exported from Streamline App (https://app.streamlineicons.com)</title><g transform="matrix(1.6666666666666667,0,0,1.6666666666666667,0,0)"><path d="M23.82,1.116c-0.143-0.119-0.34-0.149-0.512-0.078l-23,9.5c-0.255,0.106-0.375,0.399-0.269,0.654 c0.052,0.125,0.153,0.224,0.279,0.273l6.332,2.459c0.156,0.061,0.331,0.04,0.468-0.056l8.4-5.974 c0.224-0.162,0.536-0.112,0.698,0.112c0.147,0.203,0.121,0.483-0.061,0.656l-7,6.745c-0.098,0.094-0.153,0.224-0.153,0.36V22.5 c0.001,0.276,0.225,0.499,0.501,0.499c0.177-0.001,0.34-0.094,0.43-0.247l3.167-5.425c0.069-0.117,0.218-0.158,0.337-0.093 l5.826,3.2c0.242,0.133,0.546,0.045,0.679-0.197c0.023-0.042,0.04-0.088,0.051-0.135l4-18.5C24.028,1.421,23.962,1.234,23.82,1.116 z" stroke="none" fill="#000000" stroke-width="0" stroke-linecap="round" stroke-linejoin="round"></path></g></svg>