<svg xmlns="http://www.w3.org/2000/svg" version="1.1" xmlns:xlink="http://www.w3.org/1999/xlink" xmlns:svgjs="http://svgjs.com/svgjs" viewBox="0 0 24 24" height="24" width="24"><title>seo search graph (From Streamline App : https://app.streamlineicons.com)</title><g transform="matrix(1,0,0,1,0,0)"><path d="M 18.889,9.813c0,5.005-4.058,9.063-9.064,9.062c-2.029,0-3.998-0.681-5.594-1.933 " stroke="#eeeeee" fill="none" stroke-width="1.5" stroke-linecap="round" stroke-linejoin="round"></path><path d="M 0.8,10.631 c-0.024-0.267-0.036-0.539-0.036-0.818C0.763,4.808,4.82,0.75,9.825,0.75c2.365,0,4.636,0.924,6.329,2.575 " stroke="#eeeeee" fill="none" stroke-width="1.5" stroke-linecap="round" stroke-linejoin="round"></path><path d="M 16.235,16.221 l7.015,7.029 " stroke="#eeeeee" fill="none" stroke-width="1.5" stroke-linecap="round" stroke-linejoin="round"></path><path d="M 23.25,6.321V1.5h-4.807 " stroke="#eeeeee" fill="none" stroke-width="1.5" stroke-linecap="round" stroke-linejoin="round"></path><path d="M 0.75,16.5l8.32-8.317c0.37-0.369,0.969-0.369,1.339,0l2.446,2.447 c0.369,0.37,0.968,0.37,1.338,0.001c0,0,0.001-0.001,0.001-0.001L23.25,1.5" stroke="#eeeeee" fill="none" stroke-width="1.5" stroke-linecap="round" stroke-linejoin="round"></path></g></svg>