<svg xmlns="http://www.w3.org/2000/svg" version="1.1" xmlns:xlink="http://www.w3.org/1999/xlink" xmlns:svgjs="http://svgjs.com/svgjs" viewBox="0 0 24 24" height="24" width="24"><title>seo search star (From Streamline App : https://app.streamlineicons.com)</title><g transform="matrix(1,0,0,1,0,0)"><path d="M 18.817,3.961c-3.109-3.764-8.681-4.296-12.445-1.187c-2.033,1.679-3.21,4.178-3.211,6.815V12 " stroke="#777777" fill="none" stroke-width="1.5" stroke-linecap="round" stroke-linejoin="round"></path><path d="M 5.57,15.654 c3.35,3.551,8.944,3.715,12.495,0.365c1.771-1.67,2.774-3.996,2.774-6.43V7.982 " stroke="#777777" fill="none" stroke-width="1.5" stroke-linecap="round" stroke-linejoin="round"></path><path d="M 0.75,9.589L3.161,12l2.41-2.411 " stroke="#777777" fill="none" stroke-width="1.5" stroke-linecap="round" stroke-linejoin="round"></path><path d="M 23.25,10.393 l-2.411-2.411l-2.41,2.411 " stroke="#777777" fill="none" stroke-width="1.5" stroke-linecap="round" stroke-linejoin="round"></path><path d="M 11.564,5.219c0.122-0.241,0.417-0.337,0.657-0.215c0.092,0.047,0.168,0.122,0.215,0.215l1.012,2.042 c0.071,0.142,0.208,0.24,0.366,0.262l2.271,0.329c0.181,0.025,0.333,0.151,0.391,0.324c0.057,0.173,0.01,0.363-0.121,0.49 l-1.65,1.6c-0.113,0.109-0.164,0.266-0.138,0.421l0.389,2.255c0.031,0.18-0.045,0.362-0.194,0.467 c-0.15,0.107-0.348,0.12-0.511,0.035l-2.024-1.059c-0.142-0.074-0.312-0.074-0.454,0l-2.024,1.059 c-0.163,0.085-0.361,0.072-0.511-0.035c-0.149-0.105-0.225-0.287-0.194-0.467l0.389-2.255c0.026-0.155-0.025-0.312-0.138-0.421 l-1.65-1.6c-0.131-0.127-0.178-0.317-0.121-0.49c0.058-0.173,0.21-0.299,0.391-0.324l2.271-0.329 c0.158-0.022,0.295-0.12,0.366-0.262L11.564,5.219z " stroke="#777777" fill="none" stroke-width="1.5" stroke-linecap="round" stroke-linejoin="round"></path><path d="M 23.25,23.25l-5.893-6.63" stroke="#777777" fill="none" stroke-width="1.5" stroke-linecap="round" stroke-linejoin="round"></path></g></svg>