<svg xmlns="http://www.w3.org/2000/svg" version="1.1" xmlns:xlink="http://www.w3.org/1999/xlink" xmlns:svgjs="http://svgjs.com/svgjs" viewBox="0 0 24 24" height="24" width="24"><title>seo search graph (From Streamline App : https://app.streamlineicons.com)</title><g transform="matrix(1,0,0,1,0,0)"><path d="M 1.012,11.942c-1.614-4.408,0.652-9.29,5.061-10.904c3.666-1.342,7.774-0.014,9.961,3.219 " stroke="#777777" fill="none" stroke-width="1" stroke-linecap="round" stroke-linejoin="round"></path><path d="M 15.01,15.041 l2.333,2.332 " stroke="#777777" fill="none" stroke-width="1" stroke-linecap="round" stroke-linejoin="round"></path><path d="M 23,20.909c0.596,0.576,0.612,1.525,0.037,2.121s-1.525,0.612-2.121,0.037c-0.012-0.012-0.025-0.024-0.037-0.037 l-3.889-3.889c-0.39-0.39-0.39-1.024,0-1.414l0.707-0.707c0.39-0.39,1.024-0.39,1.414,0L23,20.909z " stroke="#777777" fill="none" stroke-width="1" stroke-linecap="round" stroke-linejoin="round"></path><path d="M 0.5,15.53l8.793-8.793 c0.391-0.39,1.024-0.39,1.414,0l2.586,2.586c0.391,0.39,1.023,0.39,1.414,0L23.5,0.53 " stroke="#777777" fill="none" stroke-width="1" stroke-linecap="round" stroke-linejoin="round"></path><path d="M 20.5,0.53h3v3 " stroke="#777777" fill="none" stroke-width="1" stroke-linecap="round" stroke-linejoin="round"></path><path d="M 17.485,9.546 c-0.285,4.686-4.314,8.254-9,7.969c-1.807-0.11-3.532-0.794-4.923-1.952" stroke="#777777" fill="none" stroke-width="1" stroke-linecap="round" stroke-linejoin="round"></path></g></svg>