<svg xmlns="http://www.w3.org/2000/svg" version="1.1" xmlns:xlink="http://www.w3.org/1999/xlink" xmlns:svgjs="http://svgjs.com/svgjs" viewBox="0 0 40 40" height="40" width="40"><title>Exported from Streamline App (https://app.streamlineicons.com)</title><g transform="matrix(1.6666666666666667,0,0,1.6666666666666667,0,0)"><path d="M11.093,18.527c-0.181,0.181-0.404,0.312-0.65,0.382c-0.098,0.027-0.169,0.111-0.181,0.212l-0.227,1.941 c-0.067,0.565,0.336,1.077,0.901,1.144c0.314,0.037,0.628-0.072,0.851-0.295l2.671-2.671c0.693-0.704,1.243-1.534,1.622-2.446 c0.244-0.984,0.367-1.993,0.366-3.007c0.005-0.138-0.102-0.254-0.24-0.259c-0.07-0.003-0.138,0.024-0.187,0.073L11.093,18.527z M5.484,12.92l4.952-4.964c0.097-0.099,0.096-0.258-0.003-0.355c-0.048-0.047-0.114-0.073-0.181-0.072 c-1.039-0.008-2.076,0.11-3.087,0.349C6.262,8.269,5.442,8.83,4.75,9.531l-2.662,2.662c-0.402,0.403-0.401,1.056,0.002,1.458 c0.193,0.192,0.453,0.3,0.725,0.301c0.035,0,1.572-0.185,2.091-0.248c0.098-0.012,0.18-0.08,0.209-0.174 C5.187,13.3,5.314,13.091,5.484,12.92z M6.038,16.536c-0.845-0.847-2.125-0.7-3.183,0.353c-0.749,0.75-1.519,3.166-2.033,5.062 c-0.145,0.533,0.17,1.082,0.703,1.227c0.172,0.047,0.354,0.046,0.527-0.001c1.889-0.52,4.3-1.3,5.046-2.045 c1.057-1.057,1.2-2.337,0.354-3.182L6.038,16.536z M22.62,0.8c-1.248,0.252-3.756,0.838-4.534,1.616 C17.438,3.059,8.125,12.4,6.722,13.8c-0.097,0.098-0.097,0.255,0,0.353l3.134,3.137c0.098,0.097,0.255,0.097,0.353,0L21.587,5.913 c0.779-0.779,1.365-3.287,1.616-4.534c0.052-0.268-0.124-0.528-0.392-0.58C22.748,0.787,22.683,0.787,22.62,0.8z" stroke="none" fill="#333333" stroke-width="0" stroke-linecap="round" stroke-linejoin="round"></path></g></svg>