<svg xmlns="http://www.w3.org/2000/svg" version="1.1" xmlns:xlink="http://www.w3.org/1999/xlink" xmlns:svgjs="http://svgjs.com/svgjs" viewBox="0 0 140 140" width="140" height="140"><g transform="matrix(5.833333333333333,0,0,5.833333333333333,0,0)"><path d="M11.093,18.527a1.5,1.5,0,0,1-.65.382.25.25,0,0,0-.181.212l-.227,1.941a1.03,1.03,0,0,0,1.752.849l2.671-2.671a7.688,7.688,0,0,0,1.622-2.446,12.4,12.4,0,0,0,.366-3.007.25.25,0,0,0-.427-.186Z" fill="#ffffff" stroke="none" stroke-linecap="round" stroke-linejoin="round" stroke-width="0"></path><path d="M5.484,12.92l4.952-4.964a.251.251,0,0,0-.184-.427,12.988,12.988,0,0,0-3.087.349A7.687,7.687,0,0,0,4.75,9.531L2.088,12.193a1.031,1.031,0,0,0,.727,1.759c.035,0,1.572-.185,2.091-.248a.251.251,0,0,0,.209-.174A1.5,1.5,0,0,1,5.484,12.92Z" fill="#ffffff" stroke="none" stroke-linecap="round" stroke-linejoin="round" stroke-width="0"></path><path d="M6.038,16.536c-.845-.847-2.125-.7-3.183.353-.749.75-1.519,3.166-2.033,5.062a1,1,0,0,0,1.23,1.226c1.889-.52,4.3-1.3,5.046-2.045,1.057-1.057,1.2-2.337.354-3.182Z" fill="#ffffff" stroke="none" stroke-linecap="round" stroke-linejoin="round" stroke-width="0"></path><path d="M22.62.8c-1.248.252-3.756.838-4.534,1.616C17.438,3.059,8.125,12.4,6.722,13.8a.25.25,0,0,0,0,.353L9.856,17.29a.25.25,0,0,0,.353,0L21.587,5.913c.779-.779,1.365-3.287,1.616-4.534A.495.495,0,0,0,22.62.8Z" fill="#ffffff" stroke="none" stroke-linecap="round" stroke-linejoin="round" stroke-width="0"></path></g></svg>