<svg xmlns="http://www.w3.org/2000/svg" version="1.1" xmlns:xlink="http://www.w3.org/1999/xlink" xmlns:svgjs="http://svgjs.com/svgjs" viewBox="0 0 24 24" height="24" width="24"><title>space rocket flying (From Streamline App : https://app.streamlineicons.com)</title><g transform="matrix(1,0,0,1,0,0)"><path d="M 5.791,14.7c0,0,10.945-10.978,11.653-11.685c0.785-0.786,3.318-1.378,4.578-1.632 c0.271-0.055,0.534,0.121,0.589,0.391c0.013,0.065,0.013,0.132,0,0.198c-0.254,1.26-0.846,3.792-1.632,4.578L9.311,18.217 L5.791,14.7z " stroke="#777777" fill="none" stroke-width="1" stroke-linecap="round" stroke-linejoin="round"></path><path d="M 7.201,13.274l3.526,3.529 " stroke="#777777" fill="none" stroke-width="1" stroke-linecap="round" stroke-linejoin="round"></path><path d="M 14.615,12.915c0.046,1.542-0.073,3.083-0.353,4.6c-0.334,0.79-0.815,1.51-1.416,2.122 l-2.517,2.513c-0.195,0.196-0.511,0.197-0.707,0.002c-0.109-0.109-0.162-0.261-0.144-0.414l0.489-4.176 " stroke="#777777" fill="none" stroke-width="1" stroke-linecap="round" stroke-linejoin="round"></path><path d="M 11.079,9.379 C9.53,9.322,7.98,9.429,6.454,9.7c-0.782,0.346-1.492,0.836-2.092,1.445l-2.51,2.509c-0.195,0.195-0.196,0.512-0.001,0.707 c0.109,0.109,0.262,0.162,0.416,0.143l4.2-0.514 " stroke="#777777" fill="none" stroke-width="1" stroke-linecap="round" stroke-linejoin="round"></path><path d="M 7.19,18.217c0.708,0.707,0.413,1.709-0.353,2.476 c-0.717,0.716-3.435,1.533-4.826,1.915c-0.267,0.07-0.54-0.09-0.61-0.357C1.379,22.169,1.379,22.082,1.4,22 c0.378-1.395,1.187-4.121,1.9-4.839c0.777-0.776,1.769-1.06,2.476-0.353" stroke="#777777" fill="none" stroke-width="1" stroke-linecap="round" stroke-linejoin="round"></path></g></svg>