<svg xmlns="http://www.w3.org/2000/svg" version="1.1" xmlns:xlink="http://www.w3.org/1999/xlink" xmlns:svgjs="http://svgjs.com/svgjs" viewBox="0 0 40 40" height="40" width="40"><title>Exported from Streamline App (https://app.streamlineicons.com)</title><g transform="matrix(1.6666666666666667,0,0,1.6666666666666667,0,0)"><path d="M 17.25,5.25h1.5c0.828,0,1.5,0.672,1.5,1.5v7.5c0,0.828-0.672,1.5-1.5,1.5H16.5 " stroke="#333333" fill="none" stroke-width="1.5" stroke-linecap="round" stroke-linejoin="round"></path><path d="M 7.5,15.75H5.25 c-0.828,0-1.5-0.672-1.5-1.5v-7.5c0-0.828,0.672-1.5,1.5-1.5h1.5 " stroke="#333333" fill="none" stroke-width="1.5" stroke-linecap="round" stroke-linejoin="round"></path><path d="M 18.571,15.75c1.136,0,2.175,0.642,2.683,1.658l1.836,3.671 c0.371,0.741,0.07,1.642-0.671,2.013c-0.208,0.104-0.438,0.159-0.671,0.158H2.252c-0.828,0-1.5-0.671-1.5-1.5 c0-0.233,0.054-0.463,0.158-0.671l1.836-3.671c0.508-1.016,1.547-1.658,2.683-1.658 " stroke="#333333" fill="none" stroke-width="1.5" stroke-linecap="round" stroke-linejoin="round"></path><path d="M 14.25,3.956C14.25,2.185,12,0.75,12,0.75 S9.75,2.185,9.75,3.956v7.481h4.5V3.956z " stroke="#333333" fill="none" stroke-width="1.5" stroke-linecap="round" stroke-linejoin="round"></path><path d="M 9.75,11.437H7.012c-0.168,0.003-0.329-0.064-0.445-0.186 c-0.104-0.111-0.142-0.269-0.1-0.416C7.009,9.33,8.224,8.166,9.75,7.687 " stroke="#333333" fill="none" stroke-width="1.5" stroke-linecap="round" stroke-linejoin="round"></path><path d="M 14.25,11.437h2.738c0.167,0.003,0.328-0.065,0.444-0.186 c0.105-0.111,0.143-0.269,0.1-0.416c-0.544-1.503-1.757-2.668-3.282-3.148 " stroke="#333333" fill="none" stroke-width="1.5" stroke-linecap="round" stroke-linejoin="round"></path><path d="M 10.5,14.25v2.25 " stroke="#333333" fill="none" stroke-width="1.5" stroke-linecap="round" stroke-linejoin="round"></path><path d="M 13.5,14.25v4.5" stroke="#333333" fill="none" stroke-width="1.5" stroke-linecap="round" stroke-linejoin="round"></path></g></svg>