<svg xmlns="http://www.w3.org/2000/svg" version="1.1" xmlns:xlink="http://www.w3.org/1999/xlink" xmlns:svgjs="http://svgjs.com/svgjs" viewBox="0 0 24 24" height="24" width="24"><title>study book (From Streamline App : https://app.streamlineicons.com)</title><g transform="matrix(1,0,0,1,0,0)"><path d="M9.076,4.392C7.432,3.849,5.727,3.509,4,3.381C3.589,3.346,3.226,3.645,3.181,4.055C3.14,4.466,3.44,4.833,3.851,4.874 c0.001,0,0.001,0,0.002,0c1.613,0.116,3.205,0.431,4.74,0.938c0.389,0.142,0.82-0.057,0.962-0.446 c0.142-0.389-0.057-0.82-0.446-0.962C9.098,4.399,9.086,4.396,9.075,4.392L9.076,4.392z M9.076,8.023 C7.432,7.48,5.727,7.141,4,7.013C3.588,6.972,3.221,7.274,3.18,7.686c-0.041,0.412,0.261,0.779,0.673,0.82 c1.613,0.116,3.205,0.43,4.74,0.937c0.389,0.142,0.82-0.057,0.962-0.446c0.142-0.389-0.057-0.82-0.446-0.962 C9.098,8.03,9.086,8.027,9.075,8.023L9.076,8.023z M9.076,11.655C7.432,11.112,5.727,10.773,4,10.644 c-0.411-0.036-0.775,0.264-0.819,0.674c-0.041,0.412,0.26,0.779,0.672,0.82c1.613,0.115,3.205,0.43,4.74,0.937 c0.389,0.142,0.82-0.057,0.962-0.446c0.142-0.389-0.057-0.82-0.446-0.962c-0.011-0.004-0.022-0.008-0.034-0.011H9.076z M19.5,3.214 c-1.731,0.195-3.435,0.591-5.075,1.178c-0.395,0.124-0.615,0.545-0.492,0.94c0.124,0.395,0.545,0.615,0.94,0.492 c0.011-0.004,0.023-0.007,0.034-0.011c1.532-0.549,3.123-0.92,4.74-1.105c0.412-0.041,0.714-0.408,0.673-0.82 S19.912,3.173,19.5,3.214z M19.5,6.845c-1.731,0.196-3.434,0.591-5.075,1.178c-0.395,0.124-0.615,0.545-0.492,0.94 s0.545,0.615,0.94,0.492c0.011-0.004,0.023-0.007,0.034-0.011c1.532-0.549,3.123-0.92,4.74-1.105 c0.412-0.041,0.714-0.408,0.673-0.82C20.279,7.106,19.912,6.804,19.5,6.845z M19.5,10.477c-1.732,0.195-3.435,0.59-5.075,1.178 c-0.395,0.124-0.615,0.545-0.492,0.94s0.545,0.615,0.94,0.492c0.011-0.004,0.023-0.007,0.034-0.011 c1.532-0.548,3.123-0.917,4.74-1.1c0.412-0.041,0.714-0.408,0.673-0.82c-0.041-0.412-0.408-0.714-0.82-0.673V10.477z M15,15.621 c0-0.337-0.274-0.611-0.611-0.611c-0.068,0-0.135,0.011-0.2,0.034c-0.349,0.121-0.677,0.251-0.98,0.391 c-0.251,0.115-0.548,0.006-0.663-0.245c-0.03-0.066-0.046-0.137-0.046-0.21V4.008c0-0.761,3.274-2.336,9.277-2.506 c0.061,0.003,0.119,0.025,0.167,0.063C21.979,1.596,21.999,1.641,22,1.688v11.988c-0.018,0.113-0.119,0.192-0.233,0.183 l-0.521,0.018c-0.417,0.018-0.746,0.362-0.746,0.78c0,0.399,0.324,0.722,0.722,0.722c0.01,0,0.02,0,0.031-0.001 c0.182-0.008,0.367-0.015,0.555-0.02c0.929-0.004,1.682-0.753,1.692-1.682V1.688c0.001-0.453-0.184-0.886-0.511-1.2 C22.655,0.16,22.202-0.016,21.734,0c-3.807,0.107-7.828,0.85-9.683,2.249c-0.178,0.133-0.422,0.133-0.6,0 C9.593,0.853,5.573,0.11,1.766,0C1.298-0.015,0.845,0.162,0.511,0.49C0.185,0.803,0,1.236,0,1.688v11.988 c0.01,0.929,0.763,1.678,1.692,1.682C7.715,15.524,11,17.1,11,17.865c0,0.414,0.336,0.75,0.75,0.75s0.75-0.336,0.75-0.75 c0-0.334,0.627-0.823,1.835-1.281C14.735,16.432,14.999,16.049,15,15.621z M11,14.98c0,0.276-0.223,0.5-0.499,0.501 c-0.072,0-0.144-0.016-0.21-0.046c-2.732-1.044-5.633-1.578-8.558-1.576c-0.114,0.009-0.215-0.07-0.233-0.183V1.688 c0.001-0.047,0.021-0.092,0.056-0.123c0.043-0.041,0.1-0.064,0.16-0.063h0.007C7.726,1.672,11,3.247,11,4.008V14.98z M21.253,20 H19.5c-0.276,0-0.5-0.224-0.5-0.5v-4.25c0-0.69-0.56-1.25-1.25-1.25s-1.25,0.56-1.25,1.25v6.466c0,0.138-0.111,0.25-0.25,0.25 c-0.081,0-0.158-0.039-0.204-0.105l-1.067-1.5c-0.261-0.518-0.892-0.726-1.41-0.465c-0.518,0.261-0.726,0.892-0.465,1.41 c0.006,0.011,0.011,0.022,0.017,0.033l1.26,2.395c0.087,0.164,0.257,0.267,0.443,0.267H23.5c0.276,0,0.5-0.224,0.5-0.5v-0.6 C24.009,21.354,22.798,20.075,21.253,20z" stroke="none" fill="#333333" stroke-width="0" stroke-linecap="round" stroke-linejoin="round"></path></g></svg>