<svg xmlns="http://www.w3.org/2000/svg" version="1.1" xmlns:xlink="http://www.w3.org/1999/xlink" xmlns:svgjs="http://svgjs.com/svgjs" viewBox="0 0 24 24" height="24" width="24"><title>target correct (From Streamline App : https://app.streamlineicons.com)</title><g transform="matrix(1,0,0,1,0,0)"><path d="M 8.261,16.49c-2.684-1.039-4.017-4.057-2.978-6.741c0.914-2.362,3.394-3.724,5.878-3.229 " stroke="#eeeeee" fill="none" stroke-width="1.5" stroke-linecap="round" stroke-linejoin="round"></path><path d="M 8.222,20.807 c-5.07-1.058-8.321-6.025-7.263-11.095c1.023-4.903,5.718-8.136,10.663-7.343 " stroke="#eeeeee" fill="none" stroke-width="1.5" stroke-linecap="round" stroke-linejoin="round"></path><path d="M 9.75,11.859l4.167-4.167 " stroke="#eeeeee" fill="none" stroke-width="1.5" stroke-linecap="round" stroke-linejoin="round"></path><path d="M 13.917,7.692l0.568-3.75 l3.248-3.192l0.502,2.624l2.624,0.502l-3.192,3.248L13.917,7.692z " stroke="#eeeeee" fill="none" stroke-width="1.5" stroke-linecap="round" stroke-linejoin="round"></path><path d="M 17.25,11.25c3.314,0,6,2.686,6,6s-2.686,6-6,6s-6-2.686-6-6 S13.936,11.25,17.25,11.25z " stroke="#eeeeee" fill="none" stroke-width="1.5" stroke-linecap="round" stroke-linejoin="round"></path><path d="M 19.924,15.505l-2.905,3.874c-0.249,0.332-0.72,0.398-1.052,0.149 c-0.028-0.021-0.055-0.044-0.079-0.069l-1.5-1.5" stroke="#eeeeee" fill="none" stroke-width="1.5" stroke-linecap="round" stroke-linejoin="round"></path></g></svg>