<svg xmlns="http://www.w3.org/2000/svg" version="1.1" xmlns:xlink="http://www.w3.org/1999/xlink" xmlns:svgjs="http://svgjs.com/svgjs" viewBox="0 0 24 24" height="24" width="24"><title>target center (From Streamline App : https://app.streamlineicons.com)</title><g transform="matrix(1,0,0,1,0,0)"><path d="M 11.016,11.859l4.167-4.167 " stroke="#eeeeee" fill="none" stroke-width="1.5" stroke-linecap="round" stroke-linejoin="round"></path><path d="M 15.183,7.692l0.568-3.75l3.248-3.192l0.502,2.624l2.624,0.502l-3.192,3.248 L15.183,7.692z " stroke="#eeeeee" fill="none" stroke-width="1.5" stroke-linecap="round" stroke-linejoin="round"></path><path d="M 21.055,9.513c1.374,5.207-1.734,10.541-6.941,11.914S3.574,19.694,2.2,14.487S3.934,3.946,9.141,2.572 c1.132-0.299,2.309-0.391,3.473-0.272 " stroke="#eeeeee" fill="none" stroke-width="1.5" stroke-linecap="round" stroke-linejoin="round"></path><path d="M 16.722,10.737c0.698,2.815-1.018,5.663-3.833,6.361s-5.663-1.018-6.361-3.833 s1.018-5.663,3.833-6.361c0.412-0.102,0.836-0.154,1.261-0.154 " stroke="#eeeeee" fill="none" stroke-width="1.5" stroke-linecap="round" stroke-linejoin="round"></path><path d="M 6.516,20.25l-0.75,3 " stroke="#eeeeee" fill="none" stroke-width="1.5" stroke-linecap="round" stroke-linejoin="round"></path><path d="M 17.016,20.25l0.75,3" stroke="#eeeeee" fill="none" stroke-width="1.5" stroke-linecap="round" stroke-linejoin="round"></path></g></svg>