<svg xmlns="http://www.w3.org/2000/svg" version="1.1" xmlns:xlink="http://www.w3.org/1999/xlink" xmlns:svgjs="http://svgjs.com/svgjs" viewBox="0 0 24 24" height="24" width="24"><title>task list check 1 (From Streamline App : https://app.streamlineicons.com)</title><g transform="matrix(1,0,0,1,0,0)"><path d="M 5.25,10.511h5.25 " stroke="#eeeeee" fill="none" stroke-width="1.5" stroke-linecap="round" stroke-linejoin="round"></path><path d="M 5.25,14.261h3 " stroke="#eeeeee" fill="none" stroke-width="1.5" stroke-linecap="round" stroke-linejoin="round"></path><path d="M 5.25,18.011h3 " stroke="#eeeeee" fill="none" stroke-width="1.5" stroke-linecap="round" stroke-linejoin="round"></path><path d="M 9.75,23.261h-7.5c-0.828,0-1.5-0.672-1.5-1.5V6.011 c0-0.828,0.672-1.5,1.5-1.5H6c0-2.071,1.679-3.75,3.75-3.75s3.75,1.679,3.75,3.75h3.75c0.828,0,1.5,0.672,1.5,1.5v2.25 " stroke="#eeeeee" fill="none" stroke-width="1.5" stroke-linecap="round" stroke-linejoin="round"></path><path d="M 9.75,3.761 c0.207,0,0.375,0.168,0.375,0.375c0,0.207-0.168,0.375-0.375,0.375S9.375,4.343,9.375,4.136c0,0,0,0,0,0 C9.375,3.929,9.543,3.761,9.75,3.761 " stroke="#eeeeee" fill="none" stroke-width="1.5" stroke-linecap="round" stroke-linejoin="round"></path><path d="M 17.25,11.261c3.314,0,6,2.686,6,6s-2.686,6-6,6s-6-2.686-6-6S13.936,11.261,17.25,11.261z " stroke="#eeeeee" fill="none" stroke-width="1.5" stroke-linecap="round" stroke-linejoin="round"></path><path d="M 19.924,15.516l-2.905,3.874c-0.249,0.332-0.72,0.398-1.052,0.149c-0.028-0.021-0.055-0.044-0.079-0.069l-1.5-1.5" stroke="#eeeeee" fill="none" stroke-width="1.5" stroke-linecap="round" stroke-linejoin="round"></path></g></svg>