<svg xmlns="http://www.w3.org/2000/svg" version="1.1" xmlns:xlink="http://www.w3.org/1999/xlink" xmlns:svgjs="http://svgjs.com/svgjs" viewBox="0 0 24 24" height="24" width="24"><title>task list question (From Streamline App : https://app.streamlineicons.com)</title><g transform="matrix(1,0,0,1,0,0)"><path d="M6,7.749c-0.414,0-0.75,0.336-0.75,0.75c0,0.414,0.336,0.75,0.75,0.75h6c0.414,0,0.75-0.336,0.75-0.75 s-0.336-0.75-0.75-0.75L6,7.749z M9.4,16.249c0.117,0,0.218-0.084,0.238-0.2c0.059-0.323,0.138-0.641,0.237-0.954 c0.037-0.116,0-0.345-0.332-0.345H6c-0.414,0-0.75,0.336-0.75,0.75c0,0.414,0.336,0.75,0.75,0.75L9.4,16.249z M9.686,19.194 c-0.021-0.115-0.121-0.199-0.238-0.2H3.5c-0.276,0-0.5-0.224-0.5-0.5V5.5C3,5.224,3.224,5,3.5,5h11C14.776,5,15,5.224,15,5.5v4.08 c-0.002,0.136,0.107,0.249,0.243,0.251c0.019,0,0.038-0.002,0.057-0.006c0.815-0.154,1.64-0.252,2.468-0.293 c0.131-0.009,0.233-0.118,0.232-0.25V3.5C18,2.672,17.328,2,16.5,2h-4c-0.086,0-0.165-0.046-0.208-0.121 C11.216,0.06,8.869-0.543,7.05,0.533C6.495,0.861,6.032,1.324,5.704,1.879C5.662,1.952,5.585,1.998,5.5,2h-4C0.672,2,0,2.672,0,3.5 v17C0,21.328,0.672,22,1.5,22h8.94c0.136,0,0.246-0.11,0.246-0.246c0-0.047-0.014-0.093-0.039-0.133 C10.196,20.87,9.871,20.05,9.686,19.194z M12.244,11.48c0.09-0.079-0.009-0.231-0.244-0.231H6c-0.414,0-0.75,0.336-0.75,0.75 s0.336,0.75,0.75,0.75h4.958c0.076-0.001,0.147-0.038,0.192-0.1C11.475,12.224,11.841,11.832,12.244,11.48z M17.5,11 c-3.59,0-6.5,2.91-6.5,6.5s2.91,6.5,6.5,6.5s6.5-2.91,6.5-6.5C23.996,13.912,21.088,11.004,17.5,11z M17.5,22.5 c-0.552,0-1-0.448-1-1s0.448-1,1-1s1,0.448,1,1S18.052,22.5,17.5,22.5z M18.372,18.352c-0.073,0.022-0.123,0.09-0.122,0.166v0.232 c0,0.414-0.336,0.75-0.75,0.75s-0.75-0.336-0.75-0.75V18.2c0.002-0.588,0.413-1.096,0.988-1.221 c0.608-0.131,0.995-0.73,0.864-1.338c-0.131-0.608-0.73-0.995-1.338-0.864c-0.519,0.112-0.889,0.571-0.889,1.102 c0,0.414-0.336,0.75-0.75,0.75s-0.75-0.336-0.75-0.75c0.001-1.45,1.177-2.624,2.627-2.623s2.624,1.177,2.623,2.627 c-0.001,1.112-0.702,2.102-1.75,2.473L18.372,18.352z" stroke="none" fill="#333333" stroke-width="0" stroke-linecap="round" stroke-linejoin="round"></path></g></svg>