<svg xmlns="http://www.w3.org/2000/svg" version="1.1" xmlns:xlink="http://www.w3.org/1999/xlink" xmlns:svgjs="http://svgjs.com/svgjs" viewBox="0 0 24 24" height="24" width="24"><title>video player adjust finger (From Streamline App : https://app.streamlineicons.com)</title><g transform="matrix(1,0,0,1,0,0)"><path d="M 9.065,18H2.217c-0.825-0.018-1.48-0.699-1.467-1.524V2.274C0.737,1.449,1.392,0.769,2.217,0.751h19.566 c0.825,0.018,1.48,0.698,1.467,1.523v14.2 " stroke="#777777" fill="none" stroke-width="1.5" stroke-linecap="round" stroke-linejoin="round"></path><path d="M 20.25,14.249h-1.5 " stroke="#777777" fill="none" stroke-width="1.5" stroke-linecap="round" stroke-linejoin="round"></path><path d="M 3.75,14.249H9 " stroke="#777777" fill="none" stroke-width="1.5" stroke-linecap="round" stroke-linejoin="round"></path><path d="M 5.25,13.468v1.5 " stroke="#777777" fill="none" stroke-width="1.5" stroke-linecap="round" stroke-linejoin="round"></path><path d="M 9,6.749V4.322 c-0.003-0.203,0.101-0.392,0.273-0.5C9.44,3.72,9.65,3.724,9.814,3.83l4.925,2.426c0.271,0.183,0.343,0.552,0.16,0.823 c-0.043,0.063-0.097,0.117-0.16,0.16L9.814,9.667C9.65,9.773,9.44,9.776,9.273,9.674C9.101,9.567,8.998,9.378,9,9.176V6.749z " stroke="#777777" fill="none" stroke-width="1.5" stroke-linecap="round" stroke-linejoin="round"></path><path d="M 21.636,23.249l0.1-1.122c0.137-1.503-0.864-2.873-2.337-3.2l-3.651-0.812v-5.741c0-1.036-0.839-1.875-1.875-1.875 s-1.875,0.839-1.875,1.875v9.205l-1.477-1.108c-0.678-0.507-1.639-0.367-2.146,0.311c-0.406,0.544-0.406,1.29,0,1.834l0.475,0.633" stroke="#777777" fill="none" stroke-width="1.5" stroke-linecap="round" stroke-linejoin="round"></path></g></svg>