<svg xmlns="http://www.w3.org/2000/svg" version="1.1" xmlns:xlink="http://www.w3.org/1999/xlink" xmlns:svgjs="http://svgjs.com/svgjs" viewBox="0 0 24 24" height="24" width="24"><title>wild bird fly 1 (From Streamline App : https://app.streamlineicons.com)</title><g transform="matrix(1,0,0,1,0,0)"><path d="M 5.05,23.25c0.977-3.974,2.894-7.655,5.59-10.733C2.25,8.25,0.75,1.5,0.75,1.5s5.25,0,9,2.25 c1.289,0.773,3.537,4.652,3.933,5.927C19.343,5.338,21.3,8.95,21.3,8.95C18.012,19.471,8.072,22.009,5.612,21.276 " stroke="#EEEEEE" fill="none" stroke-width="1.5" stroke-linecap="round" stroke-linejoin="round"></path><path d="M 17.387,7.7 L17.4,7.65c0,0,1.15-4.3-0.15-6.9c-1.299,0.978-2.331,2.268-3,3.75 " stroke="#EEEEEE" fill="none" stroke-width="1.5" stroke-linecap="round" stroke-linejoin="round"></path><path d="M 21.3,8.95c0.695-0.367,1.556-0.1,1.922,0.595 c0.01,0.018,0.019,0.037,0.028,0.055" stroke="#EEEEEE" fill="none" stroke-width="1.5" stroke-linecap="round" stroke-linejoin="round"></path></g></svg>