<?xml version="1.0" encoding="UTF-8" standalone="no"?>
<!-- Created with Inkscape (http://www.inkscape.org/) -->

<svg
   xmlns:dc="http://purl.org/dc/elements/1.1/"
   xmlns:cc="http://creativecommons.org/ns#"
   xmlns:rdf="http://www.w3.org/1999/02/22-rdf-syntax-ns#"
   xmlns:svg="http://www.w3.org/2000/svg"
   xmlns="http://www.w3.org/2000/svg"
   xmlns:sodipodi="http://sodipodi.sourceforge.net/DTD/sodipodi-0.dtd"
   xmlns:inkscape="http://www.inkscape.org/namespaces/inkscape"
   width="297mm"
   height="210mm"
   viewBox="0 0 1052.3622 744.09448"
   id="svg2"
   version="1.1"
   inkscape:version="0.91 r13725"
   sodipodi:docname="architecture.svg">
  <defs
     id="defs4">
    <marker
       inkscape:stockid="TriangleOutS"
       orient="auto"
       refY="0.0"
       refX="0.0"
       id="TriangleOutS"
       style="overflow:visible"
       inkscape:isstock="true">
      <path
         id="path4660"
         d="M 5.77,0.0 L -2.88,5.0 L -2.88,-5.0 L 5.77,0.0 z "
         style="fill-rule:evenodd;stroke:#000000;stroke-width:1pt;stroke-opacity:1;fill:#000000;fill-opacity:1"
         transform="scale(0.2)" />
    </marker>
    <marker
       inkscape:stockid="TriangleInS"
       orient="auto"
       refY="0.0"
       refX="0.0"
       id="TriangleInS"
       style="overflow:visible"
       inkscape:isstock="true">
      <path
         id="path4651"
         d="M 5.77,0.0 L -2.88,5.0 L -2.88,-5.0 L 5.77,0.0 z "
         style="fill-rule:evenodd;stroke:#000000;stroke-width:1pt;stroke-opacity:1;fill:#000000;fill-opacity:1"
         transform="scale(-0.2)" />
    </marker>
    <marker
       inkscape:stockid="DiamondSend"
       orient="auto"
       refY="0.0"
       refX="0.0"
       id="DiamondSend"
       style="overflow:visible"
       inkscape:isstock="true">
      <path
         id="path4615"
         d="M 0,-7.0710768 L -7.0710894,0 L 0,7.0710589 L 7.0710462,0 L 0,-7.0710768 z "
         style="fill-rule:evenodd;stroke:#000000;stroke-width:1pt;stroke-opacity:1;fill:#000000;fill-opacity:1"
         transform="scale(0.2) translate(-6,0)" />
    </marker>
    <marker
       inkscape:stockid="DotS"
       orient="auto"
       refY="0.0"
       refX="0.0"
       id="DotS"
       style="overflow:visible"
       inkscape:isstock="true">
      <path
         id="path4579"
         d="M -2.5,-1.0 C -2.5,1.7600000 -4.7400000,4.0 -7.5,4.0 C -10.260000,4.0 -12.5,1.7600000 -12.5,-1.0 C -12.5,-3.7600000 -10.260000,-6.0 -7.5,-6.0 C -4.7400000,-6.0 -2.5,-3.7600000 -2.5,-1.0 z "
         style="fill-rule:evenodd;stroke:#000000;stroke-width:1pt;stroke-opacity:1;fill:#000000;fill-opacity:1"
         transform="scale(0.2) translate(7.4, 1)" />
    </marker>
    <marker
       inkscape:stockid="Arrow2Sstart"
       orient="auto"
       refY="0.0"
       refX="0.0"
       id="Arrow2Sstart"
       style="overflow:visible"
       inkscape:isstock="true">
      <path
         id="path4542"
         style="fill-rule:evenodd;stroke-width:0.625;stroke-linejoin:round;stroke:#000000;stroke-opacity:1;fill:#000000;fill-opacity:1"
         d="M 8.7185878,4.0337352 L -2.2072895,0.016013256 L 8.7185884,-4.0017078 C 6.9730900,-1.6296469 6.9831476,1.6157441 8.7185878,4.0337352 z "
         transform="scale(0.3) translate(-2.3,0)" />
    </marker>
    <marker
       inkscape:stockid="Arrow2Send"
       orient="auto"
       refY="0.0"
       refX="0.0"
       id="marker5729"
       style="overflow:visible;"
       inkscape:isstock="true">
      <path
         id="path5731"
         style="fill-rule:evenodd;stroke-width:0.625;stroke-linejoin:round;stroke:#000000;stroke-opacity:1;fill:#000000;fill-opacity:1"
         d="M 8.7185878,4.0337352 L -2.2072895,0.016013256 L 8.7185884,-4.0017078 C 6.9730900,-1.6296469 6.9831476,1.6157441 8.7185878,4.0337352 z "
         transform="scale(0.3) rotate(180) translate(-2.3,0)" />
    </marker>
    <marker
       inkscape:stockid="Arrow2Send"
       orient="auto"
       refY="0.0"
       refX="0.0"
       id="Arrow2Send"
       style="overflow:visible;"
       inkscape:isstock="true">
      <path
         id="path4545"
         style="fill-rule:evenodd;stroke-width:0.625;stroke-linejoin:round;stroke:#000000;stroke-opacity:1;fill:#000000;fill-opacity:1"
         d="M 8.7185878,4.0337352 L -2.2072895,0.016013256 L 8.7185884,-4.0017078 C 6.9730900,-1.6296469 6.9831476,1.6157441 8.7185878,4.0337352 z "
         transform="scale(0.3) rotate(180) translate(-2.3,0)" />
    </marker>
    <marker
       inkscape:stockid="Arrow2Mend"
       orient="auto"
       refY="0.0"
       refX="0.0"
       id="Arrow2Mend"
       style="overflow:visible;"
       inkscape:isstock="true">
      <path
         id="path4539"
         style="fill-rule:evenodd;stroke-width:0.625;stroke-linejoin:round;stroke:#000000;stroke-opacity:1;fill:#000000;fill-opacity:1"
         d="M 8.7185878,4.0337352 L -2.2072895,0.016013256 L 8.7185884,-4.0017078 C 6.9730900,-1.6296469 6.9831476,1.6157441 8.7185878,4.0337352 z "
         transform="scale(0.6) rotate(180) translate(0,0)" />
    </marker>
    <marker
       inkscape:stockid="Arrow1Send"
       orient="auto"
       refY="0.0"
       refX="0.0"
       id="Arrow1Send"
       style="overflow:visible;"
       inkscape:isstock="true">
      <path
         id="path4527"
         d="M 0.0,0.0 L 5.0,-5.0 L -12.5,0.0 L 5.0,5.0 L 0.0,0.0 z "
         style="fill-rule:evenodd;stroke:#000000;stroke-width:1pt;stroke-opacity:1;fill:#000000;fill-opacity:1"
         transform="scale(0.2) rotate(180) translate(6,0)" />
    </marker>
    <marker
       inkscape:stockid="Arrow2Lend"
       orient="auto"
       refY="0.0"
       refX="0.0"
       id="Arrow2Lend"
       style="overflow:visible;"
       inkscape:isstock="true">
      <path
         id="path4533"
         style="fill-rule:evenodd;stroke-width:0.625;stroke-linejoin:round;stroke:#000000;stroke-opacity:1;fill:#000000;fill-opacity:1"
         d="M 8.7185878,4.0337352 L -2.2072895,0.016013256 L 8.7185884,-4.0017078 C 6.9730900,-1.6296469 6.9831476,1.6157441 8.7185878,4.0337352 z "
         transform="scale(1.1) rotate(180) translate(1,0)" />
    </marker>
  </defs>
  <sodipodi:namedview
     id="base"
     pagecolor="#ffffff"
     bordercolor="#666666"
     borderopacity="1.0"
     inkscape:pageopacity="0.0"
     inkscape:pageshadow="2"
     inkscape:zoom="1.4142136"
     inkscape:cx="444.5271"
     inkscape:cy="365.70711"
     inkscape:document-units="px"
     inkscape:current-layer="layer1"
     showgrid="false"
     inkscape:window-width="2560"
     inkscape:window-height="1371"
     inkscape:window-x="0"
     inkscape:window-y="0"
     inkscape:window-maximized="1" />
  <metadata
     id="metadata7">
    <rdf:RDF>
      <cc:Work
         rdf:about="">
        <dc:format>image/svg+xml</dc:format>
        <dc:type
           rdf:resource="http://purl.org/dc/dcmitype/StillImage" />
        <dc:title></dc:title>
      </cc:Work>
    </rdf:RDF>
  </metadata>
  <g
     inkscape:label="Layer 1"
     inkscape:groupmode="layer"
     id="layer1"
     transform="translate(0,-308.26772)">
    <text
       xml:space="preserve"
       style="font-style:normal;font-weight:normal;font-size:40px;line-height:125%;font-family:sans-serif;letter-spacing:0px;word-spacing:0px;fill:#000000;fill-opacity:1;stroke:none;stroke-width:1px;stroke-linecap:butt;stroke-linejoin:miter;stroke-opacity:1"
       x="472.14285"
       y="553.79077"
       id="text4140"
       sodipodi:linespacing="125%"><tspan
         sodipodi:role="line"
         id="tspan4142"
         x="472.14285"
         y="553.79077" /></text>
    <text
       xml:space="preserve"
       style="font-style:normal;font-variant:normal;font-weight:normal;font-stretch:normal;font-size:22.5px;line-height:116.99999571%;font-family:'DejaVu Sans';-inkscape-font-specification:'DejaVu Sans, Normal';text-align:start;letter-spacing:0px;word-spacing:0px;writing-mode:lr-tb;text-anchor:start;fill:#000000;fill-opacity:1;stroke:none;stroke-width:1px;stroke-linecap:butt;stroke-linejoin:miter;stroke-opacity:1"
       x="220.80417"
       y="839.08496"
       id="text4144"
       sodipodi:linespacing="117%"><tspan
         sodipodi:role="line"
         x="220.80417"
         y="839.08496"
         style="font-style:normal;font-variant:normal;font-weight:normal;font-stretch:normal;font-family:monospace;-inkscape-font-specification:monospace;text-align:center;text-anchor:middle"
         id="tspan5482">guild.yml</tspan></text>
    <text
       xml:space="preserve"
       style="font-style:normal;font-variant:normal;font-weight:normal;font-stretch:normal;font-size:22.5px;line-height:116.99999571%;font-family:'DejaVu Sans';-inkscape-font-specification:'DejaVu Sans, Normal';text-align:start;letter-spacing:0px;word-spacing:0px;writing-mode:lr-tb;text-anchor:start;fill:#000000;fill-opacity:1;stroke:none;stroke-width:1px;stroke-linecap:butt;stroke-linejoin:miter;stroke-opacity:1"
       x="342.64661"
       y="689.07648"
       id="text4148"
       sodipodi:linespacing="117%"><tspan
         sodipodi:role="line"
         x="342.64661"
         y="689.07648"
         id="tspan4152"
         style="font-style:normal;font-variant:normal;font-weight:normal;font-stretch:normal;font-size:22.5px;line-height:116.99999571%;font-family:sans-serif;-inkscape-font-specification:sans-serif;text-align:center;writing-mode:lr-tb;text-anchor:middle"><tspan
   style="font-style:normal;font-variant:normal;font-weight:normal;font-stretch:normal;font-family:monospace;-inkscape-font-specification:monospace"
   id="tspan5480">guild</tspan> cmd</tspan></text>
    <g
       id="g4323"
       transform="matrix(3.0000026,0,0,3.0000026,195.52181,737.65643)">
      <path
         id="path4325"
         d="M 22.631,14.87 15,22.5 11.25,23.25 12,19.5 19.631,11.87 c 0.824,-0.826 2.162,-0.827 2.988,-0.003 0.001,10e-4 0.002,0.002 0.003,0.003 l 0.009,0.008 c 0.826,0.826 0.826,2.166 0,2.992 z"
         inkscape:connector-curvature="0"
         style="fill:none;stroke:#000000;stroke-width:1.5;stroke-linecap:round;stroke-linejoin:round" />
      <path
         id="path4327"
         d="m 8.25,20.25 -6,0 c -0.828,0 -1.5,-0.672 -1.5,-1.5 l 0,-16.5 c 0,-0.828 0.672,-1.5 1.5,-1.5 l 8.379,0 c 0.398,0 0.779,0.158 1.06,0.439 l 3.622,3.622 c 0.281,0.281 0.439,0.662 0.439,1.06 l 0,5.372"
         inkscape:connector-curvature="0"
         style="fill:none;stroke:#000000;stroke-width:1.5;stroke-linecap:round;stroke-linejoin:round" />
      <path
         id="path4329"
         d="m 3.75,5.25 3,0"
         inkscape:connector-curvature="0"
         style="fill:none;stroke:#000000;stroke-width:1.5;stroke-linecap:round;stroke-linejoin:round" />
      <path
         id="path4331"
         d="m 3.75,9.75 3,0"
         inkscape:connector-curvature="0"
         style="fill:none;stroke:#000000;stroke-width:1.5;stroke-linecap:round;stroke-linejoin:round" />
      <path
         id="path4333"
         d="m 3.75,14.25 3,0"
         inkscape:connector-curvature="0"
         style="fill:none;stroke:#000000;stroke-width:1.5;stroke-linecap:round;stroke-linejoin:round" />
      <path
         id="path4335"
         d="m 9.75,5.25 0,9"
         inkscape:connector-curvature="0"
         style="fill:none;stroke:#000000;stroke-width:1.5;stroke-linecap:round;stroke-linejoin:round" />
      <path
         id="path4337"
         d="m 12.75,9.75 -3,0"
         inkscape:connector-curvature="0"
         style="fill:none;stroke:#000000;stroke-width:1.5;stroke-linecap:round;stroke-linejoin:round" />
    </g>
    <g
       id="g4408"
       transform="matrix(3,0,0,3,306.42858,589.00525)">
      <path
         id="path4410"
         d="m 2.25,21.75 c -0.828,0 -1.5,-0.672 -1.5,-1.5 l 0,-16.385 C 0.753,2.974 1.474,2.253 2.365,2.25 l 19.278,0 c 0.886,0.003 1.604,0.721 1.607,1.607 l 0,16.278 c -0.003,0.891 -0.724,1.612 -1.615,1.615 l -19.385,0 z"
         inkscape:connector-curvature="0"
         style="fill:none;stroke:#000000;stroke-width:1.5;stroke-linecap:round;stroke-linejoin:round" />
      <path
         id="path4412"
         d="m 23.25,6.75 -22.5,0"
         inkscape:connector-curvature="0"
         style="fill:none;stroke:#000000;stroke-width:1.5;stroke-linecap:round;stroke-linejoin:round" />
      <path
         id="path4414"
         d="m 12.75,14.25 4.5,0"
         inkscape:connector-curvature="0"
         style="fill:none;stroke:#000000;stroke-width:1.5;stroke-linecap:round;stroke-linejoin:round" />
      <path
         id="path4416"
         d="m 6.75,11.25 3,3 -3,3"
         inkscape:connector-curvature="0"
         style="fill:none;stroke:#000000;stroke-width:1.5;stroke-linecap:round;stroke-linejoin:round" />
    </g>
    <g
       id="g4482"
       transform="matrix(3,0,0,3,92.009328,593.50525)">
      <path
         id="path4484"
         d="m 7.5,0.75 c 2.278,0 4.125,1.847 4.125,4.125 C 11.625,7.153 9.778,9 7.5,9 5.222,9 3.375,7.153 3.375,4.875 3.375,2.597 5.222,0.75 7.5,0.75 Z"
         inkscape:connector-curvature="0"
         style="fill:none;stroke:#000000;stroke-width:1.5;stroke-linecap:round;stroke-linejoin:round" />
      <path
         id="path4486"
         d="M 12.21,12.425 C 9.549,9.82 5.28,9.865 2.674,12.526 1.439,13.788 0.748,15.484 0.75,17.25"
         inkscape:connector-curvature="0"
         style="fill:none;stroke:#000000;stroke-width:1.5;stroke-linecap:round;stroke-linejoin:round" />
      <path
         id="path4488"
         d="m 20.25,9.75 -5.911,6.882 c -0.134,0.158 -0.115,0.394 0.043,0.529 0.068,0.058 0.154,0.089 0.243,0.089 l 2.625,0 0,6 5.91,-6.882 C 23.294,16.21 23.275,15.974 23.117,15.839 23.049,15.781 22.963,15.75 22.875,15.75 l -2.625,0 0,-6 z"
         inkscape:connector-curvature="0"
         style="fill:none;stroke:#000000;stroke-width:1.5;stroke-linecap:round;stroke-linejoin:round" />
    </g>
    <text
       sodipodi:linespacing="117%"
       id="text4500"
       y="688.26349"
       x="116.99867"
       style="font-style:normal;font-variant:normal;font-weight:normal;font-stretch:normal;font-size:22.5px;line-height:116.99999571%;font-family:'DejaVu Sans';-inkscape-font-specification:'DejaVu Sans, Normal';text-align:start;letter-spacing:0px;word-spacing:0px;writing-mode:lr-tb;text-anchor:start;fill:#000000;fill-opacity:1;stroke:none;stroke-width:1px;stroke-linecap:butt;stroke-linejoin:miter;stroke-opacity:1"
       xml:space="preserve"><tspan
         style="font-style:normal;font-variant:normal;font-weight:normal;font-stretch:normal;font-family:sans-serif;-inkscape-font-specification:sans-serif;text-align:center;text-anchor:middle"
         y="688.26349"
         x="116.99867"
         id="tspan4502"
         sodipodi:role="line">User</tspan></text>
    <path
       style="fill:none;fill-rule:evenodd;stroke:#000000;stroke-width:4.5;stroke-linecap:round;stroke-linejoin:round;stroke-miterlimit:4;stroke-dasharray:none;stroke-opacity:1;marker-end:url(#TriangleOutS)"
       d="m 195.71845,640.85929 57.78571,0"
       id="path4506"
       inkscape:connector-curvature="0"
       sodipodi:nodetypes="cc" />
    <rect
       style="color:#000000;clip-rule:nonzero;display:inline;overflow:visible;visibility:visible;opacity:1;isolation:auto;mix-blend-mode:normal;color-interpolation:sRGB;color-interpolation-filters:linearRGB;solid-color:#000000;solid-opacity:1;fill:none;fill-opacity:1;fill-rule:nonzero;stroke:#000000;stroke-width:4.5;stroke-linecap:round;stroke-linejoin:round;stroke-miterlimit:4;stroke-dasharray:none;stroke-dashoffset:0;stroke-opacity:1;color-rendering:auto;image-rendering:auto;shape-rendering:auto;text-rendering:auto;enable-background:accumulate"
       id="rect5540"
       width="324.56201"
       height="318.90515"
       x="475.17575"
       y="667.69611"
       ry="8.4852791" />
    <g
       id="g5603"
       transform="matrix(3,0,0,3,230.57776,313.49796)">
      <path
         id="path5605"
         d="m 20.25,9.75 0,-3 c 0,-0.828 -0.672,-1.5 -1.5,-1.5 l -10.5,0 0,-1.5 c 0,-0.828 -0.672,-1.5 -1.5,-1.5 l -4.5,0 c -0.828,0 -1.5,0.672 -1.5,1.5 l 0,16.3 c 0.013,0.939 0.785,1.689 1.723,1.676 0.752,-0.01 1.408,-0.514 1.613,-1.238 L 6.437,10.831 C 6.624,10.19 7.211,9.749 7.879,9.75 l 13.871,0 c 0.828,0 1.5,0.671 1.501,1.499 0,0.13 -0.017,0.26 -0.051,0.387 l -2.2,9 c -0.175,0.657 -0.77,1.114 -1.45,1.114 l -17.103,0"
         inkscape:connector-curvature="0"
         style="fill:none;stroke:#000000;stroke-width:1.5;stroke-linecap:round;stroke-linejoin:round" />
    </g>
    <g
       id="g5678"
       transform="matrix(3,0,0,3,230.49477,388.45139)">
      <path
         id="path5680"
         d="m 1.5,18.75 c 0,0.828 0.672,1.5 1.5,1.5 l 1.5,0"
         inkscape:connector-curvature="0"
         style="fill:none;stroke:#000000;stroke-width:1.5;stroke-linecap:round;stroke-linejoin:round" />
      <path
         id="path5682"
         d="m 8.25,6.75 3.75,0"
         inkscape:connector-curvature="0"
         style="fill:none;stroke:#000000;stroke-width:1.5;stroke-linecap:round;stroke-linejoin:round" />
      <path
         id="path5684"
         d="m 1.5,6.75 3,0"
         inkscape:connector-curvature="0"
         style="fill:none;stroke:#000000;stroke-width:1.5;stroke-linecap:round;stroke-linejoin:round" />
      <path
         id="path5686"
         d="m 1.5,4.5 0,3.75"
         inkscape:connector-curvature="0"
         style="fill:none;stroke:#000000;stroke-width:1.5;stroke-linecap:round;stroke-linejoin:round" />
      <path
         id="path5688"
         d="m 1.5,12 0,3"
         inkscape:connector-curvature="0"
         style="fill:none;stroke:#000000;stroke-width:1.5;stroke-linecap:round;stroke-linejoin:round" />
      <path
         id="path5690"
         d="m 12,20.25 -3.75,0"
         inkscape:connector-curvature="0"
         style="fill:none;stroke:#000000;stroke-width:1.5;stroke-linecap:round;stroke-linejoin:round" />
      <path
         id="path5692"
         d="m 21.75,2.25 -4.5,0 -1.28,-1.28 C 15.83,0.829 15.639,0.75 15.44,0.75 l -2.69,0 C 12.336,0.75 12,1.086 12,1.5 L 12,9 c 0,0.414 0.336,0.75 0.75,0.75 l 9,0 C 22.164,9.75 22.5,9.414 22.5,9 l 0,-6 c 0,-0.414 -0.336,-0.75 -0.75,-0.75 z"
         inkscape:connector-curvature="0"
         style="fill:none;stroke:#000000;stroke-width:1.5;stroke-linecap:round;stroke-linejoin:round" />
      <path
         id="path5694"
         d="m 21.75,15.75 -4.5,0 -1.28,-1.28 c -0.14,-0.141 -0.331,-0.22 -0.53,-0.22 l -2.69,0 C 12.336,14.25 12,14.586 12,15 l 0,7.5 c 0,0.414 0.336,0.75 0.75,0.75 l 9,0 c 0.414,0 0.75,-0.336 0.75,-0.75 l 0,-6 c 0,-0.414 -0.336,-0.75 -0.75,-0.75 z"
         inkscape:connector-curvature="0"
         style="fill:none;stroke:#000000;stroke-width:1.5;stroke-linecap:round;stroke-linejoin:round" />
    </g>
    <text
       xml:space="preserve"
       style="font-style:normal;font-variant:normal;font-weight:normal;font-stretch:normal;font-size:22.5px;line-height:116.99999571%;font-family:'DejaVu Sans';-inkscape-font-specification:'DejaVu Sans, Normal';text-align:start;letter-spacing:0px;word-spacing:0px;writing-mode:lr-tb;text-anchor:start;fill:#000000;fill-opacity:1;stroke:none;stroke-width:1px;stroke-linecap:butt;stroke-linejoin:miter;stroke-opacity:1"
       x="321.31805"
       y="370.04462"
       id="text5711"
       sodipodi:linespacing="117%"><tspan
         sodipodi:role="line"
         id="tspan5713"
         x="321.31805"
         y="370.04462"
         style="font-style:normal;font-variant:normal;font-weight:normal;font-stretch:normal;font-size:22.5px;line-height:116.99999571%;font-family:'DejaVu Sans';-inkscape-font-specification:'DejaVu Sans, Normal';text-align:start;writing-mode:lr-tb;text-anchor:start">GUILD_HOME/runs</tspan></text>
    <text
       sodipodi:linespacing="117%"
       id="text5715"
       y="412.49185"
       x="321.31805"
       style="font-style:normal;font-variant:normal;font-weight:normal;font-stretch:normal;font-size:22.5px;line-height:116.99999571%;font-family:'DejaVu Sans';-inkscape-font-specification:'DejaVu Sans, Normal';text-align:start;letter-spacing:0px;word-spacing:0px;writing-mode:lr-tb;text-anchor:start;fill:#000000;fill-opacity:1;stroke:none;stroke-width:1px;stroke-linecap:butt;stroke-linejoin:miter;stroke-opacity:1"
       xml:space="preserve"><tspan
         style="font-style:normal;font-variant:normal;font-weight:normal;font-stretch:normal;font-size:22.5px;line-height:116.99999571%;font-family:monospace;-inkscape-font-specification:monospace;text-align:start;writing-mode:lr-tb;text-anchor:start"
         y="412.49185"
         x="321.31805"
         id="tspan5717"
         sodipodi:role="line">c8856334d1a34ee6abd44d44584df8d1</tspan></text>
    <text
       xml:space="preserve"
       style="font-style:normal;font-variant:normal;font-weight:normal;font-stretch:normal;font-size:22.5px;line-height:116.99999571%;font-family:'DejaVu Sans';-inkscape-font-specification:'DejaVu Sans, Normal';text-align:start;letter-spacing:0px;word-spacing:0px;writing-mode:lr-tb;text-anchor:start;fill:#000000;fill-opacity:1;stroke:none;stroke-width:1px;stroke-linecap:butt;stroke-linejoin:miter;stroke-opacity:1"
       x="321.31805"
       y="452.79694"
       id="text5719"
       sodipodi:linespacing="117%"><tspan
         sodipodi:role="line"
         id="tspan5721"
         x="321.31805"
         y="452.79694"
         style="font-style:normal;font-variant:normal;font-weight:normal;font-stretch:normal;font-size:22.5px;line-height:116.99999571%;font-family:monospace;-inkscape-font-specification:monospace;text-align:start;writing-mode:lr-tb;text-anchor:start">08bf9872e3084330a4a0289673978443</tspan></text>
  </g>
</svg>
