<svg xmlns="http://www.w3.org/2000/svg" version="1.1" xmlns:xlink="http://www.w3.org/1999/xlink" xmlns:svgjs="http://svgjs.com/svgjs" viewBox="0 0 72 72" height="72" width="72"><title>Exported from Streamline App (https://app.streamlineicons.com)</title><g transform="matrix(3,0,0,3,0,0)"><path d="M 22.631,14.87L15,22.5l-3.75,0.75L12,19.5l7.631-7.63c0.824-0.826,2.162-0.827,2.988-0.003 c0.001,0.001,0.002,0.002,0.003,0.003l0.009,0.008C23.457,12.704,23.457,14.044,22.631,14.87z " stroke="#000000" fill="none" stroke-width="1.5" stroke-linecap="round" stroke-linejoin="round"></path><path d="M 8.25,20.25h-6 c-0.828,0-1.5-0.672-1.5-1.5V2.25c0-0.828,0.672-1.5,1.5-1.5h8.379c0.398,0,0.779,0.158,1.06,0.439l3.622,3.622 c0.281,0.281,0.439,0.662,0.439,1.06v5.372 " stroke="#000000" fill="none" stroke-width="1.5" stroke-linecap="round" stroke-linejoin="round"></path><path d="M 3.75,5.25h3 " stroke="#000000" fill="none" stroke-width="1.5" stroke-linecap="round" stroke-linejoin="round"></path><path d="M 3.75,9.75h3 " stroke="#000000" fill="none" stroke-width="1.5" stroke-linecap="round" stroke-linejoin="round"></path><path d="M 3.75,14.25h3 " stroke="#000000" fill="none" stroke-width="1.5" stroke-linecap="round" stroke-linejoin="round"></path><path d="M 9.75,5.25v9 " stroke="#000000" fill="none" stroke-width="1.5" stroke-linecap="round" stroke-linejoin="round"></path><path d="M 12.75,9.75h-3" stroke="#000000" fill="none" stroke-width="1.5" stroke-linecap="round" stroke-linejoin="round"></path></g></svg>