<svg xmlns="http://www.w3.org/2000/svg" version="1.1" xmlns:xlink="http://www.w3.org/1999/xlink" xmlns:svgjs="http://svgjs.com/svgjs" viewBox="0 0 72 72" height="72" width="72"><title>Exported from Streamline App (https://app.streamlineicons.com)</title><g transform="matrix(3,0,0,3,0,0)"><path d="M 20.25,9.75v-3c0-0.828-0.672-1.5-1.5-1.5H8.25v-1.5c0-0.828-0.672-1.5-1.5-1.5h-4.5 c-0.828,0-1.5,0.672-1.5,1.5v16.3c0.013,0.939,0.785,1.689,1.723,1.676c0.752-0.01,1.408-0.514,1.613-1.238l2.351-9.657 C6.624,10.19,7.211,9.749,7.879,9.75H21.75c0.828,0,1.5,0.671,1.501,1.499c0,0.13-0.017,0.26-0.051,0.387l-2.2,9 c-0.175,0.657-0.77,1.114-1.45,1.114H2.447" stroke="#000000" fill="none" stroke-width="1.5" stroke-linecap="round" stroke-linejoin="round"></path></g></svg>