<svg xmlns="http://www.w3.org/2000/svg" version="1.1" xmlns:xlink="http://www.w3.org/1999/xlink" xmlns:svgjs="http://svgjs.com/svgjs" viewBox="0 0 72 72" height="72" width="72"><title>Exported from Streamline App (https://app.streamlineicons.com)</title><g transform="matrix(3,0,0,3,0,0)"><path d="M 1.5,18.75c0,0.828,0.672,1.5,1.5,1.5h1.5 " stroke="#000000" fill="none" stroke-width="1.5" stroke-linecap="round" stroke-linejoin="round"></path><path d="M 8.25,6.75H12 " stroke="#000000" fill="none" stroke-width="1.5" stroke-linecap="round" stroke-linejoin="round"></path><path d="M 1.5,6.75h3 " stroke="#000000" fill="none" stroke-width="1.5" stroke-linecap="round" stroke-linejoin="round"></path><path d="M 1.5,4.5v3.75 " stroke="#000000" fill="none" stroke-width="1.5" stroke-linecap="round" stroke-linejoin="round"></path><path d="M 1.5,12v3 " stroke="#000000" fill="none" stroke-width="1.5" stroke-linecap="round" stroke-linejoin="round"></path><path d="M 12,20.25H8.25 " stroke="#000000" fill="none" stroke-width="1.5" stroke-linecap="round" stroke-linejoin="round"></path><path d="M 21.75,2.25h-4.5l-1.28-1.28c-0.14-0.141-0.331-0.22-0.53-0.22h-2.69C12.336,0.75,12,1.086,12,1.5V9c0,0.414,0.336,0.75,0.75,0.75 h9c0.414,0,0.75-0.336,0.75-0.75V3C22.5,2.586,22.164,2.25,21.75,2.25z " stroke="#000000" fill="none" stroke-width="1.5" stroke-linecap="round" stroke-linejoin="round"></path><path d="M 21.75,15.75h-4.5l-1.28-1.28 c-0.14-0.141-0.331-0.22-0.53-0.22h-2.69C12.336,14.25,12,14.586,12,15v7.5c0,0.414,0.336,0.75,0.75,0.75h9 c0.414,0,0.75-0.336,0.75-0.75v-6C22.5,16.086,22.164,15.75,21.75,15.75z" stroke="#000000" fill="none" stroke-width="1.5" stroke-linecap="round" stroke-linejoin="round"></path></g></svg>