<svg xmlns="http://www.w3.org/2000/svg" version="1.1" xmlns:xlink="http://www.w3.org/1999/xlink" xmlns:svgjs="http://svgjs.com/svgjs" viewBox="0 0 72 72" height="72" width="72"><title>Exported from Streamline App (https://app.streamlineicons.com)</title><g transform="matrix(3,0,0,3,0,0)"><path d="M 7.5,0.75c2.278,0,4.125,1.847,4.125,4.125S9.778,9,7.5,9S3.375,7.153,3.375,4.875S5.222,0.75,7.5,0.75z " stroke="#000000" fill="none" stroke-width="1.5" stroke-linecap="round" stroke-linejoin="round"></path><path d="M 12.21,12.425c-2.661-2.605-6.93-2.56-9.536,0.101c-1.235,1.262-1.926,2.958-1.924,4.724 " stroke="#000000" fill="none" stroke-width="1.5" stroke-linecap="round" stroke-linejoin="round"></path><path d="M 20.25,9.75l-5.911,6.882 c-0.134,0.158-0.115,0.394,0.043,0.529c0.068,0.058,0.154,0.089,0.243,0.089h2.625v6l5.91-6.882 c0.134-0.158,0.115-0.394-0.043-0.529c-0.068-0.058-0.154-0.089-0.242-0.089H20.25V9.75z" stroke="#000000" fill="none" stroke-width="1.5" stroke-linecap="round" stroke-linejoin="round"></path></g></svg>